SplineFontDB: 3.2
FontName: GotoMono-Bold
FullName: Goto Mono Bold
FamilyName: Goto Mono
Weight: Bold
Copyright: Copyright 2015 Google LLC. All Rights Reserved.
Version: 2.006
ItalicAngle: 0
UnderlinePosition: -125
UnderlineWidth: 50
Ascent: 800
Descent: 200
InvalidEm: 0
sfntRevision: 0x00020189
LayerCount: 2
Layer: 0 1 "Back" 1
Layer: 1 1 "Fore" 0
XUID: [1021 328 1927437058 12104731]
StyleMap: 0x0020
FSType: 0
OS2Version: 3
OS2_WeightWidthSlopeOnly: 0
OS2_UseTypoMetrics: 0
CreationTime: 1604030168
ModificationTime: 1609766846
PfmFamily: 17
TTFWeight: 700
TTFWidth: 5
LineGap: 0
VLineGap: 0
Panose: 2 11 8 9 4 5 4 2 2 4
OS2TypoAscent: 1069
OS2TypoAOffset: 0
OS2TypoDescent: -293
OS2TypoDOffset: 0
OS2TypoLinegap: 0
OS2WinAscent: 1069
OS2WinAOffset: 0
OS2WinDescent: 293
OS2WinDOffset: 0
HheadAscent: 1069
HheadAOffset: 0
HheadDescent: -293
HheadDOffset: 0
OS2SubXSize: 650
OS2SubYSize: 600
OS2SubXOff: 0
OS2SubYOff: 75
OS2SupXSize: 650
OS2SupYSize: 600
OS2SupXOff: 0
OS2SupYOff: 350
OS2StrikeYSize: 50
OS2StrikeYPos: 328
OS2CapHeight: 714
OS2XHeight: 546
OS2Vendor: 'GOOG'
OS2CodePages: 0000019f.dfd70000
OS2UnicodeRanges: e00002ff.0200fcff.08000039.00100000
Lookup: 1 0 0 "'aalt' Access All Alternates lookup 0" { "'aalt' Access All Alternates lookup 0 subtable"  } ['aalt' ('DFLT' <'dflt' > 'cyrl' <'MKD ' 'SRB ' 'dflt' > 'grek' <'dflt' > 'latn' <'APPH' 'CAT ' 'IPPH' 'MAH ' 'MOL ' 'NAV ' 'ROM ' 'dflt' > ) ]
Lookup: 3 0 0 "'aalt' Access All Alternates lookup 1" { "'aalt' Access All Alternates lookup 1 subtable"  } ['aalt' ('DFLT' <'dflt' > 'cyrl' <'MKD ' 'SRB ' 'dflt' > 'grek' <'dflt' > 'latn' <'APPH' 'CAT ' 'IPPH' 'MAH ' 'MOL ' 'NAV ' 'ROM ' 'dflt' > ) ]
Lookup: 4 0 0 "'ccmp' Glyph Composition/Decomposition lookup 2" { "'ccmp' Glyph Composition/Decomposition lookup 2 subtable"  } ['ccmp' ('DFLT' <'dflt' > 'cyrl' <'MKD ' 'SRB ' 'dflt' > 'grek' <'dflt' > 'latn' <'APPH' 'CAT ' 'IPPH' 'MAH ' 'MOL ' 'NAV ' 'ROM ' 'dflt' > ) ]

StartChar: .notdef
Encoding: 1114112 -1 0
Width: 530
Flags: W
LayerCount: 2
Fore
SplineSet
60 0 m 1,0,-1
 60 714 l 1,1,-1
 471 714 l 1,2,-1
 471 0 l 1,3,-1
 60 0 l 1,0,-1
111 51 m 1,4,-1
 420 51 l 1,5,-1
 420 663 l 1,6,-1
 111 663 l 1,7,-1
 111 51 l 1,4,-1
EndSplineSet
Validated: 1
EndChar

StartChar: exclam
Encoding: 33 33 4
Width: 530
Flags: W
LayerCount: 2
Fore
SplineSet
211 230 m 1,0,-1
 190 714 l 1,1,-1
 341 714 l 1,2,-1
 320 230 l 1,3,-1
 211 230 l 1,0,-1
266 -11 m 0,4,5
 228 -11 228 -11 207.5 10.5 c 128,-1,6
 187 32 187 32 187 71 c 0,7,8
 187 153 187 153 266 153 c 0,9,10
 303 153 303 153 323 132 c 128,-1,11
 343 111 343 111 343 71 c 0,12,13
 343 32 343 32 322 10.5 c 128,-1,14
 301 -11 301 -11 266 -11 c 0,4,5
EndSplineSet
Validated: 1
Substitution2: "'smcp' Lowercase to Small Capitals lookup 35 subtable" exclam.sc
Substitution2: "'c2sc' Capitals to Small Capitals lookup 34 subtable" exclam.sc
Substitution2: "'aalt' Access All Alternates lookup 0 subtable" exclam.sc
EndChar

StartChar: quotedbl
Encoding: 34 34 5
Width: 530
Flags: W
LayerCount: 2
Fore
SplineSet
316 456 m 1,0,-1
 297 714 l 1,1,-1
 434 714 l 1,2,-1
 415 456 l 1,3,-1
 316 456 l 1,0,-1
115 456 m 1,4,-1
 96 714 l 1,5,-1
 232 714 l 1,6,-1
 213 456 l 1,7,-1
 115 456 l 1,4,-1
EndSplineSet
Validated: 1
EndChar

StartChar: numbersign
Encoding: 35 35 6
Width: 530
Flags: W
LayerCount: 2
Fore
SplineSet
81 0 m 1,0,-1
 108 203 l 1,1,-1
 16 203 l 1,2,-1
 16 295 l 1,3,-1
 122 295 l 1,4,-1
 140 424 l 1,5,-1
 41 424 l 1,6,-1
 41 518 l 1,7,-1
 153 518 l 1,8,-1
 181 714 l 1,9,-1
 274 714 l 1,10,-1
 246 518 l 1,11,-1
 328 518 l 1,12,-1
 356 714 l 1,13,-1
 449 714 l 1,14,-1
 421 518 l 1,15,-1
 514 518 l 1,16,-1
 514 424 l 1,17,-1
 408 424 l 1,18,-1
 390 295 l 1,19,-1
 489 295 l 1,20,-1
 489 203 l 1,21,-1
 377 203 l 1,22,-1
 349 0 l 1,23,-1
 254 0 l 1,24,-1
 283 203 l 1,25,-1
 201 203 l 1,26,-1
 173 0 l 1,27,-1
 81 0 l 1,0,-1
215 295 m 1,28,-1
 297 295 l 1,29,-1
 315 424 l 1,30,-1
 233 424 l 1,31,-1
 215 295 l 1,28,-1
EndSplineSet
Validated: 1
EndChar

StartChar: dollar
Encoding: 36 36 7
Width: 530
Flags: W
LayerCount: 2
Fore
SplineSet
239 40 m 1,0,1
 146 43 146 43 73 79 c 1,2,-1
 73 194 l 1,3,4
 106 173 106 173 151.5 156.5 c 128,-1,5
 197 140 197 140 239 139 c 1,6,-1
 239 319 l 1,7,8
 148 354 148 354 106 397 c 128,-1,9
 64 440 64 440 64 510 c 0,10,11
 64 587 64 587 112.5 632 c 128,-1,12
 161 677 161 677 239 686 c 1,13,-1
 239 759 l 1,14,-1
 301 759 l 1,15,-1
 301 687 l 1,16,17
 384 682 384 682 455 645 c 1,18,-1
 424 548 l 1,19,20
 366 577 366 577 301 584 c 1,21,-1
 301 410 l 1,22,23
 386 378 386 378 430 338.5 c 128,-1,24
 474 299 474 299 474 227 c 0,25,26
 474 156 474 156 429.5 106.5 c 128,-1,27
 385 57 385 57 301 43 c 1,28,-1
 301 -58 l 1,29,-1
 239 -58 l 1,30,-1
 239 40 l 1,0,1
239 583 m 1,31,32
 172 572 172 572 172 510 c 0,33,34
 172 484 172 484 188 467.5 c 128,-1,35
 204 451 204 451 239 436 c 1,36,-1
 239 583 l 1,31,32
301 145 m 1,37,38
 335 153 335 153 351.5 172 c 128,-1,39
 368 191 368 191 368 219 c 0,40,41
 368 246 368 246 351.5 263 c 128,-1,42
 335 280 335 280 301 294 c 1,43,-1
 301 145 l 1,37,38
EndSplineSet
Validated: 1
EndChar

StartChar: percent
Encoding: 37 37 8
Width: 530
Flags: W
LayerCount: 2
Fore
SplineSet
139 383 m 0,0,1
 74 383 74 383 37 427 c 128,-1,2
 0 471 0 471 0 550 c 0,3,4
 0 632 0 632 37 677 c 128,-1,5
 74 722 74 722 139 722 c 0,6,7
 206 722 206 722 242.5 677.5 c 128,-1,8
 279 633 279 633 279 550 c 0,9,10
 279 470 279 470 242.5 426.5 c 128,-1,11
 206 383 206 383 139 383 c 0,0,1
141 461 m 0,12,13
 188 461 188 461 188 550 c 0,14,15
 188 644 188 644 141 644 c 0,16,17
 114 644 114 644 102.5 621.5 c 128,-1,18
 91 599 91 599 91 550 c 0,19,20
 91 461 91 461 141 461 c 0,12,13
28 118 m 1,21,-1
 398 596 l 1,22,-1
 497 596 l 1,23,-1
 129 118 l 1,24,-1
 28 118 l 1,21,-1
390 -9 m 0,25,26
 325 -9 325 -9 288 35 c 128,-1,27
 251 79 251 79 251 158 c 0,28,29
 251 240 251 240 288 285 c 128,-1,30
 325 330 325 330 390 330 c 0,31,32
 457 330 457 330 493.5 285.5 c 128,-1,33
 530 241 530 241 530 158 c 0,34,35
 530 78 530 78 493.5 34.5 c 128,-1,36
 457 -9 457 -9 390 -9 c 0,25,26
392 69 m 0,37,38
 439 69 439 69 439 158 c 0,39,40
 439 252 439 252 392 252 c 0,41,42
 365 252 365 252 353.5 229.5 c 128,-1,43
 342 207 342 207 342 158 c 0,44,45
 342 69 342 69 392 69 c 0,37,38
EndSplineSet
Validated: 1
EndChar

StartChar: ampersand
Encoding: 38 38 9
Width: 530
Flags: W
LayerCount: 2
Fore
SplineSet
198 -10 m 0,0,1
 111 -10 111 -10 68 41.5 c 128,-1,2
 25 93 25 93 25 172 c 0,3,4
 25 243 25 243 57 294.5 c 128,-1,5
 89 346 89 346 139 389 c 1,6,7
 118 422 118 422 100 463.5 c 128,-1,8
 82 505 82 505 82 560 c 0,9,10
 82 635 82 635 122 679 c 128,-1,11
 162 723 162 723 234 723 c 0,12,13
 310 723 310 723 347.5 680 c 128,-1,14
 385 637 385 637 385 569 c 0,15,16
 385 507 385 507 354 462 c 128,-1,17
 323 417 323 417 276 374 c 1,18,-1
 358 243 l 1,19,20
 371 276 371 276 379.5 310 c 128,-1,21
 388 344 388 344 392 373 c 1,22,-1
 499 373 l 1,23,24
 491 311 491 311 473 249 c 128,-1,25
 455 187 455 187 425 135 c 1,26,-1
 509 0 l 1,27,-1
 372 0 l 1,28,-1
 347 42 l 1,29,30
 316 17 316 17 279 3.5 c 128,-1,31
 242 -10 242 -10 198 -10 c 0,0,1
192 568 m 0,32,33
 192 538 192 538 202 510.5 c 128,-1,34
 212 483 212 483 224 461 c 1,35,36
 245 483 245 483 261.5 510 c 128,-1,37
 278 537 278 537 278 572 c 0,38,39
 278 600 278 600 266.5 615 c 128,-1,40
 255 630 255 630 236 630 c 0,41,42
 216 630 216 630 204 614.5 c 128,-1,43
 192 599 192 599 192 568 c 0,32,33
144 185 m 0,44,45
 144 148 144 148 162 125 c 128,-1,46
 180 102 180 102 213 102 c 0,47,48
 236 102 236 102 255 111 c 128,-1,49
 274 120 274 120 291 136 c 1,50,-1
 193 298 l 1,51,52
 172 275 172 275 158 247.5 c 128,-1,53
 144 220 144 220 144 185 c 0,44,45
EndSplineSet
Validated: 1
Substitution2: "'smcp' Lowercase to Small Capitals lookup 35 subtable" ampersand.sc
Substitution2: "'c2sc' Capitals to Small Capitals lookup 34 subtable" ampersand.sc
Substitution2: "'aalt' Access All Alternates lookup 0 subtable" ampersand.sc
EndChar

StartChar: quotesingle
Encoding: 39 39 10
Width: 530
Flags: W
LayerCount: 2
Fore
SplineSet
215 456 m 1,0,-1
 196 714 l 1,1,-1
 333 714 l 1,2,-1
 314 456 l 1,3,-1
 215 456 l 1,0,-1
EndSplineSet
Validated: 1
EndChar

StartChar: parenleft
Encoding: 40 40 11
Width: 530
Flags: W
LayerCount: 2
Fore
SplineSet
311 -169 m 1,0,1
 246 -83 246 -83 209.5 27 c 128,-1,2
 173 137 173 137 173 268 c 0,3,4
 173 401 173 401 210 514.5 c 128,-1,5
 247 628 247 628 311 714 c 1,6,-1
 425 714 l 1,7,8
 294 521 294 521 294 269 c 0,9,10
 294 148 294 148 327.5 38.5 c 128,-1,11
 361 -71 361 -71 424 -169 c 1,12,-1
 311 -169 l 1,0,1
EndSplineSet
Validated: 1
Substitution2: "'smcp' Lowercase to Small Capitals lookup 35 subtable" parenleft.sc
Substitution2: "'c2sc' Capitals to Small Capitals lookup 34 subtable" parenleft.sc
Substitution2: "'sups' Superscript lookup 23 subtable" uni207D
Substitution2: "'subs' Subscript lookup 22 subtable" uni208D
AlternateSubs2: "'aalt' Access All Alternates lookup 1 subtable" uni208D uni207D parenleft.sc
EndChar

StartChar: asterisk
Encoding: 42 42 13
Width: 530
Flags: W
LayerCount: 2
Fore
SplineSet
334 355 m 1,0,-1
 265 487 l 1,1,-1
 195 355 l 1,2,-1
 101 418 l 1,3,-1
 196 533 l 1,4,-1
 61 548 l 1,5,-1
 86 657 l 1,6,-1
 223 613 l 1,7,-1
 207 760 l 1,8,-1
 324 760 l 1,9,-1
 307 612 l 1,10,-1
 444 657 l 1,11,-1
 469 548 l 1,12,-1
 333 533 l 1,13,-1
 430 418 l 1,14,-1
 334 355 l 1,0,-1
EndSplineSet
Validated: 1
EndChar

StartChar: plus
Encoding: 43 43 14
Width: 530
Flags: W
LayerCount: 2
Fore
SplineSet
214 116 m 1,0,-1
 214 302 l 1,1,-1
 56 302 l 1,2,-1
 56 404 l 1,3,-1
 214 404 l 1,4,-1
 214 593 l 1,5,-1
 317 593 l 1,6,-1
 317 404 l 1,7,-1
 474 404 l 1,8,-1
 474 302 l 1,9,-1
 317 302 l 1,10,-1
 317 116 l 1,11,-1
 214 116 l 1,0,-1
EndSplineSet
Validated: 1
Substitution2: "'sups' Superscript lookup 23 subtable" uni207A
Substitution2: "'subs' Subscript lookup 22 subtable" uni208A
AlternateSubs2: "'aalt' Access All Alternates lookup 1 subtable" uni208A uni207A
EndChar

StartChar: comma
Encoding: 44 44 15
Width: 530
Flags: W
LayerCount: 2
Fore
SplineSet
174 -141 m 1,0,1
 183 -101 183 -101 192 -51.5 c 128,-1,2
 201 -2 201 -2 208 46.5 c 128,-1,3
 215 95 215 95 219 132 c 1,4,-1
 345 132 l 1,5,-1
 351 121 l 1,6,7
 339 55 339 55 320 -14 c 128,-1,8
 301 -83 301 -83 275 -141 c 1,9,-1
 174 -141 l 1,0,1
EndSplineSet
Validated: 1
EndChar

StartChar: hyphen
Encoding: 45 45 16
Width: 530
Flags: W
LayerCount: 2
Fore
SplineSet
133 206 m 1,0,-1
 133 330 l 1,1,-1
 398 330 l 1,2,-1
 398 206 l 1,3,-1
 133 206 l 1,0,-1
EndSplineSet
Validated: 1
EndChar

StartChar: period
Encoding: 46 46 17
Width: 530
Flags: W
LayerCount: 2
Fore
SplineSet
265 -11 m 0,0,1
 228 -11 228 -11 207 10.5 c 128,-1,2
 186 32 186 32 186 71 c 0,3,4
 186 153 186 153 265 153 c 0,5,6
 302 153 302 153 322.5 132 c 128,-1,7
 343 111 343 111 343 71 c 0,8,9
 343 32 343 32 322 10.5 c 128,-1,10
 301 -11 301 -11 265 -11 c 0,0,1
EndSplineSet
Validated: 1
EndChar

StartChar: slash
Encoding: 47 47 18
Width: 530
Flags: W
LayerCount: 2
Fore
SplineSet
72 -5 m 1,0,-1
 344 719 l 1,1,-1
 458 719 l 1,2,-1
 186 -5 l 1,3,-1
 72 -5 l 1,0,-1
EndSplineSet
Validated: 1
Substitution2: "'frac' Diagonal Fractions lookup 26 subtable" fraction
Substitution2: "'aalt' Access All Alternates lookup 0 subtable" fraction
EndChar

StartChar: zero
Encoding: 48 48 19
Width: 530
Flags: W
LayerCount: 2
Fore
SplineSet
273 -10 m 0,0,1
 168 -10 168 -10 115.5 78 c 128,-1,2
 63 166 63 166 63 358 c 0,3,4
 63 543 63 543 114 633.5 c 128,-1,5
 165 724 165 724 272 724 c 0,6,7
 378 724 378 724 430.5 631 c 128,-1,8
 483 538 483 538 483 356 c 0,9,10
 483 247 483 247 463.5 165 c 128,-1,11
 444 83 444 83 398 36.5 c 128,-1,12
 352 -10 352 -10 273 -10 c 0,0,1
193 356 m 0,13,14
 193 331 193 331 193 310 c 1,15,-1
 332 552 l 1,16,17
 314 609 314 609 272 609 c 0,18,19
 228 609 228 609 210.5 545.5 c 128,-1,20
 193 482 193 482 193 356 c 0,13,14
272 104 m 0,21,22
 317 104 317 104 334 165.5 c 128,-1,23
 351 227 351 227 351 355 c 0,24,25
 351 386 351 386 350 411 c 1,26,-1
 209 167 l 1,27,28
 228 104 228 104 272 104 c 0,21,22
EndSplineSet
Validated: 1
Substitution2: "'zero' Slashed Zero lookup 37 subtable" zero.slash
Substitution2: "'onum' Oldstyle Figures lookup 33 subtable" zero.osf
Substitution2: "'frac' Diagonal Fractions lookup 27 subtable" zero.numr
Substitution2: "'dnom' Denominators lookup 25 subtable" zero.dnom
Substitution2: "'numr' Numerators lookup 24 subtable" zero.numr
Substitution2: "'sups' Superscript lookup 23 subtable" uni2070
Substitution2: "'subs' Subscript lookup 22 subtable" uni2080
AlternateSubs2: "'aalt' Access All Alternates lookup 1 subtable" uni2070 zero.osf zero.dnom zero.numr uni2080
EndChar

StartChar: one
Encoding: 49 49 20
Width: 530
Flags: W
LayerCount: 2
Fore
SplineSet
86 0 m 1,0,-1
 86 98 l 1,1,-1
 220 111 l 1,2,-1
 220 419 l 2,3,4
 220 469 220 469 221 506 c 128,-1,5
 222 543 222 543 226 577 c 1,6,7
 209 564 209 564 192.5 554.5 c 128,-1,8
 176 545 176 545 160 537 c 2,9,-1
 85 497 l 1,10,-1
 27 602 l 1,11,-1
 231 714 l 1,12,-1
 353 714 l 1,13,-1
 353 111 l 1,14,-1
 485 98 l 1,15,-1
 485 0 l 1,16,-1
 86 0 l 1,0,-1
EndSplineSet
Validated: 1
Substitution2: "'onum' Oldstyle Figures lookup 33 subtable" one.osf
Substitution2: "'frac' Diagonal Fractions lookup 27 subtable" one.numr
Substitution2: "'dnom' Denominators lookup 25 subtable" one.dnom
Substitution2: "'numr' Numerators lookup 24 subtable" one.numr
Substitution2: "'sups' Superscript lookup 23 subtable" uni00B9
Substitution2: "'subs' Subscript lookup 22 subtable" uni2081
AlternateSubs2: "'aalt' Access All Alternates lookup 1 subtable" uni00B9 one.osf one.dnom one.numr uni2081
EndChar

StartChar: two
Encoding: 50 50 21
Width: 530
Flags: W
LayerCount: 2
Fore
SplineSet
61 0 m 1,0,-1
 61 95 l 1,1,-1
 209 283 l 2,2,3
 252 339 252 339 278.5 378.5 c 128,-1,4
 305 418 305 418 317.5 450 c 128,-1,5
 330 482 330 482 330 514 c 0,6,7
 330 560 330 560 310 584.5 c 128,-1,8
 290 609 290 609 250 609 c 0,9,10
 219 609 219 609 190.5 593.5 c 128,-1,11
 162 578 162 578 128 542 c 1,12,-1
 60 630 l 1,13,14
 108 680 108 680 155 702 c 128,-1,15
 202 724 202 724 262 724 c 0,16,17
 355 724 355 724 410 671 c 128,-1,18
 465 618 465 618 465 525 c 0,19,20
 465 449 465 449 426.5 383.5 c 128,-1,21
 388 318 388 318 319 237 c 2,22,-1
 221 121 l 1,23,-1
 221 115 l 1,24,-1
 478 115 l 1,25,-1
 478 0 l 1,26,-1
 61 0 l 1,0,-1
EndSplineSet
Validated: 1
Substitution2: "'onum' Oldstyle Figures lookup 33 subtable" two.osf
Substitution2: "'frac' Diagonal Fractions lookup 27 subtable" two.numr
Substitution2: "'dnom' Denominators lookup 25 subtable" two.dnom
Substitution2: "'numr' Numerators lookup 24 subtable" two.numr
Substitution2: "'sups' Superscript lookup 23 subtable" uni00B2
Substitution2: "'subs' Subscript lookup 22 subtable" uni2082
AlternateSubs2: "'aalt' Access All Alternates lookup 1 subtable" uni00B2 two.osf two.dnom two.numr uni2082
EndChar

StartChar: three
Encoding: 51 51 22
Width: 530
Flags: W
LayerCount: 2
Fore
SplineSet
235 -10 m 0,0,1
 145 -10 145 -10 66 25 c 1,2,-1
 66 147 l 1,3,4
 146 103 146 103 224 103 c 0,5,6
 282 103 282 103 309.5 130.5 c 128,-1,7
 337 158 337 158 337 208 c 0,8,9
 337 262 337 262 303.5 287.5 c 128,-1,10
 270 313 270 313 195 313 c 2,11,-1
 154 313 l 1,12,-1
 154 422 l 1,13,-1
 196 422 l 2,14,15
 263 422 263 422 296.5 450 c 128,-1,16
 330 478 330 478 330 527 c 0,17,18
 330 566 330 566 309.5 588.5 c 128,-1,19
 289 611 289 611 246 611 c 0,20,21
 215 611 215 611 185 599 c 128,-1,22
 155 587 155 587 120 562 c 1,23,-1
 65 657 l 1,24,25
 106 689 106 689 155 706.5 c 128,-1,26
 204 724 204 724 261 724 c 0,27,28
 349 724 349 724 403.5 680 c 128,-1,29
 458 636 458 636 458 550 c 0,30,31
 458 483 458 483 424.5 439 c 128,-1,32
 391 395 391 395 332 375 c 1,33,-1
 332 372 l 1,34,35
 474 345 474 345 474 201 c 0,36,37
 474 100 474 100 410 45 c 128,-1,38
 346 -10 346 -10 235 -10 c 0,0,1
EndSplineSet
Validated: 1
Substitution2: "'onum' Oldstyle Figures lookup 33 subtable" three.osf
Substitution2: "'frac' Diagonal Fractions lookup 27 subtable" three.numr
Substitution2: "'dnom' Denominators lookup 25 subtable" three.dnom
Substitution2: "'numr' Numerators lookup 24 subtable" three.numr
Substitution2: "'sups' Superscript lookup 23 subtable" uni00B3
Substitution2: "'subs' Subscript lookup 22 subtable" uni2083
AlternateSubs2: "'aalt' Access All Alternates lookup 1 subtable" uni00B3 three.osf three.dnom three.numr uni2083
EndChar

StartChar: four
Encoding: 52 52 23
Width: 530
Flags: W
LayerCount: 2
Fore
SplineSet
291 0 m 1,0,-1
 291 147 l 1,1,-1
 33 147 l 1,2,-1
 33 250 l 1,3,-1
 289 716 l 1,4,-1
 419 716 l 1,5,-1
 419 255 l 1,6,-1
 497 255 l 1,7,-1
 497 147 l 1,8,-1
 419 147 l 1,9,-1
 419 0 l 1,10,-1
 291 0 l 1,0,-1
145 255 m 1,11,-1
 290 255 l 1,12,-1
 290 420 l 2,13,14
 290 446 290 446 291.5 482 c 128,-1,15
 293 518 293 518 294 541 c 1,16,-1
 290 541 l 1,17,18
 282 520 282 520 273 501 c 128,-1,19
 264 482 264 482 254 462 c 2,20,-1
 145 255 l 1,11,-1
EndSplineSet
Validated: 1
Substitution2: "'onum' Oldstyle Figures lookup 33 subtable" four.osf
Substitution2: "'frac' Diagonal Fractions lookup 27 subtable" four.numr
Substitution2: "'dnom' Denominators lookup 25 subtable" four.dnom
Substitution2: "'numr' Numerators lookup 24 subtable" four.numr
Substitution2: "'sups' Superscript lookup 23 subtable" uni2074
Substitution2: "'subs' Subscript lookup 22 subtable" uni2084
AlternateSubs2: "'aalt' Access All Alternates lookup 1 subtable" uni2074 four.osf four.dnom four.numr uni2084
EndChar

StartChar: five
Encoding: 53 53 24
Width: 530
Flags: W
LayerCount: 2
Fore
SplineSet
225 -10 m 0,0,1
 134 -10 134 -10 71 25 c 1,2,-1
 71 146 l 1,3,4
 106 127 106 127 145 115.5 c 128,-1,5
 184 104 184 104 220 104 c 0,6,7
 274 104 274 104 301.5 137.5 c 128,-1,8
 329 171 329 171 329 227 c 0,9,10
 329 287 329 287 299.5 315.5 c 128,-1,11
 270 344 270 344 220 344 c 0,12,13
 172 344 172 344 128 327 c 1,14,-1
 80 360 l 1,15,-1
 103 714 l 1,16,-1
 427 714 l 1,17,-1
 427 598 l 1,18,-1
 217 598 l 1,19,-1
 206 445 l 1,20,21
 228 450 228 450 246 452 c 128,-1,22
 264 454 264 454 279 454 c 0,23,24
 334 454 334 454 375.5 426.5 c 128,-1,25
 417 399 417 399 441 349.5 c 128,-1,26
 465 300 465 300 465 233 c 0,27,28
 465 117 465 117 401.5 53.5 c 128,-1,29
 338 -10 338 -10 225 -10 c 0,0,1
EndSplineSet
Validated: 1
Substitution2: "'onum' Oldstyle Figures lookup 33 subtable" five.osf
Substitution2: "'frac' Diagonal Fractions lookup 27 subtable" five.numr
Substitution2: "'dnom' Denominators lookup 25 subtable" five.dnom
Substitution2: "'numr' Numerators lookup 24 subtable" five.numr
Substitution2: "'sups' Superscript lookup 23 subtable" uni2075
Substitution2: "'subs' Subscript lookup 22 subtable" uni2085
AlternateSubs2: "'aalt' Access All Alternates lookup 1 subtable" uni2075 five.osf five.dnom five.numr uni2085
EndChar

StartChar: six
Encoding: 54 54 25
Width: 530
Flags: W
LayerCount: 2
Fore
SplineSet
274 -10 m 0,0,1
 173 -10 173 -10 115 73 c 128,-1,2
 57 156 57 156 57 310 c 0,3,4
 57 433 57 433 85.5 526 c 128,-1,5
 114 619 114 619 178 671 c 128,-1,6
 242 723 242 723 349 723 c 0,7,8
 398 723 398 723 437 715 c 1,9,-1
 437 602 l 1,10,11
 398 613 398 613 355 613 c 0,12,13
 272 613 272 613 229.5 556 c 128,-1,14
 187 499 187 499 182 382 c 1,15,-1
 187 382 l 1,16,17
 205 422 205 422 236 443.5 c 128,-1,18
 267 465 267 465 311 465 c 0,19,20
 392 465 392 465 434 401.5 c 128,-1,21
 476 338 476 338 476 236 c 0,22,23
 476 125 476 125 424 57.5 c 128,-1,24
 372 -10 372 -10 274 -10 c 0,0,1
271 105 m 0,25,26
 306 105 306 105 325.5 136.5 c 128,-1,27
 345 168 345 168 345 233 c 0,28,29
 345 354 345 354 273 354 c 0,30,31
 236 354 236 354 214 323 c 128,-1,32
 192 292 192 292 192 246 c 0,33,34
 192 210 192 210 200.5 177.5 c 128,-1,35
 209 145 209 145 227 125 c 128,-1,36
 245 105 245 105 271 105 c 0,25,26
EndSplineSet
Validated: 1
Substitution2: "'onum' Oldstyle Figures lookup 33 subtable" six.osf
Substitution2: "'frac' Diagonal Fractions lookup 27 subtable" six.numr
Substitution2: "'dnom' Denominators lookup 25 subtable" six.dnom
Substitution2: "'numr' Numerators lookup 24 subtable" six.numr
Substitution2: "'sups' Superscript lookup 23 subtable" uni2076
Substitution2: "'subs' Subscript lookup 22 subtable" uni2086
AlternateSubs2: "'aalt' Access All Alternates lookup 1 subtable" uni2076 six.osf six.dnom six.numr uni2086
EndChar

StartChar: seven
Encoding: 55 55 26
Width: 530
Flags: W
LayerCount: 2
Fore
SplineSet
119 0 m 1,0,-1
 347 598 l 1,1,-1
 60 598 l 1,2,-1
 60 714 l 1,3,-1
 484 714 l 1,4,-1
 484 624 l 1,5,-1
 260 0 l 1,6,-1
 119 0 l 1,0,-1
EndSplineSet
Validated: 1
Substitution2: "'onum' Oldstyle Figures lookup 33 subtable" seven.osf
Substitution2: "'frac' Diagonal Fractions lookup 27 subtable" seven.numr
Substitution2: "'dnom' Denominators lookup 25 subtable" seven.dnom
Substitution2: "'numr' Numerators lookup 24 subtable" seven.numr
Substitution2: "'sups' Superscript lookup 23 subtable" uni2077
Substitution2: "'subs' Subscript lookup 22 subtable" uni2087
AlternateSubs2: "'aalt' Access All Alternates lookup 1 subtable" uni2077 seven.osf seven.dnom seven.numr uni2087
EndChar

StartChar: eight
Encoding: 56 56 27
Width: 530
Flags: W
LayerCount: 2
Fore
SplineSet
271 -10 m 0,0,1
 173 -10 173 -10 115.5 39.5 c 128,-1,2
 58 89 58 89 58 182 c 0,3,4
 58 242 58 242 86.5 289 c 128,-1,5
 115 336 115 336 176 373 c 1,6,7
 125 411 125 411 101.5 455.5 c 128,-1,8
 78 500 78 500 78 553 c 0,9,10
 78 634 78 634 131.5 679 c 128,-1,11
 185 724 185 724 271 724 c 0,12,13
 359 724 359 724 411.5 679.5 c 128,-1,14
 464 635 464 635 464 553 c 0,15,16
 464 496 464 496 438 452 c 128,-1,17
 412 408 412 408 355 376 c 1,18,19
 420 333 420 333 451 288 c 128,-1,20
 482 243 482 243 482 185 c 0,21,22
 482 93 482 93 423.5 41.5 c 128,-1,23
 365 -10 365 -10 271 -10 c 0,0,1
271 437 m 1,24,25
 308 462 308 462 323.5 486.5 c 128,-1,26
 339 511 339 511 339 543 c 0,27,28
 339 577 339 577 320 597 c 128,-1,29
 301 617 301 617 271 617 c 256,30,31
 241 617 241 617 223 597 c 128,-1,32
 205 577 205 577 205 543 c 256,33,34
 205 509 205 509 222 484 c 128,-1,35
 239 459 239 459 271 437 c 1,24,25
269 97 m 0,36,37
 313 97 313 97 334.5 121 c 128,-1,38
 356 145 356 145 356 186 c 0,39,40
 356 223 356 223 334 250.5 c 128,-1,41
 312 278 312 278 265 312 c 1,42,43
 223 285 223 285 204.5 255 c 128,-1,44
 186 225 186 225 186 186 c 0,45,46
 186 145 186 145 207.5 121 c 128,-1,47
 229 97 229 97 269 97 c 0,36,37
EndSplineSet
Validated: 1
Substitution2: "'onum' Oldstyle Figures lookup 33 subtable" eight.osf
Substitution2: "'frac' Diagonal Fractions lookup 27 subtable" eight.numr
Substitution2: "'dnom' Denominators lookup 25 subtable" eight.dnom
Substitution2: "'numr' Numerators lookup 24 subtable" eight.numr
Substitution2: "'sups' Superscript lookup 23 subtable" uni2078
Substitution2: "'subs' Subscript lookup 22 subtable" uni2088
AlternateSubs2: "'aalt' Access All Alternates lookup 1 subtable" uni2078 eight.osf eight.dnom eight.numr uni2088
EndChar

StartChar: nine
Encoding: 57 57 28
Width: 530
Flags: W
LayerCount: 2
Fore
SplineSet
187 -10 m 0,0,1
 139 -10 139 -10 99 -1 c 1,2,-1
 99 112 l 1,3,4
 137 100 137 100 182 100 c 0,5,6
 243 100 243 100 280 128.5 c 128,-1,7
 317 157 317 157 335 209 c 128,-1,8
 353 261 353 261 356 331 c 1,9,-1
 351 331 l 1,10,11
 332 292 332 292 301 270.5 c 128,-1,12
 270 249 270 249 227 249 c 0,13,14
 146 249 146 249 103.5 312 c 128,-1,15
 61 375 61 375 61 478 c 0,16,17
 61 588 61 588 114 656 c 128,-1,18
 167 724 167 724 266 724 c 0,19,20
 366 724 366 724 423.5 642 c 128,-1,21
 481 560 481 560 481 409 c 0,22,23
 481 282 481 282 452 188 c 128,-1,24
 423 94 423 94 358.5 42 c 128,-1,25
 294 -10 294 -10 187 -10 c 0,0,1
265 360 m 0,26,27
 304 360 304 360 325 394 c 128,-1,28
 346 428 346 428 346 469 c 0,29,30
 346 497 346 497 339 529.5 c 128,-1,31
 332 562 332 562 314.5 585.5 c 128,-1,32
 297 609 297 609 267 609 c 0,33,34
 233 609 233 609 213 577 c 128,-1,35
 193 545 193 545 193 480 c 0,36,37
 193 360 193 360 265 360 c 0,26,27
EndSplineSet
Validated: 1
Substitution2: "'onum' Oldstyle Figures lookup 33 subtable" nine.osf
Substitution2: "'frac' Diagonal Fractions lookup 27 subtable" nine.numr
Substitution2: "'dnom' Denominators lookup 25 subtable" nine.dnom
Substitution2: "'numr' Numerators lookup 24 subtable" nine.numr
Substitution2: "'sups' Superscript lookup 23 subtable" uni2079
Substitution2: "'subs' Subscript lookup 22 subtable" uni2089
AlternateSubs2: "'aalt' Access All Alternates lookup 1 subtable" uni2079 nine.osf nine.dnom nine.numr uni2089
EndChar

StartChar: colon
Encoding: 58 58 29
Width: 530
Flags: W
LayerCount: 2
Fore
SplineSet
266 388 m 0,0,1
 227 388 227 388 206.5 409.5 c 128,-1,2
 186 431 186 431 186 470 c 0,3,4
 186 553 186 553 266 553 c 0,5,6
 303 553 303 553 323 531 c 128,-1,7
 343 509 343 509 343 470 c 256,8,9
 343 431 343 431 322 409.5 c 128,-1,10
 301 388 301 388 266 388 c 0,0,1
266 -11 m 0,11,12
 228 -11 228 -11 207 10.5 c 128,-1,13
 186 32 186 32 186 71 c 0,14,15
 186 153 186 153 266 153 c 0,16,17
 303 153 303 153 323 132 c 128,-1,18
 343 111 343 111 343 71 c 0,19,20
 343 32 343 32 322 10.5 c 128,-1,21
 301 -11 301 -11 266 -11 c 0,11,12
EndSplineSet
Validated: 1
EndChar

StartChar: semicolon
Encoding: 59 59 30
Width: 530
Flags: W
LayerCount: 2
Fore
SplineSet
279 388 m 0,0,1
 241 388 241 388 220.5 409.5 c 128,-1,2
 200 431 200 431 200 470 c 0,3,4
 200 553 200 553 279 553 c 0,5,6
 316 553 316 553 336 531 c 128,-1,7
 356 509 356 509 356 470 c 256,8,9
 356 431 356 431 335 409.5 c 128,-1,10
 314 388 314 388 279 388 c 0,0,1
174 -141 m 1,11,12
 183 -100 183 -100 191.5 -51 c 128,-1,13
 200 -2 200 -2 207 46 c 128,-1,14
 214 94 214 94 219 132 c 1,15,-1
 345 132 l 1,16,-1
 351 121 l 1,17,18
 339 55 339 55 319.5 -14 c 128,-1,19
 300 -83 300 -83 275 -141 c 1,20,-1
 174 -141 l 1,11,12
EndSplineSet
Validated: 1
EndChar

StartChar: equal
Encoding: 61 61 32
Width: 530
Flags: W
LayerCount: 2
Fore
SplineSet
56 390 m 1,0,-1
 56 510 l 1,1,-1
 474 510 l 1,2,-1
 474 390 l 1,3,-1
 56 390 l 1,0,-1
56 175 m 1,4,-1
 56 295 l 1,5,-1
 474 295 l 1,6,-1
 474 175 l 1,7,-1
 56 175 l 1,4,-1
EndSplineSet
Validated: 1
Substitution2: "'sups' Superscript lookup 23 subtable" uni207C
Substitution2: "'subs' Subscript lookup 22 subtable" uni208C
AlternateSubs2: "'aalt' Access All Alternates lookup 1 subtable" uni208C uni207C
EndChar

StartChar: greater
Encoding: 62 62 33
Width: 530
Flags: W
LayerCount: 2
Fore
SplineSet
59 118 m 1,0,-1
 59 231 l 1,1,-1
 326 357 l 1,2,-1
 59 485 l 1,3,-1
 59 599 l 1,4,-1
 471 391 l 1,5,-1
 471 323 l 1,6,-1
 59 118 l 1,0,-1
EndSplineSet
Validated: 1
EndChar

StartChar: question
Encoding: 63 63 34
Width: 530
Flags: W
LayerCount: 2
Fore
SplineSet
187 266 m 2,0,1
 187 316 187 316 203 350.5 c 128,-1,2
 219 385 219 385 257 420 c 0,3,4
 292 453 292 453 307.5 479.5 c 128,-1,5
 323 506 323 506 323 541 c 0,6,7
 323 611 323 611 252 611 c 0,8,9
 222 611 222 611 192 599.5 c 128,-1,10
 162 588 162 588 126 567 c 1,11,-1
 81 665 l 1,12,13
 170 724 170 724 262 724 c 0,14,15
 349 724 349 724 399 678.5 c 128,-1,16
 449 633 449 633 449 551 c 0,17,18
 449 508 449 508 438.5 477 c 128,-1,19
 428 446 428 446 407 419 c 128,-1,20
 386 392 386 392 354 362 c 0,21,22
 319 329 319 329 307.5 308 c 128,-1,23
 296 287 296 287 296 254 c 2,24,-1
 296 230 l 1,25,-1
 187 230 l 1,26,-1
 187 266 l 2,0,1
243 -11 m 0,27,28
 206 -11 206 -11 184.5 10.5 c 128,-1,29
 163 32 163 32 163 71 c 0,30,31
 163 153 163 153 243 153 c 0,32,33
 279 153 279 153 299.5 132 c 128,-1,34
 320 111 320 111 320 71 c 0,35,36
 320 32 320 32 299.5 10.5 c 128,-1,37
 279 -11 279 -11 243 -11 c 0,27,28
EndSplineSet
Validated: 1
Substitution2: "'smcp' Lowercase to Small Capitals lookup 35 subtable" question.sc
Substitution2: "'c2sc' Capitals to Small Capitals lookup 34 subtable" question.sc
Substitution2: "'aalt' Access All Alternates lookup 0 subtable" question.sc
EndChar

StartChar: at
Encoding: 64 64 35
Width: 530
Flags: W
LayerCount: 2
Fore
SplineSet
273 -89 m 0,0,1
 185 -89 185 -89 124 -44 c 128,-1,2
 63 1 63 1 31.5 84 c 128,-1,3
 0 167 0 167 0 282 c 0,4,5
 0 406 0 406 34 504 c 128,-1,6
 68 602 68 602 133 658 c 128,-1,7
 198 714 198 714 290 714 c 0,8,9
 364 714 364 714 418 670 c 128,-1,10
 472 626 472 626 501 547.5 c 128,-1,11
 530 469 530 469 530 365 c 0,12,13
 530 291 530 291 515.5 233 c 128,-1,14
 501 175 501 175 473.5 141.5 c 128,-1,15
 446 108 446 108 407 108 c 0,16,17
 373 108 373 108 355.5 125 c 128,-1,18
 338 142 338 142 329 165 c 1,19,-1
 327 165 l 1,20,21
 315 143 315 143 295.5 125.5 c 128,-1,22
 276 108 276 108 246 108 c 0,23,24
 192 108 192 108 164 159 c 128,-1,25
 136 210 136 210 136 299 c 0,26,27
 136 398 136 398 179 459 c 128,-1,28
 222 520 222 520 295 520 c 0,29,30
 324 520 324 520 350.5 511.5 c 128,-1,31
 377 503 377 503 400 494 c 1,32,-1
 389 296 l 2,33,34
 388 289 388 289 388 281.5 c 128,-1,35
 388 274 388 274 388 265 c 0,36,37
 388 224 388 224 393 207 c 128,-1,38
 398 190 398 190 409 190 c 0,39,40
 423 190 423 190 431.5 238.5 c 128,-1,41
 440 287 440 287 440 363 c 0,42,43
 440 493 440 493 401.5 566 c 128,-1,44
 363 639 363 639 290 639 c 0,45,46
 230 639 230 639 185 595 c 128,-1,47
 140 551 140 551 115.5 472.5 c 128,-1,48
 91 394 91 394 91 289 c 0,49,50
 91 146 91 146 135.5 66.5 c 128,-1,51
 180 -13 180 -13 273 -13 c 0,52,53
 309 -13 309 -13 346 -2.5 c 128,-1,54
 383 8 383 8 422 27 c 1,55,-1
 422 -49 l 1,56,57
 387 -69 387 -69 351.5 -79 c 128,-1,58
 316 -89 316 -89 273 -89 c 0,0,1
259 190 m 0,59,60
 279 190 279 190 288 223 c 128,-1,61
 297 256 297 256 301 326 c 2,62,-1
 307 432 l 1,63,64
 297 438 297 438 285 438 c 0,65,66
 257 438 257 438 240.5 398.5 c 128,-1,67
 224 359 224 359 224 297 c 0,68,69
 224 190 224 190 259 190 c 0,59,60
EndSplineSet
Validated: 1
EndChar

StartChar: A
Encoding: 65 65 36
Width: 530
GlyphClass: 2
Flags: W
AnchorPoint: "Anchor-2" 510 714 basechar 0
AnchorPoint: "Anchor-1" 265 714 basechar 0
AnchorPoint: "Anchor-0" 265 0 basechar 0
LayerCount: 2
Fore
SplineSet
10 0 m 1,0,-1
 172 717 l 1,1,-1
 356 717 l 1,2,-1
 520 0 l 1,3,-1
 386 0 l 1,4,-1
 351 176 l 1,5,-1
 180 176 l 1,6,-1
 145 0 l 1,7,-1
 10 0 l 1,0,-1
240 472 m 2,8,-1
 204 294 l 1,9,-1
 327 294 l 1,10,-1
 290 472 l 2,11,12
 284 502 284 502 277.5 538 c 128,-1,13
 271 574 271 574 266 605 c 1,14,15
 260 574 260 574 253 537 c 128,-1,16
 246 500 246 500 240 472 c 2,8,-1
EndSplineSet
Validated: 1048577
Substitution2: "'c2sc' Capitals to Small Capitals lookup 34 subtable" a.sc
Substitution2: "Single Substitution lookup 32 subtable" ordfeminine
AlternateSubs2: "'aalt' Access All Alternates lookup 1 subtable" ordfeminine a.sc
EndChar

StartChar: B
Encoding: 66 66 37
Width: 530
GlyphClass: 2
Flags: W
AnchorPoint: "Anchor-2" 510 714 basechar 0
AnchorPoint: "Anchor-1" 265 714 basechar 0
AnchorPoint: "Anchor-0" 265 0 basechar 0
LayerCount: 2
Fore
SplineSet
63 0 m 1,0,-1
 63 714 l 1,1,-1
 257 714 l 2,2,3
 368 714 368 714 425 670.5 c 128,-1,4
 482 627 482 627 482 536 c 0,5,6
 482 473 482 473 455.5 432 c 128,-1,7
 429 391 429 391 382 379 c 1,8,-1
 382 374 l 1,9,10
 495 349 495 349 495 208 c 0,11,12
 495 108 495 108 438.5 54 c 128,-1,13
 382 0 382 0 285 0 c 2,14,-1
 63 0 l 1,0,-1
257 430 m 2,15,16
 346 430 346 430 346 515 c 0,17,18
 346 601 346 601 254 601 c 2,19,-1
 191 601 l 1,20,-1
 191 430 l 1,21,-1
 257 430 l 2,15,16
268 119 m 2,22,23
 313 119 313 119 335 144 c 128,-1,24
 357 169 357 169 357 215 c 0,25,26
 357 309 357 309 263 309 c 2,27,-1
 191 309 l 1,28,-1
 191 119 l 1,29,-1
 268 119 l 2,22,23
EndSplineSet
Validated: 1048577
Substitution2: "'c2sc' Capitals to Small Capitals lookup 34 subtable" b.sc
Substitution2: "'aalt' Access All Alternates lookup 0 subtable" b.sc
EndChar

StartChar: C
Encoding: 67 67 38
Width: 530
GlyphClass: 2
Flags: W
AnchorPoint: "Anchor-2" 510 714 basechar 0
AnchorPoint: "Anchor-1" 322 714 basechar 0
AnchorPoint: "Anchor-0" 310 0 basechar 0
LayerCount: 2
Fore
SplineSet
324 -13 m 0,0,1
 185 -13 185 -13 112.5 84 c 128,-1,2
 40 181 40 181 40 352 c 0,3,4
 40 462 40 462 74.5 546 c 128,-1,5
 109 630 109 630 175.5 677.5 c 128,-1,6
 242 725 242 725 337 725 c 0,7,8
 383 725 383 725 424 714 c 128,-1,9
 465 703 465 703 504 681 c 1,10,-1
 462 570 l 1,11,12
 433 586 433 586 403 594.5 c 128,-1,13
 373 603 373 603 342 603 c 0,14,15
 286 603 286 603 249 571 c 128,-1,16
 212 539 212 539 194.5 482 c 128,-1,17
 177 425 177 425 177 353 c 0,18,19
 177 230 177 230 221 169.5 c 128,-1,20
 265 109 265 109 345 109 c 0,21,22
 379 109 379 109 410.5 118.5 c 128,-1,23
 442 128 442 128 477 146 c 1,24,-1
 477 22 l 1,25,26
 408 -14 408 -14 324 -13 c 0,0,1
EndSplineSet
Validated: 1048609
Substitution2: "'c2sc' Capitals to Small Capitals lookup 34 subtable" c.sc
Substitution2: "'aalt' Access All Alternates lookup 0 subtable" c.sc
EndChar

StartChar: D
Encoding: 68 68 39
Width: 530
GlyphClass: 2
Flags: W
AnchorPoint: "Anchor-3" 269 357 basechar 0
AnchorPoint: "Anchor-2" 530 714 basechar 0
AnchorPoint: "Anchor-1" 260 714 basechar 0
AnchorPoint: "Anchor-0" 223 0 basechar 0
LayerCount: 2
Fore
SplineSet
38 0 m 1,0,-1
 38 714 l 1,1,-1
 233 714 l 2,2,3
 363 714 363 714 435 625.5 c 128,-1,4
 507 537 507 537 507 368 c 0,5,6
 507 190 507 190 432.5 95 c 128,-1,7
 358 0 358 0 223 0 c 2,8,-1
 38 0 l 1,0,-1
215 120 m 2,9,10
 295 120 295 120 332.5 179.5 c 128,-1,11
 370 239 370 239 370 363 c 0,12,13
 370 484 370 484 333 539 c 128,-1,14
 296 594 296 594 223 594 c 2,15,-1
 171 594 l 1,16,-1
 171 120 l 1,17,-1
 215 120 l 2,9,10
EndSplineSet
Validated: 1
Substitution2: "'c2sc' Capitals to Small Capitals lookup 34 subtable" d.sc
Substitution2: "'aalt' Access All Alternates lookup 0 subtable" d.sc
EndChar

StartChar: E
Encoding: 69 69 40
Width: 530
GlyphClass: 2
Flags: W
AnchorPoint: "Anchor-2" 510 714 basechar 0
AnchorPoint: "Anchor-1" 270 714 basechar 0
AnchorPoint: "Anchor-0" 269 0 basechar 0
LayerCount: 2
Fore
SplineSet
63 0 m 1,0,-1
 63 714 l 1,1,-1
 474 714 l 1,2,-1
 474 593 l 1,3,-1
 194 593 l 1,4,-1
 194 425 l 1,5,-1
 457 425 l 1,6,-1
 457 304 l 1,7,-1
 194 304 l 1,8,-1
 194 121 l 1,9,-1
 474 121 l 1,10,-1
 474 0 l 1,11,-1
 63 0 l 1,0,-1
EndSplineSet
Validated: 1048577
Substitution2: "'c2sc' Capitals to Small Capitals lookup 34 subtable" e.sc
Substitution2: "'aalt' Access All Alternates lookup 0 subtable" e.sc
EndChar

StartChar: F
Encoding: 70 70 41
Width: 530
GlyphClass: 2
Flags: W
AnchorPoint: "Anchor-2" 510 714 basechar 0
AnchorPoint: "Anchor-1" 275 714 basechar 0
AnchorPoint: "Anchor-0" 275 0 basechar 0
LayerCount: 2
Fore
SplineSet
63 0 m 1,0,-1
 63 714 l 1,1,-1
 474 714 l 1,2,-1
 474 593 l 1,3,-1
 194 593 l 1,4,-1
 194 397 l 1,5,-1
 458 397 l 1,6,-1
 458 277 l 1,7,-1
 194 277 l 1,8,-1
 194 0 l 1,9,-1
 63 0 l 1,0,-1
EndSplineSet
Validated: 1048577
Substitution2: "'c2sc' Capitals to Small Capitals lookup 34 subtable" f.sc
Substitution2: "'aalt' Access All Alternates lookup 0 subtable" f.sc
EndChar

StartChar: G
Encoding: 71 71 42
Width: 530
GlyphClass: 2
Flags: W
AnchorPoint: "Anchor-2" 510 714 basechar 0
AnchorPoint: "Anchor-1" 295 714 basechar 0
AnchorPoint: "Anchor-0" 300 0 basechar 0
LayerCount: 2
Fore
SplineSet
311 -10 m 0,0,1
 208 -10 208 -10 144.5 35 c 128,-1,2
 81 80 81 80 52 160 c 128,-1,3
 23 240 23 240 23 348 c 0,4,5
 23 528 23 528 98 626 c 128,-1,6
 173 724 173 724 312 724 c 0,7,8
 406 724 406 724 490 679 c 1,9,-1
 447 567 l 1,10,11
 416 587 416 587 385.5 595 c 128,-1,12
 355 603 355 603 327 603 c 0,13,14
 241 603 241 603 199.5 538.5 c 128,-1,15
 158 474 158 474 158 353 c 0,16,17
 158 283 158 283 172.5 228 c 128,-1,18
 187 173 187 173 219 142 c 128,-1,19
 251 111 251 111 301 111 c 0,20,21
 319 111 319 111 337 114 c 128,-1,22
 355 117 355 117 372 120 c 1,23,-1
 372 285 l 1,24,-1
 284 285 l 1,25,-1
 284 402 l 1,26,-1
 492 402 l 1,27,-1
 492 28 l 1,28,29
 444 8 444 8 401.5 -1 c 128,-1,30
 359 -10 359 -10 311 -10 c 0,0,1
EndSplineSet
Validated: 1048577
Substitution2: "'c2sc' Capitals to Small Capitals lookup 34 subtable" g.sc
Substitution2: "'aalt' Access All Alternates lookup 0 subtable" g.sc
EndChar

StartChar: H
Encoding: 72 72 43
Width: 530
GlyphClass: 2
Flags: W
AnchorPoint: "Anchor-3" 265 371 basechar 0
AnchorPoint: "Anchor-2" 530 714 basechar 0
AnchorPoint: "Anchor-1" 265 714 basechar 0
AnchorPoint: "Anchor-0" 265 0 basechar 0
LayerCount: 2
Fore
SplineSet
38 0 m 1,0,-1
 38 714 l 1,1,-1
 171 714 l 1,2,-1
 171 432 l 1,3,-1
 359 432 l 1,4,-1
 359 714 l 1,5,-1
 492 714 l 1,6,-1
 492 0 l 1,7,-1
 359 0 l 1,8,-1
 359 308 l 1,9,-1
 171 308 l 1,10,-1
 171 0 l 1,11,-1
 38 0 l 1,0,-1
EndSplineSet
Validated: 1
Substitution2: "'c2sc' Capitals to Small Capitals lookup 34 subtable" h.sc
Substitution2: "'aalt' Access All Alternates lookup 0 subtable" h.sc
EndChar

StartChar: I
Encoding: 73 73 44
Width: 530
GlyphClass: 2
Flags: W
AnchorPoint: "Anchor-2" 510 714 basechar 0
AnchorPoint: "Anchor-1" 265 714 basechar 0
AnchorPoint: "Anchor-0" 265 0 basechar 0
LayerCount: 2
Fore
SplineSet
69 0 m 1,0,-1
 69 99 l 1,1,-1
 201 113 l 1,2,-1
 201 602 l 1,3,-1
 69 615 l 1,4,-1
 69 714 l 1,5,-1
 461 714 l 1,6,-1
 461 615 l 1,7,-1
 329 602 l 1,8,-1
 329 113 l 1,9,-1
 461 99 l 1,10,-1
 461 0 l 1,11,-1
 69 0 l 1,0,-1
EndSplineSet
Validated: 1048577
Substitution2: "'c2sc' Capitals to Small Capitals lookup 34 subtable" i.sc
Substitution2: "'aalt' Access All Alternates lookup 0 subtable" i.sc
EndChar

StartChar: J
Encoding: 74 74 45
Width: 530
GlyphClass: 2
Flags: W
AnchorPoint: "Anchor-2" 510 714 basechar 0
AnchorPoint: "Anchor-1" 368 714 basechar 0
AnchorPoint: "Anchor-0" 265 0 basechar 0
LayerCount: 2
Fore
SplineSet
199 -10 m 0,0,1
 166 -10 166 -10 128.5 -5 c 128,-1,2
 91 0 91 0 57 12 c 1,3,-1
 57 131 l 1,4,5
 93 118 93 118 124.5 113 c 128,-1,6
 156 108 156 108 182 108 c 0,7,8
 252 108 252 108 277.5 142 c 128,-1,9
 303 176 303 176 303 250 c 2,10,-1
 303 714 l 1,11,-1
 434 714 l 1,12,-1
 434 235 l 2,13,14
 434 118 434 118 378 54 c 128,-1,15
 322 -10 322 -10 199 -10 c 0,0,1
EndSplineSet
Validated: 1048577
Substitution2: "'c2sc' Capitals to Small Capitals lookup 34 subtable" j.sc
Substitution2: "'aalt' Access All Alternates lookup 0 subtable" j.sc
EndChar

StartChar: K
Encoding: 75 75 46
Width: 530
GlyphClass: 2
Flags: W
AnchorPoint: "Anchor-2" 510 714 basechar 0
AnchorPoint: "Anchor-1" 265 714 basechar 0
AnchorPoint: "Anchor-0" 272 0 basechar 0
LayerCount: 2
Fore
SplineSet
38 0 m 1,0,-1
 38 714 l 1,1,-1
 170 714 l 1,2,-1
 170 376 l 1,3,4
 182 402 182 402 194 424 c 128,-1,5
 206 446 206 446 223 475 c 2,6,-1
 364 714 l 1,7,-1
 515 714 l 1,8,-1
 324 393 l 1,9,-1
 515 0 l 1,10,-1
 360 0 l 1,11,-1
 221 292 l 1,12,-1
 170 240 l 1,13,-1
 170 0 l 1,14,-1
 38 0 l 1,0,-1
EndSplineSet
Validated: 1048577
Substitution2: "'c2sc' Capitals to Small Capitals lookup 34 subtable" k.sc
Substitution2: "'aalt' Access All Alternates lookup 0 subtable" k.sc
EndChar

StartChar: L
Encoding: 76 76 47
Width: 530
GlyphClass: 2
Flags: W
AnchorPoint: "Anchor-3" 265 357 basechar 0
AnchorPoint: "Anchor-2" 395 714 basechar 0
AnchorPoint: "Anchor-1" 138 714 basechar 0
AnchorPoint: "Anchor-0" 288 0 basechar 0
LayerCount: 2
Fore
SplineSet
73 0 m 1,0,-1
 73 714 l 1,1,-1
 206 714 l 1,2,-1
 206 120 l 1,3,-1
 474 120 l 1,4,-1
 474 0 l 1,5,-1
 73 0 l 1,0,-1
EndSplineSet
Validated: 1
Substitution2: "'c2sc' Capitals to Small Capitals lookup 34 subtable" l.sc
Substitution2: "'aalt' Access All Alternates lookup 0 subtable" l.sc
EndChar

StartChar: M
Encoding: 77 77 48
Width: 530
GlyphClass: 2
Flags: W
AnchorPoint: "Anchor-2" 530 714 basechar 0
AnchorPoint: "Anchor-1" 268 714 basechar 0
AnchorPoint: "Anchor-0" 265 0 basechar 0
LayerCount: 2
Fore
SplineSet
26 0 m 1,0,-1
 26 714 l 1,1,-1
 220 714 l 1,2,-1
 260 312 l 1,3,-1
 267 312 l 1,4,-1
 311 714 l 1,5,-1
 504 714 l 1,6,-1
 504 0 l 1,7,-1
 381 0 l 1,8,-1
 381 181 l 2,9,10
 381 221 381 221 383.5 272 c 128,-1,11
 386 323 386 323 389 375.5 c 128,-1,12
 392 428 392 428 395 475 c 128,-1,13
 398 522 398 522 400.5 554.5 c 128,-1,14
 403 587 403 587 404 597 c 1,15,-1
 397 597 l 1,16,-1
 330 176 l 1,17,-1
 197 176 l 1,18,-1
 130 597 l 1,19,-1
 123 597 l 1,20,21
 124 586 124 586 126.5 553.5 c 128,-1,22
 129 521 129 521 132.5 474 c 128,-1,23
 136 427 136 427 139.5 374 c 128,-1,24
 143 321 143 321 145 269 c 128,-1,25
 147 217 147 217 147 174 c 2,26,-1
 147 0 l 1,27,-1
 26 0 l 1,0,-1
EndSplineSet
Validated: 1048577
Substitution2: "'c2sc' Capitals to Small Capitals lookup 34 subtable" m.sc
Substitution2: "'aalt' Access All Alternates lookup 0 subtable" m.sc
EndChar

StartChar: N
Encoding: 78 78 49
Width: 530
GlyphClass: 2
Flags: W
AnchorPoint: "Anchor-2" 530 714 basechar 0
AnchorPoint: "Anchor-1" 270 714 basechar 0
AnchorPoint: "Anchor-0" 265 0 basechar 0
LayerCount: 2
Fore
SplineSet
38 0 m 1,0,-1
 38 714 l 1,1,-1
 234 714 l 1,2,-1
 375 136 l 1,3,-1
 381 136 l 1,4,5
 378 164 378 164 375.5 201 c 128,-1,6
 373 238 373 238 370.5 276.5 c 128,-1,7
 368 315 368 315 366 349.5 c 128,-1,8
 364 384 364 384 364 406 c 2,9,-1
 364 714 l 1,10,-1
 492 714 l 1,11,-1
 492 0 l 1,12,-1
 301 0 l 1,13,-1
 158 582 l 1,14,-1
 152 582 l 1,15,16
 155 542 155 542 158 498.5 c 128,-1,17
 161 455 161 455 162.5 416.5 c 128,-1,18
 164 378 164 378 164 354 c 2,19,-1
 164 0 l 1,20,-1
 38 0 l 1,0,-1
EndSplineSet
Validated: 1048577
Substitution2: "'c2sc' Capitals to Small Capitals lookup 34 subtable" n.sc
Substitution2: "'aalt' Access All Alternates lookup 0 subtable" n.sc
EndChar

StartChar: O
Encoding: 79 79 50
Width: 530
GlyphClass: 2
Flags: W
AnchorPoint: "Anchor-3" 265 357 basechar 0
AnchorPoint: "Anchor-2" 530 714 basechar 0
AnchorPoint: "Anchor-1" 265 714 basechar 0
AnchorPoint: "Anchor-0" 265 0 basechar 0
LayerCount: 2
Fore
SplineSet
265 -9 m 0,0,1
 182 -9 182 -9 128.5 36 c 128,-1,2
 75 81 75 81 49 163.5 c 128,-1,3
 23 246 23 246 23 359 c 0,4,5
 23 537 23 537 83.5 631.5 c 128,-1,6
 144 726 144 726 265 726 c 0,7,8
 389 726 389 726 448 627.5 c 128,-1,9
 507 529 507 529 507 358 c 0,10,11
 507 245 507 245 481 163 c 128,-1,12
 455 81 455 81 401 36 c 128,-1,13
 347 -9 347 -9 265 -9 c 0,0,1
265 112 m 0,14,15
 320 112 320 112 345 173.5 c 128,-1,16
 370 235 370 235 370 358 c 0,17,18
 370 483 370 483 345 544.5 c 128,-1,19
 320 606 320 606 265 606 c 256,20,21
 210 606 210 606 185 542.5 c 128,-1,22
 160 479 160 479 160 358 c 256,23,24
 160 237 160 237 184.5 174.5 c 128,-1,25
 209 112 209 112 265 112 c 0,14,15
EndSplineSet
Validated: 1
Substitution2: "'c2sc' Capitals to Small Capitals lookup 34 subtable" o.sc
Substitution2: "Single Substitution lookup 32 subtable" ordmasculine
AlternateSubs2: "'aalt' Access All Alternates lookup 1 subtable" ordmasculine o.sc
EndChar

StartChar: P
Encoding: 80 80 51
Width: 530
GlyphClass: 2
Flags: W
AnchorPoint: "Anchor-2" 530 714 basechar 0
AnchorPoint: "Anchor-1" 265 714 basechar 0
AnchorPoint: "Anchor-0" 265 0 basechar 0
LayerCount: 2
Fore
SplineSet
63 0 m 1,0,-1
 63 714 l 1,1,-1
 272 714 l 2,2,3
 384 714 384 714 439.5 657 c 128,-1,4
 495 600 495 600 495 493 c 0,5,6
 495 385 495 385 439 320 c 128,-1,7
 383 255 383 255 265 255 c 2,8,-1
 194 255 l 1,9,-1
 194 0 l 1,10,-1
 63 0 l 1,0,-1
248 375 m 2,11,12
 301 375 301 375 331 401.5 c 128,-1,13
 361 428 361 428 361 490 c 0,14,15
 361 544 361 544 335 569.5 c 128,-1,16
 309 595 309 595 261 595 c 2,17,-1
 194 595 l 1,18,-1
 194 375 l 1,19,-1
 248 375 l 2,11,12
EndSplineSet
Validated: 1048577
Substitution2: "'c2sc' Capitals to Small Capitals lookup 34 subtable" p.sc
Substitution2: "'aalt' Access All Alternates lookup 0 subtable" p.sc
EndChar

StartChar: Q
Encoding: 81 81 52
Width: 530
GlyphClass: 2
Flags: W
AnchorPoint: "Anchor-3" 265 357 basechar 0
AnchorPoint: "Anchor-2" 530 714 basechar 0
AnchorPoint: "Anchor-1" 265 714 basechar 0
AnchorPoint: "Anchor-0" 265 -220 basechar 0
LayerCount: 2
Fore
SplineSet
265 -9 m 0,0,1
 182 -9 182 -9 128.5 36 c 128,-1,2
 75 81 75 81 49 163.5 c 128,-1,3
 23 246 23 246 23 359 c 0,4,5
 23 537 23 537 83.5 631.5 c 128,-1,6
 144 726 144 726 265 726 c 0,7,8
 389 726 389 726 448 627.5 c 128,-1,9
 507 529 507 529 507 358 c 0,10,11
 507 248 507 248 482 166.5 c 128,-1,12
 457 85 457 85 406 41 c 1,13,-1
 501 -180 l 1,14,-1
 354 -180 l 1,15,-1
 291 -7 l 1,16,17
 278 -9 278 -9 265 -9 c 0,0,1
265 112 m 0,18,19
 320 112 320 112 345 173.5 c 128,-1,20
 370 235 370 235 370 358 c 0,21,22
 370 483 370 483 345 544.5 c 128,-1,23
 320 606 320 606 265 606 c 256,24,25
 210 606 210 606 185 542.5 c 128,-1,26
 160 479 160 479 160 358 c 256,27,28
 160 237 160 237 184.5 174.5 c 128,-1,29
 209 112 209 112 265 112 c 0,18,19
EndSplineSet
Validated: 1
Substitution2: "'c2sc' Capitals to Small Capitals lookup 34 subtable" q.sc
Substitution2: "'aalt' Access All Alternates lookup 0 subtable" q.sc
EndChar

StartChar: R
Encoding: 82 82 53
Width: 530
GlyphClass: 2
Flags: W
AnchorPoint: "Anchor-2" 510 714 basechar 0
AnchorPoint: "Anchor-1" 265 714 basechar 0
AnchorPoint: "Anchor-0" 282 0 basechar 0
LayerCount: 2
Fore
SplineSet
63 0 m 1,0,-1
 63 714 l 1,1,-1
 247 714 l 2,2,3
 366 714 366 714 427 661 c 128,-1,4
 488 608 488 608 488 506 c 0,5,6
 488 366 488 366 374 306 c 1,7,-1
 519 0 l 1,8,-1
 374 0 l 1,9,-1
 257 273 l 1,10,-1
 196 273 l 1,11,-1
 196 0 l 1,12,-1
 63 0 l 1,0,-1
244 392 m 2,13,14
 351 392 351 392 351 495 c 0,15,16
 351 596 351 596 244 596 c 2,17,-1
 196 596 l 1,18,-1
 196 392 l 1,19,-1
 244 392 l 2,13,14
EndSplineSet
Validated: 1048577
Substitution2: "'c2sc' Capitals to Small Capitals lookup 34 subtable" r.sc
Substitution2: "'aalt' Access All Alternates lookup 0 subtable" r.sc
EndChar

StartChar: S
Encoding: 83 83 54
Width: 530
GlyphClass: 2
Flags: W
AnchorPoint: "Anchor-2" 510 714 basechar 0
AnchorPoint: "Anchor-1" 276 714 basechar 0
AnchorPoint: "Anchor-0" 265 0 basechar 0
LayerCount: 2
Fore
SplineSet
237 -10 m 0,0,1
 189 -10 189 -10 143.5 0 c 128,-1,2
 98 10 98 10 55 32 c 1,3,-1
 55 165 l 1,4,5
 103 140 103 140 147 125.5 c 128,-1,6
 191 111 191 111 238 111 c 0,7,8
 344 111 344 111 344 192 c 0,9,10
 344 222 344 222 329.5 241.5 c 128,-1,11
 315 261 315 261 286.5 278 c 128,-1,12
 258 295 258 295 216 317 c 0,13,14
 176 339 176 339 139.5 364.5 c 128,-1,15
 103 390 103 390 80 428 c 128,-1,16
 57 466 57 466 57 526 c 0,17,18
 57 617 57 617 117.5 670.5 c 128,-1,19
 178 724 178 724 288 724 c 0,20,21
 331 724 331 724 377 714.5 c 128,-1,22
 423 705 423 705 471 681 c 1,23,-1
 427 566 l 1,24,25
 385 587 385 587 352 595 c 128,-1,26
 319 603 319 603 290 603 c 0,27,28
 194 603 194 603 194 528 c 0,29,30
 194 499 194 499 208.5 480.5 c 128,-1,31
 223 462 223 462 251.5 446 c 128,-1,32
 280 430 280 430 323 407 c 0,33,34
 374 380 374 380 409.5 353.5 c 128,-1,35
 445 327 445 327 463.5 291.5 c 128,-1,36
 482 256 482 256 482 203 c 0,37,38
 482 104 482 104 417 47 c 128,-1,39
 352 -10 352 -10 237 -10 c 0,0,1
EndSplineSet
Validated: 1048577
Substitution2: "'c2sc' Capitals to Small Capitals lookup 34 subtable" s.sc
Substitution2: "'aalt' Access All Alternates lookup 0 subtable" s.sc
EndChar

StartChar: T
Encoding: 84 84 55
Width: 530
GlyphClass: 2
Flags: W
AnchorPoint: "Anchor-3" 265 357 basechar 0
AnchorPoint: "Anchor-2" 510 714 basechar 0
AnchorPoint: "Anchor-1" 265 714 basechar 0
AnchorPoint: "Anchor-0" 265 0 basechar 0
LayerCount: 2
Fore
SplineSet
198 0 m 1,0,-1
 198 593 l 1,1,-1
 27 593 l 1,2,-1
 27 714 l 1,3,-1
 504 714 l 1,4,-1
 504 593 l 1,5,-1
 331 593 l 1,6,-1
 331 0 l 1,7,-1
 198 0 l 1,0,-1
EndSplineSet
Validated: 1
Substitution2: "'c2sc' Capitals to Small Capitals lookup 34 subtable" t.sc
Substitution2: "'aalt' Access All Alternates lookup 0 subtable" t.sc
EndChar

StartChar: U
Encoding: 85 85 56
Width: 530
GlyphClass: 2
Flags: W
AnchorPoint: "Anchor-2" 510 714 basechar 0
AnchorPoint: "Anchor-1" 265 714 basechar 0
AnchorPoint: "Anchor-0" 265 0 basechar 0
LayerCount: 2
Fore
SplineSet
262 -10 m 0,0,1
 153 -10 153 -10 95.5 50 c 128,-1,2
 38 110 38 110 38 221 c 2,3,-1
 38 714 l 1,4,-1
 171 714 l 1,5,-1
 171 243 l 2,6,7
 171 171 171 171 194 140.5 c 128,-1,8
 217 110 217 110 264 110 c 0,9,10
 314 110 314 110 336.5 141 c 128,-1,11
 359 172 359 172 359 244 c 2,12,-1
 359 714 l 1,13,-1
 492 714 l 1,14,-1
 492 216 l 2,15,16
 492 111 492 111 434 50.5 c 128,-1,17
 376 -10 376 -10 262 -10 c 0,0,1
EndSplineSet
Validated: 1048577
Substitution2: "'c2sc' Capitals to Small Capitals lookup 34 subtable" u.sc
Substitution2: "'aalt' Access All Alternates lookup 0 subtable" u.sc
EndChar

StartChar: V
Encoding: 86 86 57
Width: 530
GlyphClass: 2
Flags: W
AnchorPoint: "Anchor-2" 510 714 basechar 0
AnchorPoint: "Anchor-1" 265 714 basechar 0
AnchorPoint: "Anchor-0" 265 0 basechar 0
LayerCount: 2
Fore
SplineSet
190 0 m 1,0,-1
 10 714 l 1,1,-1
 150 714 l 1,2,-1
 238 293 l 2,3,4
 243 272 243 272 248 242 c 128,-1,5
 253 212 253 212 258 182 c 128,-1,6
 263 152 263 152 266 131 c 1,7,-1
 269 131 l 1,8,9
 272 152 272 152 276.5 182 c 128,-1,10
 281 212 281 212 286.5 241.5 c 128,-1,11
 292 271 292 271 296 293 c 2,12,-1
 380 714 l 1,13,-1
 520 714 l 1,14,-1
 340 0 l 1,15,-1
 190 0 l 1,0,-1
EndSplineSet
Validated: 1048577
Substitution2: "'c2sc' Capitals to Small Capitals lookup 34 subtable" v.sc
Substitution2: "'aalt' Access All Alternates lookup 0 subtable" v.sc
EndChar

StartChar: W
Encoding: 87 87 58
Width: 530
GlyphClass: 2
Flags: W
AnchorPoint: "Anchor-2" 510 714 basechar 0
AnchorPoint: "Anchor-1" 265 714 basechar 0
AnchorPoint: "Anchor-0" 265 0 basechar 0
LayerCount: 2
Fore
SplineSet
46 0 m 1,0,-1
 10 714 l 1,1,-1
 128 714 l 1,2,3
 137 565 137 565 140 460.5 c 128,-1,4
 143 356 143 356 143 318 c 0,5,6
 143 262 143 262 143 212 c 128,-1,7
 143 162 143 162 142 120 c 1,8,-1
 149 120 l 1,9,10
 152 153 152 153 156.5 191.5 c 128,-1,11
 161 230 161 230 165.5 264.5 c 128,-1,12
 170 299 170 299 173 319 c 2,13,-1
 205 545 l 1,14,-1
 327 545 l 1,15,-1
 356 319 l 2,16,17
 362 277 362 277 369 222 c 128,-1,18
 376 167 376 167 381 120 c 1,19,-1
 388 120 l 1,20,21
 387 155 387 155 386.5 193.5 c 128,-1,22
 386 232 386 232 385.5 267.5 c 128,-1,23
 385 303 385 303 385 328 c 0,24,25
 385 380 385 380 386.5 436 c 128,-1,26
 388 492 388 492 391 559.5 c 128,-1,27
 394 627 394 627 398 714 c 1,28,-1
 520 714 l 1,29,-1
 484 0 l 1,30,-1
 309 0 l 1,31,-1
 280 245 l 2,32,33
 276 279 276 279 273.5 321.5 c 128,-1,34
 271 364 271 364 268 403 c 1,35,-1
 262 403 l 1,36,37
 260 365 260 365 256 322 c 128,-1,38
 252 279 252 279 248 245 c 2,39,-1
 219 0 l 1,40,-1
 46 0 l 1,0,-1
EndSplineSet
Validated: 1048577
Substitution2: "'c2sc' Capitals to Small Capitals lookup 34 subtable" w.sc
Substitution2: "'aalt' Access All Alternates lookup 0 subtable" w.sc
EndChar

StartChar: X
Encoding: 88 88 59
Width: 530
GlyphClass: 2
Flags: W
AnchorPoint: "Anchor-2" 510 714 basechar 0
AnchorPoint: "Anchor-1" 265 714 basechar 0
AnchorPoint: "Anchor-0" 265 0 basechar 0
LayerCount: 2
Fore
SplineSet
13 0 m 1,0,-1
 185 367 l 1,1,-1
 25 714 l 1,2,-1
 169 714 l 1,3,-1
 265 471 l 1,4,-1
 357 714 l 1,5,-1
 502 714 l 1,6,-1
 342 366 l 1,7,-1
 517 0 l 1,8,-1
 372 0 l 1,9,-1
 263 262 l 1,10,-1
 156 0 l 1,11,-1
 13 0 l 1,0,-1
EndSplineSet
Validated: 1048577
Substitution2: "'c2sc' Capitals to Small Capitals lookup 34 subtable" x.sc
Substitution2: "'aalt' Access All Alternates lookup 0 subtable" x.sc
EndChar

StartChar: Y
Encoding: 89 89 60
Width: 530
GlyphClass: 2
Flags: W
AnchorPoint: "Anchor-2" 510 714 basechar 0
AnchorPoint: "Anchor-1" 265 714 basechar 0
AnchorPoint: "Anchor-0" 265 0 basechar 0
LayerCount: 2
Fore
SplineSet
199 0 m 1,0,-1
 199 277 l 1,1,-1
 13 714 l 1,2,-1
 161 714 l 1,3,-1
 267 412 l 1,4,-1
 368 714 l 1,5,-1
 517 714 l 1,6,-1
 332 277 l 1,7,-1
 332 0 l 1,8,-1
 199 0 l 1,0,-1
EndSplineSet
Validated: 1048577
Substitution2: "'c2sc' Capitals to Small Capitals lookup 34 subtable" y.sc
Substitution2: "'aalt' Access All Alternates lookup 0 subtable" y.sc
EndChar

StartChar: Z
Encoding: 90 90 61
Width: 530
GlyphClass: 2
Flags: W
AnchorPoint: "Anchor-2" 510 714 basechar 0
AnchorPoint: "Anchor-1" 274 714 basechar 0
AnchorPoint: "Anchor-0" 282 0 basechar 0
LayerCount: 2
Fore
SplineSet
63 0 m 1,0,-1
 63 97 l 1,1,-1
 320 594 l 1,2,-1
 76 594 l 1,3,-1
 76 714 l 1,4,-1
 469 714 l 1,5,-1
 469 617 l 1,6,-1
 212 121 l 1,7,-1
 478 121 l 1,8,-1
 478 0 l 1,9,-1
 63 0 l 1,0,-1
EndSplineSet
Validated: 1048577
Substitution2: "'c2sc' Capitals to Small Capitals lookup 34 subtable" z.sc
Substitution2: "'aalt' Access All Alternates lookup 0 subtable" z.sc
EndChar

StartChar: bracketleft
Encoding: 91 91 62
Width: 530
Flags: W
LayerCount: 2
Fore
SplineSet
192 -163 m 1,0,-1
 192 725 l 1,1,-1
 423 725 l 1,2,-1
 423 627 l 1,3,-1
 310 627 l 1,4,-1
 310 -65 l 1,5,-1
 423 -65 l 1,6,-1
 423 -163 l 1,7,-1
 192 -163 l 1,0,-1
EndSplineSet
Validated: 1
Substitution2: "'smcp' Lowercase to Small Capitals lookup 35 subtable" bracketleft.sc
Substitution2: "'c2sc' Capitals to Small Capitals lookup 34 subtable" bracketleft.sc
Substitution2: "'aalt' Access All Alternates lookup 0 subtable" bracketleft.sc
EndChar

StartChar: asciicircum
Encoding: 94 94 65
Width: 530
Flags: W
LayerCount: 2
Fore
SplineSet
21 280 m 1,0,-1
 229 715 l 1,1,-1
 296 715 l 1,2,-1
 508 280 l 1,3,-1
 393 280 l 1,4,-1
 263 552 l 1,5,-1
 136 280 l 1,6,-1
 21 280 l 1,0,-1
EndSplineSet
Validated: 1
EndChar

StartChar: underscore
Encoding: 95 95 66
Width: 530
Flags: W
LayerCount: 2
Fore
SplineSet
0 -190 m 1,0,-1
 0 -70 l 1,1,-1
 530 -70 l 1,2,-1
 530 -190 l 1,3,-1
 0 -190 l 1,0,-1
EndSplineSet
Validated: 1
EndChar

StartChar: grave
Encoding: 96 96 67
Width: 530
Flags: W
LayerCount: 2
Fore
SplineSet
264 606 m 1,0,1
 250 618 250 618 229.5 637.5 c 128,-1,2
 209 657 209 657 187.5 679.5 c 128,-1,3
 166 702 166 702 148 722.5 c 128,-1,4
 130 743 130 743 119 757 c 1,5,-1
 119 766 l 1,6,-1
 265 766 l 1,7,8
 275 745 275 745 291 716.5 c 128,-1,9
 307 688 307 688 324 661.5 c 128,-1,10
 341 635 341 635 353 619 c 1,11,-1
 353 606 l 1,12,-1
 264 606 l 1,0,1
EndSplineSet
Validated: 1
EndChar

StartChar: a
Encoding: 97 97 68
Width: 530
GlyphClass: 2
Flags: W
AnchorPoint: "Anchor-2" 510 546 basechar 0
AnchorPoint: "Anchor-1" 278 546 basechar 0
AnchorPoint: "Anchor-0" 271 0 basechar 0
LayerCount: 2
Fore
SplineSet
203 -10 m 0,0,1
 131 -10 131 -10 90.5 35 c 128,-1,2
 50 80 50 80 50 158 c 0,3,4
 50 330 50 330 250 336 c 2,5,-1
 347 339 l 1,6,-1
 347 360 l 2,7,8
 347 440 347 440 252 440 c 0,9,10
 225 440 225 440 194 433 c 128,-1,11
 163 426 163 426 123 407 c 1,12,-1
 76 507 l 1,13,14
 123 533 123 533 167 544.5 c 128,-1,15
 211 556 211 556 262 556 c 0,16,17
 476 556 476 556 476 365 c 2,18,-1
 476 0 l 1,19,-1
 380 0 l 1,20,-1
 353 72 l 1,21,-1
 350 72 l 1,22,23
 316 26 316 26 281 8 c 128,-1,24
 246 -10 246 -10 203 -10 c 0,0,1
252 107 m 0,25,26
 291 107 291 107 319 133.5 c 128,-1,27
 347 160 347 160 347 209 c 2,28,-1
 347 254 l 1,29,-1
 287 252 l 2,30,31
 185 249 185 249 185 170 c 0,32,33
 185 137 185 137 204 122 c 128,-1,34
 223 107 223 107 252 107 c 0,25,26
EndSplineSet
Validated: 1048577
Substitution2: "'smcp' Lowercase to Small Capitals lookup 35 subtable" a.sc
Substitution2: "Single Substitution lookup 32 subtable" ordfeminine
AlternateSubs2: "'aalt' Access All Alternates lookup 1 subtable" ordfeminine a.sc
EndChar

StartChar: b
Encoding: 98 98 69
Width: 530
GlyphClass: 2
Flags: W
AnchorPoint: "Anchor-2" 510 761 basechar 0
AnchorPoint: "Anchor-1" 265 761 basechar 0
AnchorPoint: "Anchor-0" 265 0 basechar 0
LayerCount: 2
Fore
SplineSet
323 -10 m 0,0,1
 234 -10 234 -10 180 61 c 1,2,-1
 170 61 l 1,3,-1
 148 0 l 1,4,-1
 48 0 l 1,5,-1
 48 761 l 1,6,-1
 180 761 l 1,7,-1
 180 582 l 2,8,9
 180 545 180 545 174 475 c 1,10,-1
 180 475 l 1,11,12
 203 514 203 514 241 535 c 128,-1,13
 279 556 279 556 326 556 c 0,14,15
 386 556 386 556 423.5 519 c 128,-1,16
 461 482 461 482 479 418 c 128,-1,17
 497 354 497 354 497 275 c 0,18,19
 497 193 497 193 478.5 128.5 c 128,-1,20
 460 64 460 64 421 27 c 128,-1,21
 382 -10 382 -10 323 -10 c 0,0,1
269 108 m 0,22,23
 313 108 313 108 335.5 151 c 128,-1,24
 358 194 358 194 358 275 c 0,25,26
 358 439 358 439 269 439 c 0,27,28
 227 439 227 439 203.5 399 c 128,-1,29
 180 359 180 359 180 274 c 0,30,31
 180 188 180 188 203.5 148 c 128,-1,32
 227 108 227 108 269 108 c 0,22,23
EndSplineSet
Validated: 1048577
Substitution2: "'smcp' Lowercase to Small Capitals lookup 35 subtable" b.sc
Substitution2: "'aalt' Access All Alternates lookup 0 subtable" b.sc
EndChar

StartChar: c
Encoding: 99 99 70
Width: 530
GlyphClass: 2
Flags: W
AnchorPoint: "Anchor-2" 510 546 basechar 0
AnchorPoint: "Anchor-1" 296 546 basechar 0
AnchorPoint: "Anchor-0" 305 0 basechar 0
LayerCount: 2
Fore
SplineSet
305 -10 m 0,0,1
 60 -10 60 -10 60 267 c 0,2,3
 60 412 60 412 125 484 c 128,-1,4
 190 556 190 556 312 556 c 0,5,6
 353 556 353 556 394.5 547.5 c 128,-1,7
 436 539 436 539 475 520 c 1,8,-1
 433 411 l 1,9,10
 400 427 400 427 375.5 432.5 c 128,-1,11
 351 438 351 438 325 438 c 0,12,13
 196 438 196 438 196 274 c 0,14,15
 196 187 196 187 231.5 148 c 128,-1,16
 267 109 267 109 325 109 c 0,17,18
 352 109 352 109 385.5 118 c 128,-1,19
 419 127 419 127 458 150 c 1,20,-1
 458 26 l 1,21,22
 417 4 417 4 378 -3 c 128,-1,23
 339 -10 339 -10 305 -10 c 0,0,1
EndSplineSet
Validated: 1048577
Substitution2: "'smcp' Lowercase to Small Capitals lookup 35 subtable" c.sc
Substitution2: "'aalt' Access All Alternates lookup 0 subtable" c.sc
EndChar

StartChar: d
Encoding: 100 100 71
Width: 530
GlyphClass: 2
Flags: W
AnchorPoint: "Anchor-3" 265 273 basechar 0
AnchorPoint: "Anchor-2" 510 761 basechar 0
AnchorPoint: "Anchor-1" 265 761 basechar 0
AnchorPoint: "Anchor-0" 265 0 basechar 0
LayerCount: 2
Fore
SplineSet
205 -10 m 0,0,1
 144 -10 144 -10 106 27 c 128,-1,2
 68 64 68 64 50.5 127.5 c 128,-1,3
 33 191 33 191 33 271 c 0,4,5
 33 355 33 355 52 419 c 128,-1,6
 71 483 71 483 110.5 519.5 c 128,-1,7
 150 556 150 556 213 556 c 0,8,9
 307 556 307 556 357 476 c 1,10,-1
 361 476 l 1,11,12
 355 502 355 502 352.5 530 c 128,-1,13
 350 558 350 558 350 583 c 2,14,-1
 350 761 l 1,15,-1
 482 761 l 1,16,-1
 482 0 l 1,17,-1
 385 0 l 1,18,-1
 355 71 l 1,19,-1
 349 71 l 1,20,21
 294 -10 294 -10 205 -10 c 0,0,1
268 108 m 0,22,23
 318 108 318 108 340 146 c 128,-1,24
 362 184 362 184 362 254 c 2,25,-1
 362 270 l 2,26,27
 362 320 362 320 354 358 c 128,-1,28
 346 396 346 396 326 417.5 c 128,-1,29
 306 439 306 439 269 439 c 0,30,31
 218 439 218 439 195 396 c 128,-1,32
 172 353 172 353 172 271 c 0,33,34
 172 185 172 185 196 146.5 c 128,-1,35
 220 108 220 108 268 108 c 0,22,23
EndSplineSet
Validated: 1
Substitution2: "'smcp' Lowercase to Small Capitals lookup 35 subtable" d.sc
Substitution2: "'aalt' Access All Alternates lookup 0 subtable" d.sc
EndChar

StartChar: e
Encoding: 101 101 72
Width: 530
GlyphClass: 2
Flags: W
AnchorPoint: "Anchor-2" 510 546 basechar 0
AnchorPoint: "Anchor-1" 274 546 basechar 0
AnchorPoint: "Anchor-0" 275 0 basechar 0
LayerCount: 2
Fore
SplineSet
299 -10 m 0,0,1
 173 -10 173 -10 106.5 63.5 c 128,-1,2
 40 137 40 137 40 275 c 0,3,4
 40 407 40 407 101 481.5 c 128,-1,5
 162 556 162 556 274 556 c 0,6,7
 375 556 375 556 433 493.5 c 128,-1,8
 491 431 491 431 491 309 c 2,9,-1
 491 234 l 1,10,-1
 178 234 l 1,11,12
 181 172 181 172 218.5 140 c 128,-1,13
 256 108 256 108 319 108 c 0,14,15
 365 108 365 108 402 119 c 128,-1,16
 439 130 439 130 467 145 c 1,17,-1
 467 28 l 1,18,19
 439 13 439 13 397 1.5 c 128,-1,20
 355 -10 355 -10 299 -10 c 0,0,1
359 331 m 1,21,22
 358 388 358 388 334 416 c 128,-1,23
 310 444 310 444 273 444 c 0,24,25
 234 444 234 444 208 416.5 c 128,-1,26
 182 389 182 389 179 331 c 1,27,-1
 359 331 l 1,21,22
EndSplineSet
Validated: 1048577
Substitution2: "'smcp' Lowercase to Small Capitals lookup 35 subtable" e.sc
Substitution2: "'aalt' Access All Alternates lookup 0 subtable" e.sc
EndChar

StartChar: f
Encoding: 102 102 73
Width: 530
GlyphClass: 2
Flags: W
AnchorPoint: "Anchor-2" 516 765 basechar 0
AnchorPoint: "Anchor-1" 337 764 basechar 0
AnchorPoint: "Anchor-0" 265 0 basechar 0
LayerCount: 2
Fore
SplineSet
179 0 m 1,0,-1
 179 430 l 1,1,-1
 48 430 l 1,2,-1
 48 511 l 1,3,-1
 179 546 l 1,4,-1
 179 582 l 2,5,6
 179 677 179 677 220.5 721 c 128,-1,7
 262 765 262 765 358 765 c 0,8,9
 397 765 397 765 432 759 c 128,-1,10
 467 753 467 753 503 742 c 1,11,-1
 465 630 l 1,12,13
 442 638 442 638 420.5 641.5 c 128,-1,14
 399 645 399 645 384 645 c 0,15,16
 345 645 345 645 329 626 c 128,-1,17
 313 607 313 607 313 571 c 2,18,-1
 313 546 l 1,19,-1
 468 546 l 1,20,-1
 468 430 l 1,21,-1
 313 430 l 1,22,-1
 313 0 l 1,23,-1
 179 0 l 1,0,-1
EndSplineSet
Validated: 1048577
Substitution2: "'smcp' Lowercase to Small Capitals lookup 35 subtable" f.sc
Substitution2: "'aalt' Access All Alternates lookup 0 subtable" f.sc
EndChar

StartChar: g
Encoding: 103 103 74
Width: 530
GlyphClass: 2
Flags: W
AnchorPoint: "Anchor-2" 510 546 basechar 0
AnchorPoint: "Anchor-1" 265 546 basechar 0
AnchorPoint: "Anchor-0" 265 -245 basechar 0
LayerCount: 2
Fore
SplineSet
230 -245 m 0,0,1
 190 -245 190 -245 148.5 -238 c 128,-1,2
 107 -231 107 -231 63 -213 c 1,3,-1
 63 -84 l 1,4,5
 110 -105 110 -105 151 -115.5 c 128,-1,6
 192 -126 192 -126 230 -126 c 0,7,8
 344 -126 344 -126 344 -8 c 2,9,-1
 344 5 l 2,10,11
 344 20 344 20 344.5 38 c 128,-1,12
 345 56 345 56 346 69 c 1,13,-1
 342 69 l 1,14,15
 318 28 318 28 286.5 9 c 128,-1,16
 255 -10 255 -10 214 -10 c 0,17,18
 128 -10 128 -10 80.5 64.5 c 128,-1,19
 33 139 33 139 33 272 c 0,20,21
 33 407 33 407 82 481.5 c 128,-1,22
 131 556 131 556 214 556 c 0,23,24
 298 556 298 556 346 475 c 1,25,-1
 350 475 l 1,26,-1
 366 546 l 1,27,-1
 482 546 l 1,28,-1
 482 -1 l 2,29,30
 482 -119 482 -119 422 -182 c 128,-1,31
 362 -245 362 -245 230 -245 c 0,0,1
264 108 m 0,32,33
 304 108 304 108 327.5 142.5 c 128,-1,34
 351 177 351 177 351 252 c 2,35,-1
 351 270 l 2,36,37
 351 359 351 359 330 399 c 128,-1,38
 309 439 309 439 264 439 c 0,39,40
 172 439 172 439 172 273 c 0,41,42
 172 192 172 192 195 150 c 128,-1,43
 218 108 218 108 264 108 c 0,32,33
EndSplineSet
Validated: 1048577
Substitution2: "'smcp' Lowercase to Small Capitals lookup 35 subtable" g.sc
Substitution2: "'aalt' Access All Alternates lookup 0 subtable" g.sc
EndChar

StartChar: h
Encoding: 104 104 75
Width: 530
GlyphClass: 2
Flags: W
AnchorPoint: "Anchor-3" 265 273 basechar 0
AnchorPoint: "Anchor-2" 510 760 basechar 0
AnchorPoint: "Anchor-1" 117 760 basechar 0
AnchorPoint: "Anchor-0" 265 0 basechar 0
LayerCount: 2
Fore
SplineSet
48 0 m 1,0,-1
 48 760 l 1,1,-1
 181 760 l 1,2,-1
 181 597 l 2,3,4
 181 567 181 567 179.5 536.5 c 128,-1,5
 178 506 178 506 175 475 c 1,6,-1
 183 475 l 1,7,8
 225 556 225 556 326 556 c 0,9,10
 406 556 406 556 446.5 505 c 128,-1,11
 487 454 487 454 487 355 c 2,12,-1
 487 0 l 1,13,-1
 354 0 l 1,14,-1
 354 322 l 2,15,16
 354 381 354 381 337 410 c 128,-1,17
 320 439 320 439 277 439 c 0,18,19
 222 439 222 439 201.5 393.5 c 128,-1,20
 181 348 181 348 181 258 c 2,21,-1
 181 0 l 1,22,-1
 48 0 l 1,0,-1
EndSplineSet
Validated: 1
Substitution2: "'smcp' Lowercase to Small Capitals lookup 35 subtable" h.sc
Substitution2: "'subs' Subscript lookup 22 subtable" uni2095
AlternateSubs2: "'aalt' Access All Alternates lookup 1 subtable" h.sc uni2095
EndChar

StartChar: i
Encoding: 105 105 76
Width: 530
GlyphClass: 2
Flags: W
AnchorPoint: "Anchor-3" 272 292 basechar 0
AnchorPoint: "Anchor-2" 452 773 basechar 0
AnchorPoint: "Anchor-1" 277 773 basechar 0
AnchorPoint: "Anchor-0" 277 0 basechar 0
LayerCount: 2
Fore
SplineSet
274 614 m 0,0,1
 236 614 236 614 214 634 c 128,-1,2
 192 654 192 654 192 693 c 0,3,4
 192 773 192 773 274 773 c 0,5,6
 355 773 355 773 355 694 c 0,7,8
 355 656 355 656 335.5 635 c 128,-1,9
 316 614 316 614 274 614 c 0,0,1
57 0 m 1,10,-1
 57 94 l 1,11,-1
 209 111 l 1,12,-1
 209 436 l 1,13,-1
 77 448 l 1,14,-1
 77 546 l 1,15,-1
 342 546 l 1,16,-1
 342 111 l 1,17,-1
 477 94 l 1,18,-1
 477 0 l 1,19,-1
 57 0 l 1,10,-1
EndSplineSet
Validated: 1
Substitution2: "'smcp' Lowercase to Small Capitals lookup 35 subtable" i.sc
Substitution2: "Single Substitution lookup 5 subtable" dotlessi
Substitution2: "Single Substitution lookup 4 subtable" dotlessi
AlternateSubs2: "'aalt' Access All Alternates lookup 1 subtable" dotlessi i.sc
EndChar

StartChar: j
Encoding: 106 106 77
Width: 530
GlyphClass: 2
Flags: W
AnchorPoint: "Anchor-2" 450 773 basechar 0
AnchorPoint: "Anchor-1" 303 773 basechar 0
AnchorPoint: "Anchor-0" 178 -245 basechar 0
LayerCount: 2
Fore
SplineSet
304 614 m 0,0,1
 266 614 266 614 244.5 634 c 128,-1,2
 223 654 223 654 223 693 c 0,3,4
 223 773 223 773 305 773 c 0,5,6
 386 773 386 773 386 694 c 0,7,8
 386 656 386 656 366.5 635 c 128,-1,9
 347 614 347 614 304 614 c 0,0,1
174 -245 m 0,10,11
 142 -245 142 -245 106.5 -239.5 c 128,-1,12
 71 -234 71 -234 37 -224 c 1,13,-1
 37 -108 l 1,14,15
 67 -117 67 -117 97.5 -121.5 c 128,-1,16
 128 -126 128 -126 149 -126 c 0,17,18
 200 -126 200 -126 225 -101 c 128,-1,19
 250 -76 250 -76 250 -15 c 2,20,-1
 250 436 l 1,21,-1
 98 448 l 1,22,-1
 98 546 l 1,23,-1
 383 546 l 1,24,-1
 383 -36 l 2,25,26
 383 -143 383 -143 333.5 -194 c 128,-1,27
 284 -245 284 -245 174 -245 c 0,10,11
EndSplineSet
Validated: 1048577
Substitution2: "'smcp' Lowercase to Small Capitals lookup 35 subtable" j.sc
Substitution2: "Single Substitution lookup 5 subtable" uni0237
Substitution2: "Single Substitution lookup 4 subtable" uni0237
AlternateSubs2: "'aalt' Access All Alternates lookup 1 subtable" uni0237 j.sc
EndChar

StartChar: k
Encoding: 107 107 78
Width: 530
GlyphClass: 2
Flags: W
AnchorPoint: "Anchor-2" 417 860 basechar 0
AnchorPoint: "Anchor-1" 298 760 basechar 0
AnchorPoint: "Anchor-0" 281 0 basechar 0
LayerCount: 2
Fore
SplineSet
50 0 m 1,0,-1
 50 760 l 1,1,-1
 184 760 l 1,2,-1
 184 421 l 2,3,4
 184 389 184 389 182 359.5 c 128,-1,5
 180 330 180 330 176 299 c 1,6,-1
 179 299 l 1,7,8
 192 318 192 318 206.5 338 c 128,-1,9
 221 358 221 358 238 382 c 2,10,-1
 354 546 l 1,11,-1
 510 546 l 1,12,-1
 348 325 l 1,13,-1
 519 0 l 1,14,-1
 368 0 l 1,15,-1
 252 229 l 1,16,-1
 184 162 l 1,17,-1
 184 0 l 1,18,-1
 50 0 l 1,0,-1
EndSplineSet
Validated: 1048577
Substitution2: "'smcp' Lowercase to Small Capitals lookup 35 subtable" k.sc
Substitution2: "'subs' Subscript lookup 22 subtable" uni2096
AlternateSubs2: "'aalt' Access All Alternates lookup 1 subtable" k.sc uni2096
EndChar

StartChar: l
Encoding: 108 108 79
Width: 530
GlyphClass: 2
Flags: W
AnchorPoint: "Anchor-3" 275 372 basechar 0
AnchorPoint: "Anchor-2" 448 760 basechar 0
AnchorPoint: "Anchor-1" 265 760 basechar 0
AnchorPoint: "Anchor-0" 275 0 basechar 0
LayerCount: 2
Fore
SplineSet
57 0 m 1,0,-1
 57 94 l 1,1,-1
 206 111 l 1,2,-1
 206 650 l 1,3,-1
 86 666 l 1,4,-1
 86 760 l 1,5,-1
 340 760 l 1,6,-1
 340 111 l 1,7,-1
 477 94 l 1,8,-1
 477 0 l 1,9,-1
 57 0 l 1,0,-1
EndSplineSet
Validated: 1
Substitution2: "'smcp' Lowercase to Small Capitals lookup 35 subtable" l.sc
Substitution2: "'subs' Subscript lookup 22 subtable" uni2097
AlternateSubs2: "'aalt' Access All Alternates lookup 1 subtable" l.sc uni2097
EndChar

StartChar: m
Encoding: 109 109 80
Width: 530
GlyphClass: 2
Flags: W
AnchorPoint: "Anchor-2" 510 546 basechar 0
AnchorPoint: "Anchor-1" 295 546 basechar 0
AnchorPoint: "Anchor-0" 273 0 basechar 0
LayerCount: 2
Fore
SplineSet
20 0 m 1,0,-1
 20 546 l 1,1,-1
 114 546 l 1,2,-1
 129 482 l 1,3,-1
 137 482 l 1,4,5
 150 520 150 520 171.5 538 c 128,-1,6
 193 556 193 556 230 556 c 0,7,8
 270 556 270 556 288.5 533.5 c 128,-1,9
 307 511 307 511 313 479 c 1,10,-1
 318 479 l 1,11,12
 331 512 331 512 353 534 c 128,-1,13
 375 556 375 556 417 556 c 0,14,15
 472 556 472 556 491 519 c 128,-1,16
 510 482 510 482 510 398 c 2,17,-1
 510 0 l 1,18,-1
 395 0 l 1,19,-1
 395 383 l 2,20,21
 395 415 395 415 389 430.5 c 128,-1,22
 383 446 383 446 364 446 c 0,23,24
 339 446 339 446 331 426 c 128,-1,25
 323 406 323 406 323 359 c 2,26,-1
 323 0 l 1,27,-1
 207 0 l 1,28,-1
 207 383 l 2,29,30
 207 417 207 417 201.5 431.5 c 128,-1,31
 196 446 196 446 177 446 c 0,32,33
 150 446 150 446 142.5 422.5 c 128,-1,34
 135 399 135 399 135 352 c 2,35,-1
 135 0 l 1,36,-1
 20 0 l 1,0,-1
EndSplineSet
Validated: 1048577
Substitution2: "'smcp' Lowercase to Small Capitals lookup 35 subtable" m.sc
Substitution2: "'subs' Subscript lookup 22 subtable" uni2098
AlternateSubs2: "'aalt' Access All Alternates lookup 1 subtable" m.sc uni2098
EndChar

StartChar: n
Encoding: 110 110 81
Width: 530
GlyphClass: 2
Flags: W
AnchorPoint: "Anchor-2" 510 546 basechar 0
AnchorPoint: "Anchor-1" 273 546 basechar 0
AnchorPoint: "Anchor-0" 270 0 basechar 0
LayerCount: 2
Fore
SplineSet
48 0 m 1,0,-1
 48 546 l 1,1,-1
 153 546 l 1,2,-1
 174 481 l 1,3,-1
 180 481 l 1,4,5
 201 516 201 516 235.5 536 c 128,-1,6
 270 556 270 556 324 556 c 0,7,8
 487 556 487 556 487 367 c 2,9,-1
 487 0 l 1,10,-1
 354 0 l 1,11,-1
 354 330 l 2,12,13
 354 388 354 388 335 415 c 128,-1,14
 316 442 316 442 276 442 c 0,15,16
 224 442 224 442 202.5 401 c 128,-1,17
 181 360 181 360 181 279 c 2,18,-1
 181 0 l 1,19,-1
 48 0 l 1,0,-1
EndSplineSet
Validated: 1048577
Substitution2: "'smcp' Lowercase to Small Capitals lookup 35 subtable" n.sc
Substitution2: "'sups' Superscript lookup 23 subtable" uni207F
Substitution2: "'subs' Subscript lookup 22 subtable" uni2099
AlternateSubs2: "'aalt' Access All Alternates lookup 1 subtable" uni207F n.sc uni2099
EndChar

StartChar: o
Encoding: 111 111 82
Width: 530
GlyphClass: 2
Flags: W
AnchorPoint: "Anchor-3" 265 273 basechar 0
AnchorPoint: "Anchor-2" 510 546 basechar 0
AnchorPoint: "Anchor-1" 265 546 basechar 0
AnchorPoint: "Anchor-0" 265 0 basechar 0
LayerCount: 2
Fore
SplineSet
269 -9 m 0,0,1
 189 -9 189 -9 137 28.5 c 128,-1,2
 85 66 85 66 59 130 c 128,-1,3
 33 194 33 194 33 275 c 0,4,5
 33 355 33 355 59 418.5 c 128,-1,6
 85 482 85 482 136.5 519.5 c 128,-1,7
 188 557 188 557 266 557 c 0,8,9
 372 557 372 557 434.5 483 c 128,-1,10
 497 409 497 409 497 270 c 0,11,12
 497 189 497 189 473 126 c 128,-1,13
 449 63 449 63 398.5 27 c 128,-1,14
 348 -9 348 -9 269 -9 c 0,0,1
268 108 m 0,15,16
 317 108 317 108 339 148 c 128,-1,17
 361 188 361 188 361 272 c 256,18,19
 361 356 361 356 339 398 c 128,-1,20
 317 440 317 440 267 440 c 0,21,22
 215 440 215 440 192.5 395.5 c 128,-1,23
 170 351 170 351 170 272 c 256,24,25
 170 193 170 193 192.5 150.5 c 128,-1,26
 215 108 215 108 268 108 c 0,15,16
EndSplineSet
Validated: 1
Substitution2: "'smcp' Lowercase to Small Capitals lookup 35 subtable" o.sc
Substitution2: "Single Substitution lookup 32 subtable" ordmasculine
AlternateSubs2: "'aalt' Access All Alternates lookup 1 subtable" ordmasculine o.sc
EndChar

StartChar: p
Encoding: 112 112 83
Width: 530
GlyphClass: 2
Flags: W
AnchorPoint: "Anchor-2" 510 546 basechar 0
AnchorPoint: "Anchor-1" 291 546 basechar 0
AnchorPoint: "Anchor-0" 291 -240 basechar 0
LayerCount: 2
Fore
SplineSet
48 -240 m 1,0,-1
 48 546 l 1,1,-1
 150 546 l 1,2,-1
 173 474 l 1,3,-1
 180 474 l 1,4,5
 231 556 231 556 324 556 c 0,6,7
 385 556 385 556 423.5 519 c 128,-1,8
 462 482 462 482 479.5 419.5 c 128,-1,9
 497 357 497 357 497 280 c 0,10,11
 497 144 497 144 449.5 67 c 128,-1,12
 402 -10 402 -10 319 -10 c 0,13,14
 279 -10 279 -10 243 9 c 128,-1,15
 207 28 207 28 180 60 c 1,16,-1
 173 60 l 1,17,18
 177 35 177 35 178.5 17.5 c 128,-1,19
 180 0 180 0 180 -18 c 2,20,-1
 180 -240 l 1,21,-1
 48 -240 l 1,0,-1
271 108 m 0,22,23
 317 108 317 108 337 150.5 c 128,-1,24
 357 193 357 193 357 278 c 0,25,26
 357 362 357 362 337 400.5 c 128,-1,27
 317 439 317 439 272 439 c 0,28,29
 180 439 180 439 180 291 c 2,30,-1
 180 274 l 2,31,32
 180 108 180 108 271 108 c 0,22,23
EndSplineSet
Validated: 1048577
Substitution2: "'smcp' Lowercase to Small Capitals lookup 35 subtable" p.sc
Substitution2: "'subs' Subscript lookup 22 subtable" uni209A
AlternateSubs2: "'aalt' Access All Alternates lookup 1 subtable" p.sc uni209A
EndChar

StartChar: q
Encoding: 113 113 84
Width: 530
GlyphClass: 2
Flags: W
AnchorPoint: "Anchor-2" 510 546 basechar 0
AnchorPoint: "Anchor-1" 245 546 basechar 0
AnchorPoint: "Anchor-0" 245 -240 basechar 0
LayerCount: 2
Fore
SplineSet
350 -10 m 2,0,1
 350 5 350 5 351 27 c 128,-1,2
 352 49 352 49 355 70 c 1,3,-1
 350 70 l 1,4,5
 329 33 329 33 290 11.5 c 128,-1,6
 251 -10 251 -10 205 -10 c 0,7,8
 144 -10 144 -10 106 27 c 128,-1,9
 68 64 68 64 50.5 128 c 128,-1,10
 33 192 33 192 33 272 c 0,11,12
 33 353 33 353 50.5 417 c 128,-1,13
 68 481 68 481 106.5 518.5 c 128,-1,14
 145 556 145 556 209 556 c 0,15,16
 253 556 253 556 291.5 536 c 128,-1,17
 330 516 330 516 357 475 c 1,18,-1
 360 475 l 1,19,-1
 374 546 l 1,20,-1
 482 546 l 1,21,-1
 482 -240 l 1,22,-1
 350 -240 l 1,23,-1
 350 -10 l 2,0,1
268 108 m 0,24,25
 321 108 321 108 340.5 148 c 128,-1,26
 360 188 360 188 360 254 c 2,27,-1
 360 276 l 2,28,29
 360 360 360 360 336.5 399.5 c 128,-1,30
 313 439 313 439 268 439 c 0,31,32
 173 439 173 439 173 268 c 0,33,34
 173 188 173 188 195.5 148 c 128,-1,35
 218 108 218 108 268 108 c 0,24,25
EndSplineSet
Validated: 1048577
Substitution2: "'smcp' Lowercase to Small Capitals lookup 35 subtable" q.sc
Substitution2: "'aalt' Access All Alternates lookup 0 subtable" q.sc
EndChar

StartChar: r
Encoding: 114 114 85
Width: 530
GlyphClass: 2
Flags: W
AnchorPoint: "Anchor-2" 510 546 basechar 0
AnchorPoint: "Anchor-1" 287 546 basechar 0
AnchorPoint: "Anchor-0" 219 0 basechar 0
LayerCount: 2
Fore
SplineSet
31 0 m 1,0,-1
 31 94 l 1,1,-1
 150 111 l 1,2,-1
 150 436 l 1,3,-1
 44 448 l 1,4,-1
 44 546 l 1,5,-1
 249 546 l 1,6,-1
 272 453 l 1,7,-1
 278 453 l 1,8,9
 299 498 299 498 331 527 c 128,-1,10
 363 556 363 556 422 556 c 0,11,12
 447 556 447 556 472 552 c 128,-1,13
 497 548 497 548 522 538 c 1,14,-1
 486 410 l 1,15,16
 471 417 471 417 452.5 421 c 128,-1,17
 434 425 434 425 414 425 c 0,18,19
 351 425 351 425 317 381.5 c 128,-1,20
 283 338 283 338 283 266 c 2,21,-1
 283 111 l 1,22,-1
 412 94 l 1,23,-1
 412 0 l 1,24,-1
 31 0 l 1,0,-1
EndSplineSet
Validated: 1048577
Substitution2: "'smcp' Lowercase to Small Capitals lookup 35 subtable" r.sc
Substitution2: "'aalt' Access All Alternates lookup 0 subtable" r.sc
EndChar

StartChar: s
Encoding: 115 115 86
Width: 530
GlyphClass: 2
Flags: W
AnchorPoint: "Anchor-2" 510 546 basechar 0
AnchorPoint: "Anchor-1" 271 546 basechar 0
AnchorPoint: "Anchor-0" 271 0 basechar 0
LayerCount: 2
Fore
SplineSet
236 -10 m 0,0,1
 192 -10 192 -10 150.5 -2.5 c 128,-1,2
 109 5 109 5 70 22 c 1,3,-1
 70 146 l 1,4,5
 107 128 107 128 155 116 c 128,-1,6
 203 104 203 104 246 104 c 0,7,8
 328 104 328 104 328 151 c 0,9,10
 328 171 328 171 313 183.5 c 128,-1,11
 298 196 298 196 270 208 c 128,-1,12
 242 220 242 220 202 239 c 256,13,14
 162 258 162 258 131.5 278 c 128,-1,15
 101 298 101 298 84 326 c 128,-1,16
 67 354 67 354 67 397 c 0,17,18
 67 477 67 477 123.5 516.5 c 128,-1,19
 180 556 180 556 273 556 c 0,20,21
 321 556 321 556 366 545.5 c 128,-1,22
 411 535 411 535 455 514 c 1,23,-1
 414 410 l 1,24,25
 343 443 343 443 273 443 c 0,26,27
 240 443 240 443 221.5 433 c 128,-1,28
 203 423 203 423 203 401 c 0,29,30
 203 385 203 385 214 374.5 c 128,-1,31
 225 364 225 364 251.5 352 c 128,-1,32
 278 340 278 340 323 321 c 0,33,34
 365 303 365 303 396.5 282.5 c 128,-1,35
 428 262 428 262 446 231.5 c 128,-1,36
 464 201 464 201 464 155 c 0,37,38
 464 75 464 75 406.5 32.5 c 128,-1,39
 349 -10 349 -10 236 -10 c 0,0,1
EndSplineSet
Validated: 1048577
Substitution2: "'smcp' Lowercase to Small Capitals lookup 35 subtable" s.sc
Substitution2: "'subs' Subscript lookup 22 subtable" uni209B
AlternateSubs2: "'aalt' Access All Alternates lookup 1 subtable" s.sc uni209B
EndChar

StartChar: t
Encoding: 116 116 87
Width: 530
GlyphClass: 2
Flags: W
AnchorPoint: "Anchor-3" 222 279 basechar 0
AnchorPoint: "Anchor-2" 418 860 basechar 0
AnchorPoint: "Anchor-1" 242 682 basechar 0
AnchorPoint: "Anchor-0" 325 0 basechar 0
LayerCount: 2
Fore
SplineSet
339 -10 m 0,0,1
 239 -10 239 -10 194.5 37.5 c 128,-1,2
 150 85 150 85 150 184 c 2,3,-1
 150 430 l 1,4,-1
 37 430 l 1,5,-1
 37 505 l 1,6,-1
 163 546 l 1,7,-1
 197 682 l 1,8,-1
 286 682 l 1,9,-1
 286 546 l 1,10,-1
 482 546 l 1,11,-1
 482 430 l 1,12,-1
 283 430 l 1,13,-1
 283 195 l 2,14,15
 283 145 283 145 305.5 127.5 c 128,-1,16
 328 110 328 110 370 110 c 0,17,18
 416 110 416 110 485 128 c 1,19,-1
 485 13 l 1,20,21
 413 -10 413 -10 339 -10 c 0,0,1
EndSplineSet
Validated: 1
Substitution2: "'smcp' Lowercase to Small Capitals lookup 35 subtable" t.sc
Substitution2: "'subs' Subscript lookup 22 subtable" uni209C
AlternateSubs2: "'aalt' Access All Alternates lookup 1 subtable" t.sc uni209C
EndChar

StartChar: u
Encoding: 117 117 88
Width: 530
GlyphClass: 2
Flags: W
AnchorPoint: "Anchor-2" 510 546 basechar 0
AnchorPoint: "Anchor-1" 265 546 basechar 0
AnchorPoint: "Anchor-0" 265 0 basechar 0
LayerCount: 2
Fore
SplineSet
202 -10 m 0,0,1
 120 -10 120 -10 81.5 41 c 128,-1,2
 43 92 43 92 43 190 c 2,3,-1
 43 546 l 1,4,-1
 176 546 l 1,5,-1
 176 226 l 2,6,7
 176 169 176 169 192.5 138.5 c 128,-1,8
 209 108 209 108 256 108 c 0,9,10
 313 108 313 108 331 155 c 128,-1,11
 349 202 349 202 349 290 c 2,12,-1
 349 546 l 1,13,-1
 482 546 l 1,14,-1
 482 0 l 1,15,-1
 377 0 l 1,16,-1
 356 70 l 1,17,-1
 348 70 l 1,18,19
 327 31 327 31 290.5 10.5 c 128,-1,20
 254 -10 254 -10 202 -10 c 0,0,1
EndSplineSet
Validated: 1048577
Substitution2: "'smcp' Lowercase to Small Capitals lookup 35 subtable" u.sc
Substitution2: "'aalt' Access All Alternates lookup 0 subtable" u.sc
EndChar

StartChar: v
Encoding: 118 118 89
Width: 530
GlyphClass: 2
Flags: W
AnchorPoint: "Anchor-2" 510 546 basechar 0
AnchorPoint: "Anchor-1" 265 546 basechar 0
AnchorPoint: "Anchor-0" 265 0 basechar 0
LayerCount: 2
Fore
SplineSet
183 0 m 1,0,-1
 13 546 l 1,1,-1
 156 546 l 1,2,-1
 237 236 l 2,3,4
 244 207 244 207 251.5 175.5 c 128,-1,5
 259 144 259 144 263 117 c 1,6,-1
 266 117 l 1,7,8
 270 143 270 143 277 172.5 c 128,-1,9
 284 202 284 202 293 235 c 2,10,-1
 375 546 l 1,11,-1
 517 546 l 1,12,-1
 340 0 l 1,13,-1
 183 0 l 1,0,-1
EndSplineSet
Validated: 1048577
Substitution2: "'smcp' Lowercase to Small Capitals lookup 35 subtable" v.sc
Substitution2: "'aalt' Access All Alternates lookup 0 subtable" v.sc
EndChar

StartChar: w
Encoding: 119 119 90
Width: 530
GlyphClass: 2
Flags: W
AnchorPoint: "Anchor-2" 510 546 basechar 0
AnchorPoint: "Anchor-1" 266 546 basechar 0
AnchorPoint: "Anchor-0" 266 0 basechar 0
LayerCount: 2
Fore
SplineSet
72 0 m 1,0,-1
 2 546 l 1,1,-1
 118 546 l 1,2,-1
 141 267 l 2,3,4
 144 233 144 233 145.5 203 c 128,-1,5
 147 173 147 173 149 139 c 1,6,-1
 154 139 l 1,7,8
 158 173 158 173 162.5 204 c 128,-1,9
 167 235 167 235 173 270 c 2,10,-1
 208 463 l 1,11,-1
 324 463 l 1,12,-1
 357 269 l 2,13,14
 362 238 362 238 367 204.5 c 128,-1,15
 372 171 372 171 377 139 c 1,16,-1
 381 139 l 1,17,18
 384 171 384 171 385.5 203 c 128,-1,19
 387 235 387 235 390 267 c 2,20,-1
 415 546 l 1,21,-1
 530 546 l 1,22,-1
 455 0 l 1,23,-1
 315 0 l 1,24,-1
 279 221 l 2,25,26
 274 247 274 247 271.5 267 c 128,-1,27
 269 287 269 287 266 312 c 1,28,-1
 261 312 l 1,29,30
 258 286 258 286 255.5 266 c 128,-1,31
 253 246 253 246 249 222 c 2,32,-1
 213 0 l 1,33,-1
 72 0 l 1,0,-1
EndSplineSet
Validated: 1048577
Substitution2: "'smcp' Lowercase to Small Capitals lookup 35 subtable" w.sc
Substitution2: "'aalt' Access All Alternates lookup 0 subtable" w.sc
EndChar

StartChar: x
Encoding: 120 120 91
Width: 530
GlyphClass: 2
Flags: W
AnchorPoint: "Anchor-2" 510 546 basechar 0
AnchorPoint: "Anchor-1" 265 546 basechar 0
AnchorPoint: "Anchor-0" 265 0 basechar 0
LayerCount: 2
Fore
SplineSet
13 0 m 1,0,-1
 177 278 l 1,1,-1
 21 546 l 1,2,-1
 176 546 l 1,3,-1
 265 365 l 1,4,-1
 358 546 l 1,5,-1
 512 546 l 1,6,-1
 354 278 l 1,7,-1
 517 0 l 1,8,-1
 362 0 l 1,9,-1
 265 188 l 1,10,-1
 169 0 l 1,11,-1
 13 0 l 1,0,-1
EndSplineSet
Validated: 1048577
Substitution2: "'smcp' Lowercase to Small Capitals lookup 35 subtable" x.sc
Substitution2: "'aalt' Access All Alternates lookup 0 subtable" x.sc
EndChar

StartChar: y
Encoding: 121 121 92
Width: 530
GlyphClass: 2
Flags: W
AnchorPoint: "Anchor-2" 510 546 basechar 0
AnchorPoint: "Anchor-1" 265 546 basechar 0
AnchorPoint: "Anchor-0" 265 -245 basechar 0
LayerCount: 2
Fore
SplineSet
115 -245 m 0,0,1
 96 -245 96 -245 78.5 -243 c 128,-1,2
 61 -241 61 -241 44 -237 c 1,3,-1
 44 -126 l 1,4,5
 56 -129 56 -129 68 -130.5 c 128,-1,6
 80 -132 80 -132 88 -132 c 0,7,8
 165 -132 165 -132 197 -38 c 2,9,-1
 209 -3 l 1,10,-1
 13 546 l 1,11,-1
 165 546 l 1,12,-1
 252 234 l 2,13,14
 258 213 258 213 263.5 188 c 128,-1,15
 269 163 269 163 273 134 c 1,16,-1
 276 134 l 1,17,18
 279 160 279 160 284 185.5 c 128,-1,19
 289 211 289 211 295 234 c 2,20,-1
 369 546 l 1,21,-1
 517 546 l 1,22,-1
 337 -30 l 2,23,24
 317 -93 317 -93 287 -141.5 c 128,-1,25
 257 -190 257 -190 215 -217.5 c 128,-1,26
 173 -245 173 -245 115 -245 c 0,0,1
EndSplineSet
Validated: 1048577
Substitution2: "'smcp' Lowercase to Small Capitals lookup 35 subtable" y.sc
Substitution2: "'aalt' Access All Alternates lookup 0 subtable" y.sc
EndChar

StartChar: z
Encoding: 122 122 93
Width: 530
GlyphClass: 2
Flags: W
AnchorPoint: "Anchor-2" 510 546 basechar 0
AnchorPoint: "Anchor-1" 268 546 basechar 0
AnchorPoint: "Anchor-0" 268 0 basechar 0
LayerCount: 2
Fore
SplineSet
58 0 m 1,0,-1
 58 87 l 1,1,-1
 304 432 l 1,2,-1
 67 432 l 1,3,-1
 67 546 l 1,4,-1
 461 546 l 1,5,-1
 461 449 l 1,6,-1
 224 114 l 1,7,-1
 472 114 l 1,8,-1
 472 0 l 1,9,-1
 58 0 l 1,0,-1
EndSplineSet
Validated: 1048577
Substitution2: "'smcp' Lowercase to Small Capitals lookup 35 subtable" z.sc
Substitution2: "'aalt' Access All Alternates lookup 0 subtable" z.sc
EndChar

StartChar: braceleft
Encoding: 123 123 94
Width: 530
Flags: W
LayerCount: 2
Fore
SplineSet
421 -163 m 1,0,1
 344 -163 344 -163 298.5 -148.5 c 128,-1,2
 253 -134 253 -134 233 -99 c 128,-1,3
 213 -64 213 -64 213 -4 c 2,4,-1
 213 138 l 2,5,6
 213 182 213 182 188.5 204.5 c 128,-1,7
 164 227 164 227 108 227 c 1,8,-1
 108 328 l 1,9,10
 162 328 162 328 187.5 349 c 128,-1,11
 213 370 213 370 213 418 c 2,12,-1
 213 561 l 2,13,14
 213 616 213 616 231.5 651 c 128,-1,15
 250 686 250 686 295.5 702.5 c 128,-1,16
 341 719 341 719 421 719 c 1,17,-1
 421 619 l 1,18,19
 378 618 378 618 355 604 c 128,-1,20
 332 590 332 590 332 547 c 2,21,-1
 332 403 l 2,22,23
 332 348 332 348 309.5 318.5 c 128,-1,24
 287 289 287 289 238 281 c 1,25,-1
 238 275 l 1,26,27
 289 266 289 266 310.5 236.5 c 128,-1,28
 332 207 332 207 332 156 c 2,29,-1
 332 10 l 2,30,31
 332 -29 332 -29 352.5 -45.5 c 128,-1,32
 373 -62 373 -62 421 -63 c 1,33,-1
 421 -163 l 1,0,1
EndSplineSet
Validated: 1
Substitution2: "'smcp' Lowercase to Small Capitals lookup 35 subtable" braceleft.sc
Substitution2: "'c2sc' Capitals to Small Capitals lookup 34 subtable" braceleft.sc
Substitution2: "'aalt' Access All Alternates lookup 0 subtable" braceleft.sc
EndChar

StartChar: bar
Encoding: 124 124 95
Width: 530
Flags: W
LayerCount: 2
Fore
SplineSet
210 -240 m 1,0,-1
 210 760 l 1,1,-1
 319 760 l 1,2,-1
 319 -240 l 1,3,-1
 210 -240 l 1,0,-1
EndSplineSet
Validated: 1
EndChar

StartChar: asciitilde
Encoding: 126 126 97
Width: 530
Flags: W
LayerCount: 2
Fore
SplineSet
60 273 m 1,0,1
 60 322 60 322 70.5 364.5 c 128,-1,2
 81 407 81 407 106.5 433 c 128,-1,3
 132 459 132 459 176 459 c 0,4,5
 206 459 206 459 231.5 444 c 128,-1,6
 257 429 257 429 289 392 c 0,7,8
 313 365 313 365 326 354 c 128,-1,9
 339 343 339 343 355 343 c 0,10,11
 378 343 378 343 390.5 370.5 c 128,-1,12
 403 398 403 398 404 459 c 1,13,-1
 472 459 l 1,14,15
 471 410 471 410 460 367.5 c 128,-1,16
 449 325 449 325 424.5 299 c 128,-1,17
 400 273 400 273 357 273 c 0,18,19
 331 273 331 273 307.5 285.5 c 128,-1,20
 284 298 284 298 247 338 c 0,21,22
 219 368 219 368 206 379.5 c 128,-1,23
 193 391 193 391 178 391 c 0,24,25
 154 391 154 391 140 363 c 128,-1,26
 126 335 126 335 126 273 c 1,27,-1
 60 273 l 1,0,1
EndSplineSet
Validated: 1
EndChar

StartChar: cent
Encoding: 162 162 100
Width: 530
Flags: W
LayerCount: 2
Fore
SplineSet
272 86 m 1,0,1
 170 96 170 96 121 167.5 c 128,-1,2
 72 239 72 239 71 362 c 0,3,4
 72 484 72 484 122 557.5 c 128,-1,5
 172 631 172 631 272 643 c 1,6,-1
 272 724 l 1,7,-1
 345 724 l 1,8,-1
 345 646 l 1,9,10
 378 644 378 644 412 635 c 128,-1,11
 446 626 446 626 469 613 c 1,12,-1
 434 510 l 1,13,14
 411 524 411 524 381.5 531 c 128,-1,15
 352 538 352 538 329 538 c 0,16,17
 263 538 263 538 230.5 496.5 c 128,-1,18
 198 455 198 455 198 362 c 0,19,20
 198 272 198 272 229.5 231 c 128,-1,21
 261 190 261 190 328 190 c 0,22,23
 360 190 360 190 395 200.5 c 128,-1,24
 430 211 430 211 458 229 c 1,25,-1
 458 120 l 1,26,27
 437 107 437 107 406.5 97.5 c 128,-1,28
 376 88 376 88 345 84 c 1,29,-1
 345 -10 l 1,30,-1
 272 -10 l 1,31,-1
 272 86 l 1,0,1
EndSplineSet
Validated: 1
EndChar

StartChar: sterling
Encoding: 163 163 101
Width: 530
Flags: W
LayerCount: 2
Fore
SplineSet
66 109 m 1,0,1
 100 129 100 129 117.5 156.5 c 128,-1,2
 135 184 135 184 135 237 c 2,3,-1
 135 315 l 1,4,-1
 65 315 l 1,5,-1
 65 412 l 1,6,-1
 135 412 l 1,7,-1
 135 522 l 2,8,9
 135 623 135 623 184.5 674 c 128,-1,10
 234 725 234 725 323 725 c 0,11,12
 402 725 402 725 470 685 c 1,13,-1
 433 580 l 1,14,15
 405 595 405 595 381.5 602.5 c 128,-1,16
 358 610 358 610 333 610 c 0,17,18
 300 610 300 610 281.5 588 c 128,-1,19
 263 566 263 566 263 514 c 2,20,-1
 263 412 l 1,21,-1
 401 412 l 1,22,-1
 401 315 l 1,23,-1
 263 315 l 1,24,-1
 263 238 l 2,25,26
 263 194 263 194 246.5 164 c 128,-1,27
 230 134 230 134 199 115 c 1,28,-1
 471 115 l 1,29,-1
 471 0 l 1,30,-1
 66 0 l 1,31,-1
 66 109 l 1,0,1
EndSplineSet
Validated: 1
EndChar

StartChar: currency
Encoding: 164 164 102
Width: 530
Flags: W
LayerCount: 2
Fore
SplineSet
369 193 m 1,0,1
 320 162 320 162 265 162 c 0,2,3
 205 162 205 162 158 193 c 1,4,-1
 95 129 l 1,5,-1
 35 190 l 1,6,-1
 100 253 l 1,7,8
 67 301 67 301 67 359 c 0,9,10
 67 414 67 414 100 463 c 1,11,-1
 34 529 l 1,12,-1
 95 589 l 1,13,-1
 159 524 l 1,14,15
 206 556 206 556 265 556 c 0,16,17
 322 556 322 556 369 524 c 1,18,-1
 434 589 l 1,19,-1
 496 530 l 1,20,-1
 431 464 l 1,21,22
 462 417 462 417 462 359 c 0,23,24
 462 300 462 300 431 252 c 1,25,-1
 494 189 l 1,26,-1
 434 128 l 1,27,-1
 369 193 l 1,0,1
265 249 m 256,28,29
 312 249 312 249 344.5 281 c 128,-1,30
 377 313 377 313 377 359 c 0,31,32
 377 406 377 406 345.5 438 c 128,-1,33
 314 470 314 470 265 470 c 256,34,35
 216 470 216 470 185.5 438 c 128,-1,36
 155 406 155 406 155 359 c 256,37,38
 155 312 155 312 186.5 280.5 c 128,-1,39
 218 249 218 249 265 249 c 256,28,29
EndSplineSet
Validated: 1
EndChar

StartChar: yen
Encoding: 165 165 103
Width: 530
Flags: W
LayerCount: 2
Fore
SplineSet
201 0 m 1,0,-1
 201 115 l 1,1,-1
 75 115 l 1,2,-1
 75 197 l 1,3,-1
 201 197 l 1,4,-1
 201 268 l 1,5,-1
 75 268 l 1,6,-1
 75 351 l 1,7,-1
 177 351 l 1,8,-1
 33 714 l 1,9,-1
 169 714 l 1,10,-1
 266 426 l 1,11,-1
 360 714 l 1,12,-1
 497 714 l 1,13,-1
 350 351 l 1,14,-1
 455 351 l 1,15,-1
 455 268 l 1,16,-1
 329 268 l 1,17,-1
 329 197 l 1,18,-1
 455 197 l 1,19,-1
 455 115 l 1,20,-1
 329 115 l 1,21,-1
 329 0 l 1,22,-1
 201 0 l 1,0,-1
EndSplineSet
Validated: 1
EndChar

StartChar: brokenbar
Encoding: 166 166 104
Width: 530
Flags: W
LayerCount: 2
Fore
SplineSet
210 364 m 1,0,-1
 210 759 l 1,1,-1
 319 759 l 1,2,-1
 319 364 l 1,3,-1
 210 364 l 1,0,-1
210 -233 m 1,4,-1
 210 163 l 1,5,-1
 319 163 l 1,6,-1
 319 -233 l 1,7,-1
 210 -233 l 1,4,-1
EndSplineSet
Validated: 1
EndChar

StartChar: section
Encoding: 167 167 105
Width: 530
Flags: W
LayerCount: 2
Fore
SplineSet
233 -7 m 0,0,1
 144 -7 144 -7 84 31 c 1,2,-1
 84 130 l 1,3,4
 114 110 114 110 153 95.5 c 128,-1,5
 192 81 192 81 232 81 c 0,6,7
 321 81 321 81 321 143 c 0,8,9
 321 172 321 172 299 190 c 128,-1,10
 277 208 277 208 230 232 c 0,11,12
 185 255 185 255 153.5 276.5 c 128,-1,13
 122 298 122 298 105.5 324 c 128,-1,14
 89 350 89 350 89 388 c 0,15,16
 89 432 89 432 110 461.5 c 128,-1,17
 131 491 131 491 169 510 c 1,18,19
 104 558 104 558 104 629 c 0,20,21
 104 693 104 693 155 729.5 c 128,-1,22
 206 766 206 766 286 766 c 0,23,24
 327 766 327 766 363.5 756 c 128,-1,25
 400 746 400 746 438 728 c 1,26,-1
 404 646 l 1,27,28
 341 678 341 678 289 678 c 0,29,30
 217 678 217 678 217 629 c 0,31,32
 217 600 217 600 241.5 582.5 c 128,-1,33
 266 565 266 565 301 549 c 0,34,35
 347 527 347 527 379.5 505.5 c 128,-1,36
 412 484 412 484 429 457 c 128,-1,37
 446 430 446 430 446 390 c 0,38,39
 446 347 446 347 427 317.5 c 128,-1,40
 408 288 408 288 375 266 c 1,41,42
 433 218 433 218 433 147 c 256,43,44
 433 76 433 76 379 34.5 c 128,-1,45
 325 -7 325 -7 233 -7 c 0,0,1
305 307 m 1,46,47
 322 318 322 318 331.5 334 c 128,-1,48
 341 350 341 350 341 372 c 0,49,50
 341 401 341 401 320 422.5 c 128,-1,51
 299 444 299 444 239 470 c 1,52,53
 193 453 193 453 193 409 c 0,54,55
 193 379 193 379 215 360.5 c 128,-1,56
 237 342 237 342 276 322 c 2,57,-1
 305 307 l 1,46,47
EndSplineSet
Validated: 1
EndChar

StartChar: dieresis
Encoding: 168 168 106
Width: 530
GlyphClass: 2
Flags: W
AnchorPoint: "Anchor-1" 265 656 basechar 0
LayerCount: 2
Fore
SplineSet
362 614 m 256,0,1
 334 614 334 614 317 631 c 128,-1,2
 300 648 300 648 300 681 c 256,3,4
 300 714 300 714 317.5 730.5 c 128,-1,5
 335 747 335 747 362 747 c 0,6,7
 390 747 390 747 408 730 c 128,-1,8
 426 713 426 713 426 681 c 256,9,10
 426 649 426 649 408 631.5 c 128,-1,11
 390 614 390 614 362 614 c 256,0,1
168 614 m 0,12,13
 140 614 140 614 123 630.5 c 128,-1,14
 106 647 106 647 106 681 c 0,15,16
 106 714 106 714 123 730.5 c 128,-1,17
 140 747 140 747 168 747 c 0,18,19
 195 747 195 747 212.5 730 c 128,-1,20
 230 713 230 713 230 681 c 256,21,22
 230 649 230 649 212.5 631.5 c 128,-1,23
 195 614 195 614 168 614 c 0,12,13
EndSplineSet
Validated: 1048577
EndChar

StartChar: copyright
Encoding: 169 169 107
Width: 530
Flags: W
LayerCount: 2
Fore
SplineSet
263 104 m 0,0,1
 182 104 182 104 126.5 139 c 128,-1,2
 71 174 71 174 43 230.5 c 128,-1,3
 15 287 15 287 15 354 c 0,4,5
 15 424 15 424 45.5 480.5 c 128,-1,6
 76 537 76 537 132.5 569.5 c 128,-1,7
 189 602 189 602 265 602 c 0,8,9
 342 602 342 602 398 568.5 c 128,-1,10
 454 535 454 535 484.5 478 c 128,-1,11
 515 421 515 421 515 350 c 0,12,13
 515 277 515 277 483.5 221.5 c 128,-1,14
 452 166 452 166 395 135 c 128,-1,15
 338 104 338 104 263 104 c 0,0,1
263 164 m 0,16,17
 319 164 319 164 360.5 188 c 128,-1,18
 402 212 402 212 425.5 255.5 c 128,-1,19
 449 299 449 299 449 356 c 256,20,21
 449 413 449 413 425 455 c 128,-1,22
 401 497 401 497 360 520 c 128,-1,23
 319 543 319 543 265 543 c 0,24,25
 206 543 206 543 165 517 c 128,-1,26
 124 491 124 491 103 447.5 c 128,-1,27
 82 404 82 404 82 353 c 0,28,29
 82 300 82 300 103 257.5 c 128,-1,30
 124 215 124 215 164.5 189.5 c 128,-1,31
 205 164 205 164 263 164 c 0,16,17
275 198 m 0,32,33
 206 198 206 198 169.5 239.5 c 128,-1,34
 133 281 133 281 133 353 c 256,35,36
 133 425 133 425 170.5 467.5 c 128,-1,37
 208 510 208 510 276 510 c 0,38,39
 320 510 320 510 363 489 c 1,40,-1
 341 432 l 1,41,42
 309 449 309 449 279 449 c 0,43,44
 244 449 244 449 225 424 c 128,-1,45
 206 399 206 399 206 350 c 0,46,47
 206 260 206 260 280 260 c 0,48,49
 296 260 296 260 315 263.5 c 128,-1,50
 334 267 334 267 352 275 c 1,51,-1
 352 215 l 1,52,53
 334 207 334 207 316 202.5 c 128,-1,54
 298 198 298 198 275 198 c 0,32,33
EndSplineSet
Validated: 1
EndChar

StartChar: ordfeminine
Encoding: 170 170 108
Width: 530
GlyphClass: 2
Flags: W
AnchorPoint: "Anchor-1" 264 722 basechar 0
AnchorPoint: "Anchor-0" 260 368 basechar 0
LayerCount: 2
Fore
SplineSet
224 369 m 0,0,1
 174 369 174 369 147 399.5 c 128,-1,2
 120 430 120 430 120 476 c 0,3,4
 120 533 120 533 160 557 c 128,-1,5
 200 581 200 581 272 586 c 2,6,-1
 320 588 l 1,7,-1
 320 601 l 2,8,9
 320 650 320 650 265 650 c 0,10,11
 242 650 242 650 221 643 c 128,-1,12
 200 636 200 636 178 624 c 1,13,-1
 150 688 l 1,14,15
 180 704 180 704 212 713 c 128,-1,16
 244 722 244 722 279 722 c 0,17,18
 345 722 345 722 377 689 c 128,-1,19
 409 656 409 656 409 594 c 2,20,-1
 409 375 l 1,21,-1
 347 375 l 1,22,-1
 332 428 l 1,23,24
 295 369 295 369 224 369 c 0,0,1
254 439 m 0,25,26
 284 439 284 439 302 460 c 128,-1,27
 320 481 320 481 320 515 c 2,28,-1
 320 533 l 1,29,-1
 279 530 l 2,30,31
 241 527 241 527 225.5 514 c 128,-1,32
 210 501 210 501 210 479 c 0,33,34
 210 439 210 439 254 439 c 0,25,26
EndSplineSet
Validated: 1048577
EndChar

StartChar: guillemotleft
Encoding: 171 171 109
Width: 530
Flags: W
LayerCount: 2
Fore
SplineSet
404 46 m 1,0,-1
 250 261 l 1,1,-1
 250 275 l 1,2,-1
 404 490 l 1,3,-1
 495 442 l 1,4,-1
 388 268 l 1,5,-1
 495 95 l 1,6,-1
 404 46 l 1,0,-1
190 46 m 1,7,-1
 35 261 l 1,8,-1
 35 275 l 1,9,-1
 190 490 l 1,10,-1
 281 442 l 1,11,-1
 172 268 l 1,12,-1
 281 95 l 1,13,-1
 190 46 l 1,7,-1
EndSplineSet
Validated: 1
EndChar

StartChar: logicalnot
Encoding: 172 172 110
Width: 530
Flags: W
LayerCount: 2
Fore
SplineSet
365 119 m 1,0,-1
 365 302 l 1,1,-1
 58 302 l 1,2,-1
 58 404 l 1,3,-1
 469 404 l 1,4,-1
 469 119 l 1,5,-1
 365 119 l 1,0,-1
EndSplineSet
Validated: 1
EndChar

StartChar: registered
Encoding: 174 174 112
Width: 530
Flags: W
LayerCount: 2
Fore
SplineSet
263 105 m 0,0,1
 182 105 182 105 126.5 139.5 c 128,-1,2
 71 174 71 174 43 231 c 128,-1,3
 15 288 15 288 15 354 c 0,4,5
 15 424 15 424 46 480.5 c 128,-1,6
 77 537 77 537 133 569.5 c 128,-1,7
 189 602 189 602 265 602 c 0,8,9
 342 602 342 602 398 568.5 c 128,-1,10
 454 535 454 535 484.5 478 c 128,-1,11
 515 421 515 421 515 351 c 0,12,13
 515 277 515 277 483 221.5 c 128,-1,14
 451 166 451 166 394.5 135.5 c 128,-1,15
 338 105 338 105 263 105 c 0,0,1
263 164 m 0,16,17
 319 164 319 164 360.5 188.5 c 128,-1,18
 402 213 402 213 425 256 c 128,-1,19
 448 299 448 299 448 356 c 256,20,21
 448 413 448 413 424.5 455 c 128,-1,22
 401 497 401 497 360 520 c 128,-1,23
 319 543 319 543 265 543 c 0,24,25
 206 543 206 543 165 517 c 128,-1,26
 124 491 124 491 103 447.5 c 128,-1,27
 82 404 82 404 82 353 c 0,28,29
 82 300 82 300 103 257.5 c 128,-1,30
 124 215 124 215 164.5 189.5 c 128,-1,31
 205 164 205 164 263 164 c 0,16,17
166 213 m 1,32,-1
 166 501 l 1,33,-1
 256 501 l 2,34,35
 369 501 369 501 369 414 c 0,36,37
 369 383 369 383 357 364 c 128,-1,38
 345 345 345 345 325 335 c 1,39,-1
 380 213 l 1,40,-1
 308 213 l 1,41,-1
 266 323 l 1,42,-1
 232 323 l 1,43,-1
 232 213 l 1,44,-1
 166 213 l 1,32,-1
253 370 m 2,45,46
 274 370 274 370 286.5 380 c 128,-1,47
 299 390 299 390 299 413 c 0,48,49
 299 433 299 433 288.5 441 c 128,-1,50
 278 449 278 449 254 449 c 2,51,-1
 232 449 l 1,52,-1
 232 370 l 1,53,-1
 253 370 l 2,45,46
EndSplineSet
Validated: 1
EndChar

StartChar: overscore
Encoding: 175 175 113
Width: 530
Flags: W
LayerCount: 2
Fore
SplineSet
125 619 m 1,0,-1
 125 711 l 1,1,-1
 405 711 l 1,2,-1
 405 619 l 1,3,-1
 125 619 l 1,0,-1
EndSplineSet
Validated: 1
EndChar

StartChar: degree
Encoding: 176 176 114
Width: 530
Flags: W
LayerCount: 2
Fore
SplineSet
264 427 m 0,0,1
 199 427 199 427 157.5 469 c 128,-1,2
 116 511 116 511 116 576 c 0,3,4
 116 618 116 618 135 651.5 c 128,-1,5
 154 685 154 685 187.5 704.5 c 128,-1,6
 221 724 221 724 264 724 c 0,7,8
 308 724 308 724 341.5 704.5 c 128,-1,9
 375 685 375 685 394.5 651 c 128,-1,10
 414 617 414 617 414 576 c 0,11,12
 414 511 414 511 372.5 469 c 128,-1,13
 331 427 331 427 264 427 c 0,0,1
264 505 m 0,14,15
 298 505 298 505 316 526 c 128,-1,16
 334 547 334 547 334 576 c 0,17,18
 334 606 334 606 315.5 626.5 c 128,-1,19
 297 647 297 647 264 647 c 256,20,21
 231 647 231 647 213 626 c 128,-1,22
 195 605 195 605 195 576 c 0,23,24
 195 546 195 546 214 525.5 c 128,-1,25
 233 505 233 505 264 505 c 0,14,15
EndSplineSet
Validated: 1
EndChar

StartChar: plusminus
Encoding: 177 177 115
Width: 530
Flags: W
LayerCount: 2
Fore
SplineSet
214 155 m 1,0,-1
 214 341 l 1,1,-1
 57 341 l 1,2,-1
 57 443 l 1,3,-1
 214 443 l 1,4,-1
 214 631 l 1,5,-1
 317 631 l 1,6,-1
 317 443 l 1,7,-1
 474 443 l 1,8,-1
 474 341 l 1,9,-1
 317 341 l 1,10,-1
 317 155 l 1,11,-1
 214 155 l 1,0,-1
56 0 m 1,12,-1
 56 102 l 1,13,-1
 474 102 l 1,14,-1
 474 0 l 1,15,-1
 56 0 l 1,12,-1
EndSplineSet
Validated: 1
EndChar

StartChar: uni00B2
Encoding: 178 178 116
Width: 530
Flags: W
LayerCount: 2
Fore
SplineSet
130 415 m 1,0,-1
 130 496 l 1,1,-1
 219 596 l 2,2,3
 256 638 256 638 276 665.5 c 128,-1,4
 296 693 296 693 296 726 c 0,5,6
 296 772 296 772 249 772 c 0,7,8
 210 772 210 772 172 730 c 1,9,-1
 126 793 l 1,10,11
 148 818 148 818 183.5 836 c 128,-1,12
 219 854 219 854 263 854 c 0,13,14
 323 854 323 854 357.5 822 c 128,-1,15
 392 790 392 790 392 736 c 0,16,17
 392 697 392 697 377.5 668 c 128,-1,18
 363 639 363 639 335 607 c 128,-1,19
 307 575 307 575 265 527 c 2,20,-1
 238 497 l 1,21,-1
 406 497 l 1,22,-1
 406 415 l 1,23,-1
 130 415 l 1,0,-1
EndSplineSet
Validated: 1
EndChar

StartChar: uni00B3
Encoding: 179 179 117
Width: 530
Flags: W
LayerCount: 2
Fore
SplineSet
249 407 m 256,0,1
 180 407 180 407 130 438 c 1,2,-1
 130 527 l 1,3,4
 180 491 180 491 248 491 c 0,5,6
 311 491 311 491 311 540 c 0,7,8
 311 596 311 596 237 596 c 2,9,-1
 195 596 l 1,10,-1
 195 671 l 1,11,-1
 231 671 l 2,12,13
 267 671 267 671 284 686 c 128,-1,14
 301 701 301 701 301 726 c 0,15,16
 301 748 301 748 289 760.5 c 128,-1,17
 277 773 277 773 251 773 c 0,18,19
 209 773 209 773 169 737 c 1,20,-1
 127 799 l 1,21,22
 155 825 155 825 188.5 839 c 128,-1,23
 222 853 222 853 261 853 c 0,24,25
 319 853 319 853 355.5 824.5 c 128,-1,26
 392 796 392 796 392 745 c 0,27,28
 392 672 392 672 322 641 c 1,29,-1
 322 637 l 1,30,31
 403 615 403 615 403 531 c 0,32,33
 403 473 403 473 360.5 440 c 128,-1,34
 318 407 318 407 249 407 c 256,0,1
EndSplineSet
Validated: 1
EndChar

StartChar: acute
Encoding: 180 180 118
Width: 530
Flags: W
LayerCount: 2
Fore
SplineSet
190 619 m 1,0,1
 216 657 216 657 238.5 694.5 c 128,-1,2
 261 732 261 732 278 766 c 1,3,-1
 424 766 l 1,4,-1
 424 757 l 1,5,6
 410 738 410 738 384.5 710.5 c 128,-1,7
 359 683 359 683 330.5 655 c 128,-1,8
 302 627 302 627 279 606 c 1,9,-1
 190 606 l 1,10,-1
 190 619 l 1,0,1
EndSplineSet
Validated: 1
EndChar

StartChar: uni00B5
Encoding: 181 181 119
Width: 530
GlyphClass: 2
Flags: W
AnchorPoint: "Anchor-2" 510 546 basechar 0
AnchorPoint: "Anchor-1" 265 546 basechar 0
AnchorPoint: "Anchor-0" 265 0 basechar 0
LayerCount: 2
Fore
SplineSet
202 -10 m 0,0,1
 188 -10 188 -10 175 -9 c 1,2,-1
 175 -240 l 1,3,-1
 43 -240 l 1,4,-1
 43 546 l 1,5,-1
 176 546 l 1,6,-1
 176 226 l 2,7,8
 176 169 176 169 192.5 138.5 c 128,-1,9
 209 108 209 108 256 108 c 0,10,11
 313 108 313 108 331 155 c 128,-1,12
 349 202 349 202 349 290 c 2,13,-1
 349 546 l 1,14,-1
 482 546 l 1,15,-1
 482 0 l 1,16,-1
 377 0 l 1,17,-1
 356 70 l 1,18,-1
 348 70 l 1,19,20
 327 31 327 31 290.5 10.5 c 128,-1,21
 254 -10 254 -10 202 -10 c 0,0,1
EndSplineSet
Validated: 1048577
EndChar

StartChar: paragraph
Encoding: 182 182 120
Width: 530
Flags: W
LayerCount: 2
Fore
SplineSet
256 274 m 1,0,1
 235 265 235 265 207 265 c 0,2,3
 125 265 125 265 84.5 324.5 c 128,-1,4
 44 384 44 384 44 509 c 0,5,6
 44 636 44 636 88 698 c 128,-1,7
 132 760 132 760 222 760 c 2,8,-1
 467 760 l 1,9,-1
 467 -127 l 1,10,-1
 394 -127 l 1,11,-1
 394 687 l 1,12,-1
 329 687 l 1,13,-1
 329 -127 l 1,14,-1
 256 -127 l 1,15,-1
 256 274 l 1,0,1
EndSplineSet
Validated: 1
EndChar

StartChar: cedilla
Encoding: 184 184 122
Width: 530
Flags: W
LayerCount: 2
Fore
SplineSet
235 -240 m 0,0,1
 196 -240 196 -240 166 -232 c 1,2,-1
 166 -159 l 1,3,4
 179 -163 179 -163 192 -165 c 128,-1,5
 205 -167 205 -167 215 -167 c 0,6,7
 267 -167 267 -167 267 -128 c 0,8,9
 267 -87 267 -87 195 -81 c 1,10,-1
 230 2 l 1,11,-1
 303 2 l 1,12,-1
 286 -40 l 1,13,14
 366 -58 366 -58 366 -135 c 0,15,16
 366 -183 366 -183 334 -211.5 c 128,-1,17
 302 -240 302 -240 235 -240 c 0,0,1
EndSplineSet
Validated: 1
EndChar

StartChar: uni00B9
Encoding: 185 185 123
Width: 530
Flags: W
LayerCount: 2
Fore
SplineSet
147 415 m 1,0,-1
 147 481 l 1,1,-1
 240 490 l 1,2,-1
 240 641 l 2,3,4
 240 665 240 665 240.5 692 c 128,-1,5
 241 719 241 719 243 742 c 1,6,7
 236 736 236 736 225.5 729.5 c 128,-1,8
 215 723 215 723 206 718 c 2,9,-1
 164 694 l 1,10,-1
 121 764 l 1,11,-1
 253 843 l 1,12,-1
 329 843 l 1,13,-1
 329 490 l 1,14,-1
 417 482 l 1,15,-1
 417 415 l 1,16,-1
 147 415 l 1,0,-1
EndSplineSet
Validated: 1
EndChar

StartChar: ordmasculine
Encoding: 186 186 124
Width: 530
GlyphClass: 2
Flags: W
AnchorPoint: "Anchor-1" 265 722 basechar 0
AnchorPoint: "Anchor-0" 264 368 basechar 0
LayerCount: 2
Fore
SplineSet
265 369 m 0,0,1
 196 369 196 369 155.5 416.5 c 128,-1,2
 115 464 115 464 115 545 c 0,3,4
 115 629 115 629 155.5 675.5 c 128,-1,5
 196 722 196 722 266 722 c 0,6,7
 333 722 333 722 374 676 c 128,-1,8
 415 630 415 630 415 545 c 0,9,10
 415 462 415 462 375.5 415.5 c 128,-1,11
 336 369 336 369 265 369 c 0,0,1
265 443 m 256,12,13
 324 443 324 443 324 545 c 0,14,15
 324 648 324 648 265 648 c 256,16,17
 206 648 206 648 206 545 c 0,18,19
 206 443 206 443 265 443 c 256,12,13
EndSplineSet
Validated: 1048577
EndChar

StartChar: onequarter
Encoding: 188 188 126
Width: 530
Flags: W
LayerCount: 2
Fore
SplineSet
29 378 m 1,0,-1
 29 439 l 1,1,-1
 97 445 l 1,2,-1
 97 541 l 2,3,4
 97 561 97 561 97.5 583.5 c 128,-1,5
 98 606 98 606 99 627 c 1,6,7
 93 621 93 621 86 614.5 c 128,-1,8
 79 608 79 608 73 603 c 2,9,-1
 43 584 l 1,10,-1
 9 649 l 1,11,-1
 111 714 l 1,12,-1
 170 714 l 1,13,-1
 170 445 l 1,14,-1
 235 439 l 1,15,-1
 235 378 l 1,16,-1
 29 378 l 1,0,-1
32 67 m 1,17,-1
 403 625 l 1,18,-1
 507 625 l 1,19,-1
 137 67 l 1,20,-1
 32 67 l 1,17,-1
390 0 m 1,21,-1
 390 63 l 1,22,-1
 264 63 l 1,23,-1
 264 125 l 1,24,-1
 384 337 l 1,25,-1
 465 337 l 1,26,-1
 465 129 l 1,27,-1
 510 129 l 1,28,-1
 510 63 l 1,29,-1
 465 63 l 1,30,-1
 465 0 l 1,31,-1
 390 0 l 1,21,-1
329 129 m 1,32,-1
 390 129 l 1,33,-1
 390 197 l 2,34,35
 390 213 390 213 390.5 225.5 c 128,-1,36
 391 238 391 238 392 253 c 1,37,38
 388 240 388 240 381 227.5 c 128,-1,39
 374 215 374 215 369 205 c 2,40,-1
 329 129 l 1,32,-1
EndSplineSet
Validated: 1
EndChar

StartChar: onehalf
Encoding: 189 189 127
Width: 530
Flags: W
LayerCount: 2
Fore
SplineSet
29 378 m 1,0,-1
 29 439 l 1,1,-1
 97 445 l 1,2,-1
 97 541 l 2,3,4
 97 561 97 561 97.5 583.5 c 128,-1,5
 98 606 98 606 99 627 c 1,6,7
 93 621 93 621 86 614.5 c 128,-1,8
 79 608 79 608 73 603 c 2,9,-1
 43 584 l 1,10,-1
 9 649 l 1,11,-1
 111 714 l 1,12,-1
 170 714 l 1,13,-1
 170 445 l 1,14,-1
 235 439 l 1,15,-1
 235 378 l 1,16,-1
 29 378 l 1,0,-1
32 67 m 1,17,-1
 403 625 l 1,18,-1
 507 625 l 1,19,-1
 137 67 l 1,20,-1
 32 67 l 1,17,-1
307 0 m 1,21,-1
 306 67 l 1,22,-1
 374 149 l 2,23,24
 405 185 405 185 416 202 c 128,-1,25
 427 219 427 219 427 239 c 0,26,27
 427 275 427 275 396 275 c 0,28,29
 381 275 381 275 368.5 266.5 c 128,-1,30
 356 258 356 258 341 242 c 1,31,-1
 303 295 l 1,32,33
 320 317 320 317 347.5 331 c 128,-1,34
 375 345 375 345 410 345 c 0,35,36
 457 345 457 345 481 318.5 c 128,-1,37
 505 292 505 292 505 248 c 0,38,39
 505 221 505 221 493.5 199 c 128,-1,40
 482 177 482 177 463 154 c 128,-1,41
 444 131 444 131 420 98 c 2,42,-1
 398 72 l 1,43,-1
 518 72 l 1,44,-1
 518 0 l 1,45,-1
 307 0 l 1,21,-1
EndSplineSet
Validated: 1
EndChar

StartChar: threequarters
Encoding: 190 190 128
Width: 530
Flags: W
LayerCount: 2
Fore
SplineSet
126 373 m 0,0,1
 99 373 99 373 76 378.5 c 128,-1,2
 53 384 53 384 35 397 c 1,3,-1
 35 472 l 1,4,5
 54 457 54 457 76.5 449.5 c 128,-1,6
 99 442 99 442 121 442 c 0,7,8
 166 442 166 442 166 483 c 0,9,10
 166 501 166 501 155.5 510 c 128,-1,11
 145 519 145 519 118 519 c 2,12,-1
 84 519 l 1,13,-1
 84 582 l 1,14,-1
 112 582 l 2,15,16
 138 582 138 582 148.5 592.5 c 128,-1,17
 159 603 159 603 159 620 c 0,18,19
 159 656 159 656 127 656 c 0,20,21
 98 656 98 656 66 627 c 1,22,-1
 31 681 l 1,23,24
 52 701 52 701 78 712 c 128,-1,25
 104 723 104 723 135 723 c 0,26,27
 181 723 181 723 207 699.5 c 128,-1,28
 233 676 233 676 233 636 c 0,29,30
 233 576 233 576 187 557 c 1,31,-1
 187 554 l 1,32,33
 241 536 241 536 241 475 c 0,34,35
 241 428 241 428 210.5 400.5 c 128,-1,36
 180 373 180 373 126 373 c 0,0,1
32 67 m 1,37,-1
 403 625 l 1,38,-1
 507 625 l 1,39,-1
 136 67 l 1,40,-1
 32 67 l 1,37,-1
390 0 m 1,41,-1
 390 63 l 1,42,-1
 264 63 l 1,43,-1
 264 125 l 1,44,-1
 384 337 l 1,45,-1
 465 337 l 1,46,-1
 465 129 l 1,47,-1
 510 129 l 1,48,-1
 510 63 l 1,49,-1
 465 63 l 1,50,-1
 465 0 l 1,51,-1
 390 0 l 1,41,-1
329 129 m 1,52,-1
 390 129 l 1,53,-1
 390 197 l 2,54,55
 390 213 390 213 390.5 225.5 c 128,-1,56
 391 238 391 238 392 253 c 1,57,58
 387 240 387 240 380.5 227.5 c 128,-1,59
 374 215 374 215 369 205 c 2,60,-1
 329 129 l 1,52,-1
EndSplineSet
Validated: 1
EndChar

StartChar: AE
Encoding: 198 198 136
Width: 530
GlyphClass: 2
Flags: W
AnchorPoint: "Anchor-1" 297 714 basechar 0
AnchorPoint: "Anchor-0" 265 0 basechar 0
LayerCount: 2
Fore
SplineSet
10 0 m 1,0,-1
 155 714 l 1,1,-1
 507 714 l 1,2,-1
 507 594 l 1,3,-1
 398 594 l 1,4,-1
 398 432 l 1,5,-1
 491 432 l 1,6,-1
 491 310 l 1,7,-1
 398 310 l 1,8,-1
 398 121 l 1,9,-1
 507 121 l 1,10,-1
 507 0 l 1,11,-1
 275 0 l 1,12,-1
 275 175 l 1,13,-1
 174 175 l 1,14,-1
 142 0 l 1,15,-1
 10 0 l 1,0,-1
250 599 m 1,16,-1
 195 297 l 1,17,-1
 275 297 l 1,18,-1
 275 599 l 1,19,-1
 250 599 l 1,16,-1
EndSplineSet
Validated: 1048577
Substitution2: "'c2sc' Capitals to Small Capitals lookup 34 subtable" ae.sc
Substitution2: "'aalt' Access All Alternates lookup 0 subtable" ae.sc
EndChar

StartChar: Eth
Encoding: 208 208 146
Width: 530
GlyphClass: 2
Flags: W
AnchorPoint: "Anchor-3" 276 357 basechar 0
AnchorPoint: "Anchor-2" 537 714 basechar 0
AnchorPoint: "Anchor-1" 265 714 basechar 0
AnchorPoint: "Anchor-0" 265 0 basechar 0
LayerCount: 2
Fore
SplineSet
45 0 m 1,0,-1
 45 312 l 1,1,-1
 0 312 l 1,2,-1
 0 416 l 1,3,-1
 45 416 l 1,4,-1
 45 714 l 1,5,-1
 240 714 l 2,6,7
 370 714 370 714 442 625.5 c 128,-1,8
 514 537 514 537 514 368 c 0,9,10
 514 190 514 190 439.5 95 c 128,-1,11
 365 0 365 0 230 0 c 2,12,-1
 45 0 l 1,0,-1
222 120 m 2,13,14
 302 120 302 120 339.5 179.5 c 128,-1,15
 377 239 377 239 377 363 c 0,16,17
 377 484 377 484 340 539 c 128,-1,18
 303 594 303 594 230 594 c 2,19,-1
 178 594 l 1,20,-1
 178 416 l 1,21,-1
 267 416 l 1,22,-1
 267 312 l 1,23,-1
 178 312 l 1,24,-1
 178 120 l 1,25,-1
 222 120 l 2,13,14
EndSplineSet
Validated: 1
Substitution2: "'c2sc' Capitals to Small Capitals lookup 34 subtable" eth.sc
Substitution2: "'aalt' Access All Alternates lookup 0 subtable" eth.sc
EndChar

StartChar: multiply
Encoding: 215 215 153
Width: 530
Flags: W
LayerCount: 2
Fore
SplineSet
129 148 m 1,0,-1
 60 221 l 1,1,-1
 191 353 l 1,2,-1
 60 485 l 1,3,-1
 129 558 l 1,4,-1
 264 426 l 1,5,-1
 398 558 l 1,6,-1
 470 487 l 1,7,-1
 335 353 l 1,8,-1
 467 220 l 1,9,-1
 397 148 l 1,10,-1
 264 281 l 1,11,-1
 129 148 l 1,0,-1
EndSplineSet
Validated: 1
EndChar

StartChar: Oslash
Encoding: 216 216 154
Width: 530
GlyphClass: 2
Flags: W
AnchorPoint: "Anchor-3" 265 357 basechar 0
AnchorPoint: "Anchor-2" 530 714 basechar 0
AnchorPoint: "Anchor-1" 265 714 basechar 0
AnchorPoint: "Anchor-0" 265 0 basechar 0
LayerCount: 2
Fore
SplineSet
89 -49 m 1,0,-1
 19 -11 l 1,1,-1
 78 97 l 1,2,3
 50 144 50 144 36.5 210.5 c 128,-1,4
 23 277 23 277 23 359 c 0,5,6
 23 537 23 537 83.5 631.5 c 128,-1,7
 144 726 144 726 265 726 c 0,8,9
 345 726 345 726 399 683 c 1,10,-1
 438 754 l 1,11,-1
 506 717 l 1,12,-1
 453 619 l 1,13,14
 480 572 480 572 493.5 506 c 128,-1,15
 507 440 507 440 507 358 c 0,16,17
 507 245 507 245 481 163 c 128,-1,18
 455 81 455 81 401 36 c 128,-1,19
 347 -9 347 -9 265 -9 c 0,20,21
 187 -9 187 -9 133 33 c 1,22,-1
 89 -49 l 1,0,-1
160 358 m 0,23,24
 160 300 160 300 166 256 c 1,25,-1
 335 565 l 1,26,27
 310 606 310 606 265 606 c 0,28,29
 210 606 210 606 185 542.5 c 128,-1,30
 160 479 160 479 160 358 c 0,23,24
265 112 m 0,31,32
 320 112 320 112 345 173.5 c 128,-1,33
 370 235 370 235 370 358 c 0,34,35
 370 415 370 415 365 458 c 1,36,-1
 197 150 l 1,37,38
 222 112 222 112 265 112 c 0,31,32
EndSplineSet
Validated: 1
Substitution2: "'c2sc' Capitals to Small Capitals lookup 34 subtable" oslash.sc
Substitution2: "'aalt' Access All Alternates lookup 0 subtable" oslash.sc
EndChar

StartChar: Thorn
Encoding: 222 222 160
Width: 530
GlyphClass: 2
Flags: W
AnchorPoint: "Anchor-1" 265 714 basechar 0
AnchorPoint: "Anchor-0" 265 0 basechar 0
LayerCount: 2
Fore
SplineSet
63 0 m 1,0,-1
 63 714 l 1,1,-1
 194 714 l 1,2,-1
 194 594 l 1,3,-1
 272 594 l 2,4,5
 384 594 384 594 439.5 537 c 128,-1,6
 495 480 495 480 495 373 c 0,7,8
 495 265 495 265 439 200 c 128,-1,9
 383 135 383 135 265 135 c 2,10,-1
 194 135 l 1,11,-1
 194 0 l 1,12,-1
 63 0 l 1,0,-1
248 255 m 2,13,14
 301 255 301 255 331 281.5 c 128,-1,15
 361 308 361 308 361 370 c 0,16,17
 361 424 361 424 335 449.5 c 128,-1,18
 309 475 309 475 261 475 c 2,19,-1
 194 475 l 1,20,-1
 194 255 l 1,21,-1
 248 255 l 2,13,14
EndSplineSet
Validated: 1048577
Substitution2: "'c2sc' Capitals to Small Capitals lookup 34 subtable" thorn.sc
Substitution2: "'aalt' Access All Alternates lookup 0 subtable" thorn.sc
EndChar

StartChar: germandbls
Encoding: 223 223 161
Width: 530
GlyphClass: 2
Flags: W
AnchorPoint: "Anchor-1" 265 765 basechar 0
AnchorPoint: "Anchor-0" 265 0 basechar 0
LayerCount: 2
Fore
SplineSet
332 -10 m 0,0,1
 302 -10 302 -10 271.5 -3.5 c 128,-1,2
 241 3 241 3 214 19 c 1,3,-1
 214 137 l 1,4,5
 237 120 237 120 264 109 c 128,-1,6
 291 98 291 98 318 98 c 0,7,8
 377 98 377 98 377 155 c 0,9,10
 377 182 377 182 361.5 200 c 128,-1,11
 346 218 346 218 309 248 c 0,12,13
 276 274 276 274 251 307 c 128,-1,14
 226 340 226 340 226 389 c 0,15,16
 226 428 226 428 241.5 452.5 c 128,-1,17
 257 477 257 477 277 496 c 128,-1,18
 297 515 297 515 312.5 536 c 128,-1,19
 328 557 328 557 328 589 c 256,20,21
 328 621 328 621 309.5 638.5 c 128,-1,22
 291 656 291 656 258 656 c 0,23,24
 172 656 172 656 172 544 c 2,25,-1
 172 0 l 1,26,-1
 45 0 l 1,27,-1
 45 554 l 2,28,29
 45 654 45 654 101.5 709.5 c 128,-1,30
 158 765 158 765 257 765 c 0,31,32
 344 765 344 765 400 721.5 c 128,-1,33
 456 678 456 678 456 600 c 0,34,35
 456 557 456 557 440.5 528.5 c 128,-1,36
 425 500 425 500 405 480 c 128,-1,37
 385 460 385 460 369.5 442.5 c 128,-1,38
 354 425 354 425 354 403 c 0,39,40
 354 382 354 382 371.5 364 c 128,-1,41
 389 346 389 346 415 323 c 0,42,43
 445 297 445 297 465.5 274.5 c 128,-1,44
 486 252 486 252 496 225.5 c 128,-1,45
 506 199 506 199 506 161 c 0,46,47
 506 79 506 79 461.5 34.5 c 128,-1,48
 417 -10 417 -10 332 -10 c 0,0,1
EndSplineSet
Validated: 1048577
Substitution2: "'smcp' Lowercase to Small Capitals lookup 35 subtable" germandbls.sc
Substitution2: "'aalt' Access All Alternates lookup 0 subtable" germandbls.sc
EndChar

StartChar: ae
Encoding: 230 230 168
Width: 530
GlyphClass: 2
Flags: W
AnchorPoint: "Anchor-1" 265 546 basechar 0
AnchorPoint: "Anchor-0" 265 0 basechar 0
LayerCount: 2
Fore
SplineSet
132 -10 m 0,0,1
 78 -10 78 -10 44 33 c 128,-1,2
 10 76 10 76 10 161 c 0,3,4
 10 242 10 242 45 285 c 128,-1,5
 80 328 80 328 156 331 c 2,6,-1
 217 334 l 1,7,-1
 217 368 l 2,8,9
 217 405 217 405 198.5 422.5 c 128,-1,10
 180 440 180 440 150 440 c 0,11,12
 118 440 118 440 80 418 c 1,13,-1
 36 515 l 1,14,15
 68 536 68 536 102 546 c 128,-1,16
 136 556 136 556 168 556 c 0,17,18
 205 556 205 556 231.5 543.5 c 128,-1,19
 258 531 258 531 281 505 c 1,20,21
 324 556 324 556 383 556 c 0,22,23
 435 556 435 556 464.5 523.5 c 128,-1,24
 494 491 494 491 507 434.5 c 128,-1,25
 520 378 520 378 520 306 c 2,26,-1
 520 238 l 1,27,-1
 327 238 l 1,28,29
 328 171 328 171 356 136 c 128,-1,30
 384 101 384 101 427 101 c 0,31,32
 449 101 449 101 466 110.5 c 128,-1,33
 483 120 483 120 501 137 c 1,34,-1
 501 28 l 1,35,36
 462 -10 462 -10 400 -10 c 0,37,38
 311 -10 311 -10 260 84 c 1,39,40
 213 -10 213 -10 132 -10 c 0,0,1
414 331 m 1,41,42
 413 382 413 382 403.5 411 c 128,-1,43
 394 440 394 440 373 440 c 0,44,45
 351 440 351 440 341 410 c 128,-1,46
 331 380 331 380 330 331 c 1,47,-1
 414 331 l 1,41,42
168 105 m 0,48,49
 192 105 192 105 204.5 133.5 c 128,-1,50
 217 162 217 162 217 208 c 2,51,-1
 217 252 l 1,52,-1
 189 252 l 2,53,54
 164 252 164 252 146.5 231.5 c 128,-1,55
 129 211 129 211 129 170 c 0,56,57
 129 135 129 135 141 120 c 128,-1,58
 153 105 153 105 168 105 c 0,48,49
EndSplineSet
Validated: 1048577
Substitution2: "'smcp' Lowercase to Small Capitals lookup 35 subtable" ae.sc
Substitution2: "'aalt' Access All Alternates lookup 0 subtable" ae.sc
EndChar

StartChar: eth
Encoding: 240 240 178
Width: 530
GlyphClass: 2
Flags: W
AnchorPoint: "Anchor-3" 265 273 basechar 0
AnchorPoint: "Anchor-2" 510 761 basechar 0
AnchorPoint: "Anchor-1" 265 765 basechar 0
AnchorPoint: "Anchor-0" 265 0 basechar 0
LayerCount: 2
Fore
SplineSet
261 -10 m 0,0,1
 190 -10 190 -10 138.5 21 c 128,-1,2
 87 52 87 52 60 108.5 c 128,-1,3
 33 165 33 165 33 239 c 0,4,5
 33 317 33 317 59.5 372 c 128,-1,6
 86 427 86 427 132.5 456 c 128,-1,7
 179 485 179 485 238 485 c 0,8,9
 304 485 304 485 338 451 c 1,10,-1
 341 453 l 1,11,12
 329 493 329 493 307.5 528.5 c 128,-1,13
 286 564 286 564 258 594 c 1,14,-1
 171 533 l 1,15,-1
 125 596 l 1,16,-1
 199 648 l 1,17,18
 184 661 184 661 168 672 c 128,-1,19
 152 683 152 683 136 693 c 1,20,-1
 187 765 l 1,21,22
 239 742 239 742 284 709 c 1,23,-1
 364 765 l 1,24,-1
 411 701 l 1,25,-1
 346 655 l 1,26,27
 420 578 420 578 458.5 477 c 128,-1,28
 497 376 497 376 497 272 c 0,29,30
 497 137 497 137 434 63.5 c 128,-1,31
 371 -10 371 -10 261 -10 c 0,0,1
263 94 m 0,32,33
 366 94 366 94 366 242 c 0,34,35
 366 304 366 304 340.5 342 c 128,-1,36
 315 380 315 380 261 380 c 0,37,38
 210 380 210 380 187 344.5 c 128,-1,39
 164 309 164 309 164 238 c 0,40,41
 164 171 164 171 187 132.5 c 128,-1,42
 210 94 210 94 263 94 c 0,32,33
EndSplineSet
Validated: 1
Substitution2: "'smcp' Lowercase to Small Capitals lookup 35 subtable" eth.sc
Substitution2: "'aalt' Access All Alternates lookup 0 subtable" eth.sc
EndChar

StartChar: divide
Encoding: 247 247 185
Width: 530
Flags: W
LayerCount: 2
Fore
SplineSet
266 464 m 0,0,1
 235 464 235 464 217 483 c 128,-1,2
 199 502 199 502 199 538 c 0,3,4
 199 613 199 613 266 613 c 0,5,6
 330 613 330 613 330 538 c 0,7,8
 330 502 330 502 312.5 483 c 128,-1,9
 295 464 295 464 266 464 c 0,0,1
56 302 m 1,10,-1
 56 404 l 1,11,-1
 474 404 l 1,12,-1
 474 302 l 1,13,-1
 56 302 l 1,10,-1
266 92 m 0,14,15
 235 92 235 92 217 111 c 128,-1,16
 199 130 199 130 199 167 c 0,17,18
 199 241 199 241 266 241 c 0,19,20
 330 241 330 241 330 167 c 0,21,22
 330 130 330 130 312.5 111 c 128,-1,23
 295 92 295 92 266 92 c 0,14,15
EndSplineSet
Validated: 1
EndChar

StartChar: oslash
Encoding: 248 248 186
Width: 530
GlyphClass: 2
Flags: W
AnchorPoint: "Anchor-3" 265 273 basechar 0
AnchorPoint: "Anchor-2" 510 546 basechar 0
AnchorPoint: "Anchor-1" 265 546 basechar 0
AnchorPoint: "Anchor-0" 265 0 basechar 0
LayerCount: 2
Fore
SplineSet
131 -49 m 1,0,-1
 65 -13 l 1,1,-1
 104 58 l 1,2,3
 68 96 68 96 50.5 152.5 c 128,-1,4
 33 209 33 209 33 275 c 0,5,6
 33 355 33 355 59 418.5 c 128,-1,7
 85 482 85 482 136.5 519.5 c 128,-1,8
 188 557 188 557 266 557 c 0,9,10
 321 557 321 557 366 536 c 1,11,-1
 397 593 l 1,12,-1
 463 556 l 1,13,-1
 427 491 l 1,14,15
 461 455 461 455 479 399 c 128,-1,16
 497 343 497 343 497 270 c 0,17,18
 497 189 497 189 473 126 c 128,-1,19
 449 63 449 63 398.5 27 c 128,-1,20
 348 -9 348 -9 269 -9 c 0,21,22
 211 -9 211 -9 165 13 c 1,23,-1
 131 -49 l 1,0,-1
170 272 m 0,24,25
 170 225 170 225 177 192 c 1,26,-1
 308 430 l 1,27,28
 291 440 291 440 267 440 c 0,29,30
 215 440 215 440 192.5 395.5 c 128,-1,31
 170 351 170 351 170 272 c 0,24,25
268 108 m 0,32,33
 317 108 317 108 339 148 c 128,-1,34
 361 188 361 188 361 272 c 0,35,36
 361 322 361 322 353 356 c 1,37,-1
 223 119 l 1,38,39
 242 108 242 108 268 108 c 0,32,33
EndSplineSet
Validated: 1
Substitution2: "'smcp' Lowercase to Small Capitals lookup 35 subtable" oslash.sc
Substitution2: "'aalt' Access All Alternates lookup 0 subtable" oslash.sc
EndChar

StartChar: thorn
Encoding: 254 254 192
Width: 530
GlyphClass: 2
Flags: W
AnchorPoint: "Anchor-1" 288 760 basechar 0
AnchorPoint: "Anchor-0" 288 -240 basechar 0
LayerCount: 2
Fore
SplineSet
48 -240 m 1,0,-1
 48 760 l 1,1,-1
 180 760 l 1,2,-1
 180 571 l 2,3,4
 180 555 180 555 178.5 532 c 128,-1,5
 177 509 177 509 173 474 c 1,6,-1
 180 474 l 1,7,8
 231 556 231 556 324 556 c 0,9,10
 385 556 385 556 423.5 519 c 128,-1,11
 462 482 462 482 479.5 419.5 c 128,-1,12
 497 357 497 357 497 280 c 0,13,14
 497 144 497 144 449.5 67 c 128,-1,15
 402 -10 402 -10 319 -10 c 0,16,17
 279 -10 279 -10 243 9 c 128,-1,18
 207 28 207 28 180 60 c 1,19,-1
 173 60 l 1,20,21
 177 35 177 35 178.5 17.5 c 128,-1,22
 180 0 180 0 180 -18 c 2,23,-1
 180 -240 l 1,24,-1
 48 -240 l 1,0,-1
271 108 m 0,25,26
 317 108 317 108 337 150.5 c 128,-1,27
 357 193 357 193 357 278 c 0,28,29
 357 362 357 362 337 400.5 c 128,-1,30
 317 439 317 439 272 439 c 0,31,32
 180 439 180 439 180 291 c 2,33,-1
 180 274 l 2,34,35
 180 108 180 108 271 108 c 0,25,26
EndSplineSet
Validated: 1048577
Substitution2: "'smcp' Lowercase to Small Capitals lookup 35 subtable" thorn.sc
Substitution2: "'aalt' Access All Alternates lookup 0 subtable" thorn.sc
EndChar

StartChar: dcaron
Encoding: 271 271 209
Width: 530
GlyphClass: 2
Flags: W
AnchorPoint: "Anchor-3" 233 273 basechar 0
AnchorPoint: "Anchor-2" 478 761 basechar 0
AnchorPoint: "Anchor-1" 245 761 basechar 0
AnchorPoint: "Anchor-0" 233 0 basechar 0
LayerCount: 2
Fore
SplineSet
181 -10 m 0,0,1
 125 -10 125 -10 90.5 27 c 128,-1,2
 56 64 56 64 39.5 128 c 128,-1,3
 23 192 23 192 23 272 c 0,4,5
 23 356 23 356 40.5 420 c 128,-1,6
 58 484 58 484 94.5 520 c 128,-1,7
 131 556 131 556 188 556 c 0,8,9
 229 556 229 556 260.5 535.5 c 128,-1,10
 292 515 292 515 314 476 c 1,11,-1
 318 476 l 1,12,13
 312 502 312 502 309.5 530 c 128,-1,14
 307 558 307 558 307 583 c 2,15,-1
 307 761 l 1,16,-1
 439 761 l 1,17,-1
 439 0 l 1,18,-1
 342 0 l 1,19,-1
 312 71 l 1,20,-1
 306 71 l 1,21,22
 282 32 282 32 251.5 11 c 128,-1,23
 221 -10 221 -10 181 -10 c 0,0,1
464 610 m 1,24,25
 468 625 468 625 473 653.5 c 128,-1,26
 478 682 478 682 482 711.5 c 128,-1,27
 486 741 486 741 487 760 c 1,28,-1
 611 760 l 1,29,-1
 611 751 l 1,30,31
 600 717 600 717 582 675 c 128,-1,32
 564 633 564 633 543 600 c 1,33,-1
 464 600 l 1,34,-1
 464 610 l 1,24,25
240 108 m 0,35,36
 281 108 281 108 299 145.5 c 128,-1,37
 317 183 317 183 317 259 c 2,38,-1
 317 275 l 2,39,40
 317 357 317 357 300.5 398 c 128,-1,41
 284 439 284 439 240 439 c 0,42,43
 207 439 207 439 189.5 418 c 128,-1,44
 172 397 172 397 165.5 361 c 128,-1,45
 159 325 159 325 159 279 c 0,46,47
 159 189 159 189 179.5 148.5 c 128,-1,48
 200 108 200 108 240 108 c 0,35,36
EndSplineSet
Validated: 1
Substitution2: "'smcp' Lowercase to Small Capitals lookup 35 subtable" dcaron.sc
Substitution2: "'aalt' Access All Alternates lookup 0 subtable" dcaron.sc
EndChar

StartChar: dcroat
Encoding: 273 273 211
Width: 530
GlyphClass: 2
Flags: W
AnchorPoint: "Anchor-3" 265 273 basechar 0
AnchorPoint: "Anchor-2" 510 761 basechar 0
AnchorPoint: "Anchor-1" 265 761 basechar 0
AnchorPoint: "Anchor-0" 265 0 basechar 0
LayerCount: 2
Fore
SplineSet
205 -10 m 0,0,1
 144 -10 144 -10 106 26 c 128,-1,2
 68 62 68 62 50.5 124.5 c 128,-1,3
 33 187 33 187 33 266 c 0,4,5
 33 348 33 348 52 411.5 c 128,-1,6
 71 475 71 475 110.5 510.5 c 128,-1,7
 150 546 150 546 213 546 c 0,8,9
 307 546 307 546 357 466 c 1,10,-1
 361 466 l 1,11,12
 355 492 355 492 352.5 520.5 c 128,-1,13
 350 549 350 549 350 576 c 2,14,-1
 350 589 l 1,15,-1
 232 589 l 1,16,-1
 232 679 l 1,17,-1
 350 679 l 1,18,-1
 350 761 l 1,19,-1
 482 761 l 1,20,-1
 482 679 l 1,21,-1
 530 679 l 1,22,-1
 530 589 l 1,23,-1
 482 589 l 1,24,-1
 482 0 l 1,25,-1
 385 0 l 1,26,-1
 355 71 l 1,27,-1
 349 71 l 1,28,29
 294 -10 294 -10 205 -10 c 0,0,1
268 108 m 0,30,31
 318 108 318 108 340 144 c 128,-1,32
 362 180 362 180 362 245 c 2,33,-1
 362 265 l 2,34,35
 362 338 362 338 343.5 383.5 c 128,-1,36
 325 429 325 429 269 429 c 0,37,38
 218 429 218 429 195 387.5 c 128,-1,39
 172 346 172 346 172 266 c 0,40,41
 172 182 172 182 196 145 c 128,-1,42
 220 108 220 108 268 108 c 0,30,31
EndSplineSet
Validated: 1
Substitution2: "'smcp' Lowercase to Small Capitals lookup 35 subtable" dcroat.sc
Substitution2: "'aalt' Access All Alternates lookup 0 subtable" dcroat.sc
EndChar

StartChar: eogonek
Encoding: 281 281 219
Width: 530
GlyphClass: 2
Flags: W
AnchorPoint: "Anchor-2" 510 546 basechar 0
AnchorPoint: "Anchor-1" 265 546 basechar 0
AnchorPoint: "Anchor-0" 278 -235 basechar 0
LayerCount: 2
Fore
SplineSet
299 -10 m 0,0,1
 173 -10 173 -10 106.5 63.5 c 128,-1,2
 40 137 40 137 40 275 c 0,3,4
 40 407 40 407 101 481.5 c 128,-1,5
 162 556 162 556 274 556 c 0,6,7
 375 556 375 556 433 493.5 c 128,-1,8
 491 431 491 431 491 309 c 2,9,-1
 491 234 l 1,10,-1
 178 234 l 1,11,12
 181 172 181 172 218.5 140 c 128,-1,13
 256 108 256 108 319 108 c 0,14,15
 365 108 365 108 402 119 c 128,-1,16
 439 130 439 130 467 145 c 1,17,-1
 467 28 l 2,18,19
 465 27 465 27 463 26 c 0,20,21
 420 -5 420 -5 401 -35.5 c 128,-1,22
 382 -66 382 -66 382 -100 c 0,23,24
 382 -150 382 -150 425 -150 c 0,25,26
 436 -150 436 -150 445.5 -147.5 c 128,-1,27
 455 -145 455 -145 461 -142 c 1,28,-1
 461 -223 l 1,29,30
 451 -228 451 -228 434.5 -231.5 c 128,-1,31
 418 -235 418 -235 398 -235 c 0,32,33
 341 -235 341 -235 312.5 -204.5 c 128,-1,34
 284 -174 284 -174 284 -125 c 0,35,36
 284 -88 284 -88 298 -59.5 c 128,-1,37
 312 -31 312 -31 333 -9 c 1,38,39
 316 -10 316 -10 299 -10 c 0,0,1
359 331 m 1,40,41
 358 388 358 388 334 416 c 128,-1,42
 310 444 310 444 273 444 c 0,43,44
 234 444 234 444 208 416.5 c 128,-1,45
 182 389 182 389 179 331 c 1,46,-1
 359 331 l 1,40,41
EndSplineSet
Validated: 1048577
Substitution2: "'smcp' Lowercase to Small Capitals lookup 35 subtable" eogonek.sc
Substitution2: "'locl' Localized Forms in Latin lookup 10 subtable" eogonek.loclNAV
Ligature2: "'ccmp' Glyph Composition/Decomposition lookup 6 subtable" e uni0328
AlternateSubs2: "'aalt' Access All Alternates lookup 1 subtable" eogonek.loclNAV eogonek.sc
EndChar

StartChar: uni0123
Encoding: 291 291 229
Width: 530
GlyphClass: 2
Flags: W
AnchorPoint: "Anchor-2" 510 546 basechar 0
AnchorPoint: "Anchor-1" 269 766 basechar 0
AnchorPoint: "Anchor-0" 265 -245 basechar 0
LayerCount: 2
Fore
SplineSet
194 615 m 1,0,1
 205 649 205 649 223.5 690 c 128,-1,2
 242 731 242 731 266 766 c 1,3,-1
 346 766 l 1,4,-1
 346 757 l 1,5,6
 337 722 337 722 328.5 679 c 128,-1,7
 320 636 320 636 317 606 c 1,8,-1
 194 606 l 1,9,-1
 194 615 l 1,0,1
230 -245 m 0,10,11
 190 -245 190 -245 148.5 -238 c 128,-1,12
 107 -231 107 -231 63 -213 c 1,13,-1
 63 -84 l 1,14,15
 110 -105 110 -105 151 -115.5 c 128,-1,16
 192 -126 192 -126 230 -126 c 0,17,18
 344 -126 344 -126 344 -8 c 2,19,-1
 344 5 l 2,20,21
 344 20 344 20 344.5 38 c 128,-1,22
 345 56 345 56 346 69 c 1,23,-1
 342 69 l 1,24,25
 318 28 318 28 286.5 9 c 128,-1,26
 255 -10 255 -10 214 -10 c 0,27,28
 128 -10 128 -10 80.5 64.5 c 128,-1,29
 33 139 33 139 33 272 c 0,30,31
 33 407 33 407 82 481.5 c 128,-1,32
 131 556 131 556 214 556 c 0,33,34
 298 556 298 556 346 475 c 1,35,-1
 350 475 l 1,36,-1
 366 546 l 1,37,-1
 482 546 l 1,38,-1
 482 -1 l 2,39,40
 482 -119 482 -119 422 -182 c 128,-1,41
 362 -245 362 -245 230 -245 c 0,10,11
264 108 m 0,42,43
 304 108 304 108 327.5 142.5 c 128,-1,44
 351 177 351 177 351 252 c 2,45,-1
 351 270 l 2,46,47
 351 359 351 359 330 399 c 128,-1,48
 309 439 309 439 264 439 c 0,49,50
 172 439 172 439 172 273 c 0,51,52
 172 192 172 192 195 150 c 128,-1,53
 218 108 218 108 264 108 c 0,42,43
EndSplineSet
Validated: 1048577
Substitution2: "'smcp' Lowercase to Small Capitals lookup 35 subtable" uni0123.sc
Substitution2: "'aalt' Access All Alternates lookup 0 subtable" uni0123.sc
EndChar

StartChar: Hbar
Encoding: 294 294 232
Width: 530
GlyphClass: 2
Flags: W
AnchorPoint: "Anchor-3" 265 357 basechar 0
AnchorPoint: "Anchor-1" 265 714 basechar 0
AnchorPoint: "Anchor-0" 265 0 basechar 0
LayerCount: 2
Fore
SplineSet
45 0 m 1,0,-1
 45 525 l 1,1,-1
 0 525 l 1,2,-1
 0 616 l 1,3,-1
 45 616 l 1,4,-1
 45 714 l 1,5,-1
 178 714 l 1,6,-1
 178 616 l 1,7,-1
 352 616 l 1,8,-1
 352 714 l 1,9,-1
 485 714 l 1,10,-1
 485 616 l 1,11,-1
 530 616 l 1,12,-1
 530 525 l 1,13,-1
 485 525 l 1,14,-1
 485 0 l 1,15,-1
 352 0 l 1,16,-1
 352 308 l 1,17,-1
 178 308 l 1,18,-1
 178 0 l 1,19,-1
 45 0 l 1,0,-1
178 432 m 1,20,-1
 352 432 l 1,21,-1
 352 525 l 1,22,-1
 178 525 l 1,23,-1
 178 432 l 1,20,-1
EndSplineSet
Validated: 1048577
Substitution2: "'c2sc' Capitals to Small Capitals lookup 34 subtable" hbar.sc
Substitution2: "'aalt' Access All Alternates lookup 0 subtable" hbar.sc
EndChar

StartChar: hbar
Encoding: 295 295 233
Width: 530
GlyphClass: 2
Flags: W
AnchorPoint: "Anchor-3" 265 273 basechar 0
AnchorPoint: "Anchor-1" 117 760 basechar 0
AnchorPoint: "Anchor-0" 265 0 basechar 0
LayerCount: 2
Fore
SplineSet
48 0 m 1,0,-1
 48 589 l 1,1,-1
 0 589 l 1,2,-1
 0 679 l 1,3,-1
 48 679 l 1,4,-1
 48 760 l 1,5,-1
 181 760 l 1,6,-1
 181 679 l 1,7,-1
 301 679 l 1,8,-1
 301 589 l 1,9,-1
 181 589 l 1,10,-1
 181 587 l 2,11,12
 181 557 181 557 179.5 526.5 c 128,-1,13
 178 496 178 496 175 465 c 1,14,-1
 183 465 l 1,15,16
 225 546 225 546 326 546 c 0,17,18
 406 546 406 546 446.5 495 c 128,-1,19
 487 444 487 444 487 345 c 2,20,-1
 487 0 l 1,21,-1
 354 0 l 1,22,-1
 354 312 l 2,23,24
 354 371 354 371 337 400 c 128,-1,25
 320 429 320 429 277 429 c 0,26,27
 222 429 222 429 201.5 383.5 c 128,-1,28
 181 338 181 338 181 248 c 2,29,-1
 181 0 l 1,30,-1
 48 0 l 1,0,-1
EndSplineSet
Validated: 1048577
Substitution2: "'smcp' Lowercase to Small Capitals lookup 35 subtable" hbar.sc
Substitution2: "'aalt' Access All Alternates lookup 0 subtable" hbar.sc
EndChar

StartChar: IJ
Encoding: 306 306 243
Width: 530
GlyphClass: 2
Flags: W
AnchorPoint: "Anchor-1" 265 714 basechar 0
AnchorPoint: "Anchor-0" 265 0 basechar 0
LayerCount: 2
Fore
SplineSet
219 -10 m 0,0,1
 185 -10 185 -10 147.5 -5 c 128,-1,2
 110 0 110 0 71 12 c 1,3,-1
 71 134 l 1,4,5
 110 121 110 121 142 115.5 c 128,-1,6
 174 110 174 110 203 110 c 0,7,8
 276 110 276 110 302 144.5 c 128,-1,9
 328 179 328 179 328 253 c 2,10,-1
 328 714 l 1,11,-1
 459 714 l 1,12,-1
 459 235 l 2,13,14
 459 118 459 118 401 54 c 128,-1,15
 343 -10 343 -10 219 -10 c 0,0,1
71 209 m 1,16,-1
 71 714 l 1,17,-1
 199 714 l 1,18,-1
 199 209 l 1,19,-1
 71 209 l 1,16,-1
EndSplineSet
Validated: 1048577
Substitution2: "'c2sc' Capitals to Small Capitals lookup 34 subtable" ij.sc
Substitution2: "'aalt' Access All Alternates lookup 0 subtable" ij.sc
EndChar

StartChar: ij
Encoding: 307 307 244
Width: 530
GlyphClass: 2
Flags: W
AnchorPoint: "Anchor-1" 269 773 basechar 0
AnchorPoint: "Anchor-0" 278 -245 basechar 0
LayerCount: 2
Fore
SplineSet
149 614 m 0,0,1
 111 614 111 614 89.5 634 c 128,-1,2
 68 654 68 654 68 693 c 0,3,4
 68 773 68 773 150 773 c 0,5,6
 231 773 231 773 231 694 c 0,7,8
 231 656 231 656 211.5 635 c 128,-1,9
 192 614 192 614 149 614 c 0,0,1
380 614 m 0,10,11
 342 614 342 614 320.5 634 c 128,-1,12
 299 654 299 654 299 693 c 0,13,14
 299 773 299 773 381 773 c 0,15,16
 462 773 462 773 462 694 c 0,17,18
 462 656 462 656 442.5 635 c 128,-1,19
 423 614 423 614 380 614 c 0,10,11
242 -245 m 0,20,21
 210 -245 210 -245 174.5 -239.5 c 128,-1,22
 139 -234 139 -234 105 -224 c 1,23,-1
 105 -108 l 1,24,25
 135 -117 135 -117 165.5 -121.5 c 128,-1,26
 196 -126 196 -126 217 -126 c 0,27,28
 268 -126 268 -126 293 -101 c 128,-1,29
 318 -76 318 -76 318 -15 c 2,30,-1
 318 546 l 1,31,-1
 451 546 l 1,32,-1
 451 -36 l 2,33,34
 451 -143 451 -143 401.5 -194 c 128,-1,35
 352 -245 352 -245 242 -245 c 0,20,21
81 0 m 1,36,-1
 81 546 l 1,37,-1
 214 546 l 1,38,-1
 214 0 l 1,39,-1
 81 0 l 1,36,-1
EndSplineSet
Validated: 1048577
Substitution2: "'smcp' Lowercase to Small Capitals lookup 35 subtable" ij.sc
Substitution2: "'aalt' Access All Alternates lookup 0 subtable" ij.sc
EndChar

StartChar: kgreenlandic
Encoding: 312 312 249
Width: 530
GlyphClass: 2
Flags: W
AnchorPoint: "Anchor-1" 265 546 basechar 0
AnchorPoint: "Anchor-0" 265 0 basechar 0
LayerCount: 2
Fore
SplineSet
50 0 m 1,0,-1
 50 546 l 1,1,-1
 184 546 l 1,2,-1
 184 421 l 2,3,4
 184 389 184 389 182 359.5 c 128,-1,5
 180 330 180 330 176 299 c 1,6,-1
 179 299 l 1,7,8
 192 318 192 318 206.5 338 c 128,-1,9
 221 358 221 358 238 382 c 2,10,-1
 354 546 l 1,11,-1
 510 546 l 1,12,-1
 348 325 l 1,13,-1
 519 0 l 1,14,-1
 368 0 l 1,15,-1
 252 229 l 1,16,-1
 184 162 l 1,17,-1
 184 0 l 1,18,-1
 50 0 l 1,0,-1
EndSplineSet
Validated: 1048577
EndChar

StartChar: Lcaron
Encoding: 317 317 254
Width: 530
GlyphClass: 2
Flags: W
AnchorPoint: "Anchor-3" 265 357 basechar 0
AnchorPoint: "Anchor-2" 395 714 basechar 0
AnchorPoint: "Anchor-1" 136 714 basechar 0
AnchorPoint: "Anchor-0" 265 0 basechar 0
LayerCount: 2
Fore
SplineSet
335 564 m 1,0,1
 339 579 339 579 344 607.5 c 128,-1,2
 349 636 349 636 353 665.5 c 128,-1,3
 357 695 357 695 358 714 c 1,4,-1
 482 714 l 1,5,-1
 482 705 l 1,6,7
 472 671 472 671 453.5 629 c 128,-1,8
 435 587 435 587 415 554 c 1,9,-1
 335 554 l 1,10,-1
 335 564 l 1,0,1
73 0 m 1,11,-1
 73 714 l 1,12,-1
 206 714 l 1,13,-1
 206 120 l 1,14,-1
 474 120 l 1,15,-1
 474 0 l 1,16,-1
 73 0 l 1,11,-1
EndSplineSet
Validated: 1
Substitution2: "'c2sc' Capitals to Small Capitals lookup 34 subtable" lcaron.sc
Substitution2: "'aalt' Access All Alternates lookup 0 subtable" lcaron.sc
EndChar

StartChar: lcaron
Encoding: 318 318 255
Width: 530
GlyphClass: 2
Flags: W
AnchorPoint: "Anchor-3" 275 372 basechar 0
AnchorPoint: "Anchor-2" 448 760 basechar 0
AnchorPoint: "Anchor-1" 265 760 basechar 0
AnchorPoint: "Anchor-0" 265 0 basechar 0
LayerCount: 2
Fore
SplineSet
370 610 m 2,0,1
 373 625 373 625 378 653.5 c 128,-1,2
 383 682 383 682 387.5 711.5 c 128,-1,3
 392 741 392 741 393 760 c 1,4,-1
 517 760 l 1,5,-1
 517 751 l 1,6,7
 506 717 506 717 487.5 675 c 128,-1,8
 469 633 469 633 449 600 c 1,9,-1
 370 600 l 1,10,-1
 370 610 l 2,0,1
57 0 m 1,11,-1
 57 94 l 1,12,-1
 206 111 l 1,13,-1
 206 650 l 1,14,-1
 86 666 l 1,15,-1
 86 760 l 1,16,-1
 340 760 l 1,17,-1
 340 111 l 1,18,-1
 477 94 l 1,19,-1
 477 0 l 1,20,-1
 57 0 l 1,11,-1
EndSplineSet
Validated: 1
Substitution2: "'smcp' Lowercase to Small Capitals lookup 35 subtable" lcaron.sc
Substitution2: "'aalt' Access All Alternates lookup 0 subtable" lcaron.sc
EndChar

StartChar: Lslash
Encoding: 321 321 258
Width: 530
GlyphClass: 2
Flags: W
AnchorPoint: "Anchor-3" 298 357 basechar 0
AnchorPoint: "Anchor-2" 428 714 basechar 0
AnchorPoint: "Anchor-1" 176 714 basechar 0
AnchorPoint: "Anchor-0" 315 0 basechar 0
LayerCount: 2
Fore
SplineSet
106 0 m 1,0,-1
 106 241 l 1,1,-1
 65 213 l 1,2,-1
 7 297 l 1,3,-1
 106 365 l 1,4,-1
 106 714 l 1,5,-1
 239 714 l 1,6,-1
 239 457 l 1,7,-1
 319 512 l 1,8,-1
 376 430 l 1,9,-1
 239 334 l 1,10,-1
 239 120 l 1,11,-1
 507 120 l 1,12,-1
 507 0 l 1,13,-1
 106 0 l 1,0,-1
EndSplineSet
Validated: 1
Substitution2: "'c2sc' Capitals to Small Capitals lookup 34 subtable" lslash.sc
Substitution2: "'aalt' Access All Alternates lookup 0 subtable" lslash.sc
EndChar

StartChar: lslash
Encoding: 322 322 259
Width: 530
GlyphClass: 2
Flags: W
AnchorPoint: "Anchor-3" 275 372 basechar 0
AnchorPoint: "Anchor-2" 448 760 basechar 0
AnchorPoint: "Anchor-1" 265 760 basechar 0
AnchorPoint: "Anchor-0" 265 0 basechar 0
LayerCount: 2
Fore
SplineSet
57 0 m 1,0,-1
 57 94 l 1,1,-1
 206 111 l 1,2,-1
 206 260 l 1,3,-1
 151 220 l 1,4,-1
 93 302 l 1,5,-1
 206 383 l 1,6,-1
 206 650 l 1,7,-1
 86 666 l 1,8,-1
 86 760 l 1,9,-1
 340 760 l 1,10,-1
 340 479 l 1,11,-1
 385 511 l 1,12,-1
 444 431 l 1,13,-1
 340 356 l 1,14,-1
 340 111 l 1,15,-1
 477 94 l 1,16,-1
 477 0 l 1,17,-1
 57 0 l 1,0,-1
EndSplineSet
Validated: 1
Substitution2: "'smcp' Lowercase to Small Capitals lookup 35 subtable" lslash.sc
Substitution2: "'aalt' Access All Alternates lookup 0 subtable" lslash.sc
EndChar

StartChar: napostrophe
Encoding: 329 329 266
Width: 530
GlyphClass: 2
Flags: W
AnchorPoint: "Anchor-1" 283 546 basechar 0
AnchorPoint: "Anchor-0" 277 0 basechar 0
LayerCount: 2
Fore
SplineSet
-113 454 m 1,0,1
 -103 495 -103 495 -94 542.5 c 128,-1,2
 -85 590 -85 590 -78.5 635 c 128,-1,3
 -72 680 -72 680 -69 714 c 1,4,-1
 57 714 l 1,5,-1
 64 703 l 1,6,7
 38 573 38 573 -11 454 c 1,8,-1
 -113 454 l 1,0,1
58 0 m 1,9,-1
 58 546 l 1,10,-1
 163 546 l 1,11,-1
 184 475 l 1,12,-1
 192 475 l 1,13,14
 215 518 215 518 249.5 537 c 128,-1,15
 284 556 284 556 329 556 c 0,16,17
 407 556 407 556 447 505 c 128,-1,18
 487 454 487 454 487 355 c 2,19,-1
 487 0 l 1,20,-1
 354 0 l 1,21,-1
 354 322 l 2,22,23
 354 439 354 439 282 439 c 0,24,25
 232 439 232 439 211.5 390.5 c 128,-1,26
 191 342 191 342 191 258 c 2,27,-1
 191 0 l 1,28,-1
 58 0 l 1,9,-1
EndSplineSet
Validated: 1048577
EndChar

StartChar: Eng
Encoding: 330 330 267
Width: 530
GlyphClass: 2
Flags: W
AnchorPoint: "Anchor-2" 530 714 basechar 0
AnchorPoint: "Anchor-1" 270 714 basechar 0
AnchorPoint: "Anchor-0" 270 -209 basechar 0
LayerCount: 2
Fore
SplineSet
38 0 m 1,0,-1
 38 714 l 1,1,-1
 234 714 l 1,2,-1
 375 136 l 1,3,-1
 381 136 l 1,4,5
 378 164 378 164 375.5 201 c 128,-1,6
 373 238 373 238 370.5 276.5 c 128,-1,7
 368 315 368 315 366 349.5 c 128,-1,8
 364 384 364 384 364 406 c 2,9,-1
 364 714 l 1,10,-1
 492 714 l 1,11,-1
 492 -5 l 2,12,13
 492 -99 492 -99 445 -154 c 128,-1,14
 398 -209 398 -209 307 -209 c 0,15,16
 261 -209 261 -209 228 -198 c 1,17,-1
 228 -93 l 1,18,19
 241 -97 241 -97 257 -100 c 128,-1,20
 273 -103 273 -103 291 -103 c 0,21,22
 375 -103 375 -103 375 0 c 1,23,-1
 301 0 l 1,24,-1
 158 582 l 1,25,-1
 152 582 l 1,26,27
 155 542 155 542 158 498.5 c 128,-1,28
 161 455 161 455 162.5 416.5 c 128,-1,29
 164 378 164 378 164 354 c 2,30,-1
 164 0 l 1,31,-1
 38 0 l 1,0,-1
EndSplineSet
Validated: 1048577
Substitution2: "'c2sc' Capitals to Small Capitals lookup 34 subtable" eng.sc
AlternateSubs2: "'aalt' Access All Alternates lookup 1 subtable" Eng.alt1 Eng.alt2 Eng.alt3 eng.sc
EndChar

StartChar: eng
Encoding: 331 331 268
Width: 530
GlyphClass: 2
Flags: W
AnchorPoint: "Anchor-2" 510 546 basechar 0
AnchorPoint: "Anchor-1" 273 546 basechar 0
AnchorPoint: "Anchor-0" 267 -240 basechar 0
LayerCount: 2
Fore
SplineSet
48 0 m 1,0,-1
 48 546 l 1,1,-1
 153 546 l 1,2,-1
 174 481 l 1,3,-1
 180 481 l 1,4,5
 201 516 201 516 235.5 536 c 128,-1,6
 270 556 270 556 324 556 c 0,7,8
 487 556 487 556 487 367 c 2,9,-1
 487 -62 l 2,10,11
 487 -112 487 -112 470 -152.5 c 128,-1,12
 453 -193 453 -193 417 -216.5 c 128,-1,13
 381 -240 381 -240 324 -240 c 0,14,15
 306 -240 306 -240 284.5 -237 c 128,-1,16
 263 -234 263 -234 246 -229 c 1,17,-1
 246 -122 l 1,18,19
 274 -131 274 -131 297 -131 c 0,20,21
 324 -131 324 -131 339 -113 c 128,-1,22
 354 -95 354 -95 354 -52 c 2,23,-1
 354 330 l 2,24,25
 354 388 354 388 335 415 c 128,-1,26
 316 442 316 442 276 442 c 0,27,28
 224 442 224 442 202.5 401 c 128,-1,29
 181 360 181 360 181 279 c 2,30,-1
 181 0 l 1,31,-1
 48 0 l 1,0,-1
EndSplineSet
Validated: 1048577
Substitution2: "'smcp' Lowercase to Small Capitals lookup 35 subtable" eng.sc
Substitution2: "'aalt' Access All Alternates lookup 0 subtable" eng.sc
EndChar

StartChar: OE
Encoding: 338 338 275
Width: 530
GlyphClass: 2
Flags: W
AnchorPoint: "Anchor-1" 265 714 basechar 0
AnchorPoint: "Anchor-0" 265 0 basechar 0
LayerCount: 2
Fore
SplineSet
216 -10 m 0,0,1
 144 -10 144 -10 101.5 35.5 c 128,-1,2
 59 81 59 81 41 163.5 c 128,-1,3
 23 246 23 246 23 359 c 0,4,5
 23 471 23 471 41.5 553 c 128,-1,6
 60 635 60 635 102.5 680 c 128,-1,7
 145 725 145 725 218 725 c 0,8,9
 227 725 227 725 245.5 723.5 c 128,-1,10
 264 722 264 722 285 714 c 1,11,-1
 510 714 l 1,12,-1
 510 594 l 1,13,-1
 392 594 l 1,14,-1
 392 432 l 1,15,-1
 495 432 l 1,16,-1
 495 312 l 1,17,-1
 392 312 l 1,18,-1
 392 121 l 1,19,-1
 510 121 l 1,20,-1
 510 0 l 1,21,-1
 285 0 l 1,22,23
 267 -5 267 -5 249 -7.5 c 128,-1,24
 231 -10 231 -10 216 -10 c 0,0,1
233 113 m 0,25,26
 243 113 243 113 253 116.5 c 128,-1,27
 263 120 263 120 269 124 c 1,28,-1
 269 591 l 1,29,30
 263 598 263 598 253.5 600 c 128,-1,31
 244 602 244 602 235 602 c 0,32,33
 193 602 193 602 172 536.5 c 128,-1,34
 151 471 151 471 151 358 c 0,35,36
 151 241 151 241 167 177 c 128,-1,37
 183 113 183 113 233 113 c 0,25,26
EndSplineSet
Validated: 1048577
Substitution2: "'c2sc' Capitals to Small Capitals lookup 34 subtable" oe.sc
Substitution2: "'aalt' Access All Alternates lookup 0 subtable" oe.sc
EndChar

StartChar: oe
Encoding: 339 339 276
Width: 530
GlyphClass: 2
Flags: W
AnchorPoint: "Anchor-1" 265 546 basechar 0
AnchorPoint: "Anchor-0" 265 0 basechar 0
LayerCount: 2
Fore
SplineSet
171 -10 m 0,0,1
 89 -10 89 -10 52.5 67 c 128,-1,2
 16 144 16 144 16 277 c 0,3,4
 16 359 16 359 30.5 422 c 128,-1,5
 45 485 45 485 77.5 520.5 c 128,-1,6
 110 556 110 556 163 556 c 0,7,8
 238 556 238 556 277 479 c 1,9,10
 298 516 298 516 322 535.5 c 128,-1,11
 346 555 346 555 383 555 c 0,12,13
 430 555 430 555 460 524 c 128,-1,14
 490 493 490 493 505 437 c 128,-1,15
 520 381 520 381 520 308 c 2,16,-1
 520 240 l 1,17,-1
 336 240 l 1,18,19
 337 161 337 161 361 129.5 c 128,-1,20
 385 98 385 98 423 98 c 0,21,22
 442 98 442 98 464.5 107 c 128,-1,23
 487 116 487 116 508 138 c 1,24,-1
 508 28 l 1,25,26
 459 -10 459 -10 399 -10 c 0,27,28
 361 -10 361 -10 331.5 8 c 128,-1,29
 302 26 302 26 281 66 c 1,30,31
 259 27 259 27 234 8.5 c 128,-1,32
 209 -10 209 -10 171 -10 c 0,0,1
413 331 m 1,33,34
 412 394 412 394 403.5 421 c 128,-1,35
 395 448 395 448 375 448 c 0,36,37
 354 448 354 448 344.5 419.5 c 128,-1,38
 335 391 335 391 334 331 c 1,39,-1
 413 331 l 1,33,34
177 99 m 0,40,41
 202 99 202 99 211.5 138 c 128,-1,42
 221 177 221 177 221 268 c 0,43,44
 221 361 221 361 211 403.5 c 128,-1,45
 201 446 201 446 175 446 c 256,46,47
 149 446 149 446 138.5 405.5 c 128,-1,48
 128 365 128 365 128 273 c 256,49,50
 128 181 128 181 138.5 140 c 128,-1,51
 149 99 149 99 177 99 c 0,40,41
EndSplineSet
Validated: 1048577
Substitution2: "'smcp' Lowercase to Small Capitals lookup 35 subtable" oe.sc
Substitution2: "'aalt' Access All Alternates lookup 0 subtable" oe.sc
EndChar

StartChar: tcaron
Encoding: 357 357 294
Width: 530
GlyphClass: 2
Flags: W
AnchorPoint: "Anchor-3" 222 279 basechar 0
AnchorPoint: "Anchor-2" 418 860 basechar 0
AnchorPoint: "Anchor-1" 265 763 basechar 0
AnchorPoint: "Anchor-0" 265 0 basechar 0
LayerCount: 2
Fore
SplineSet
369 613 m 1,0,1
 373 628 373 628 378 656.5 c 128,-1,2
 383 685 383 685 387 714.5 c 128,-1,3
 391 744 391 744 392 763 c 1,4,-1
 516 763 l 1,5,-1
 516 755 l 1,6,7
 506 720 506 720 487.5 678 c 128,-1,8
 469 636 469 636 449 603 c 1,9,-1
 369 603 l 1,10,-1
 369 613 l 1,0,1
339 -10 m 0,11,12
 239 -10 239 -10 194.5 37.5 c 128,-1,13
 150 85 150 85 150 184 c 2,14,-1
 150 430 l 1,15,-1
 37 430 l 1,16,-1
 37 505 l 1,17,-1
 163 546 l 1,18,-1
 197 682 l 1,19,-1
 286 682 l 1,20,-1
 286 546 l 1,21,-1
 482 546 l 1,22,-1
 482 430 l 1,23,-1
 283 430 l 1,24,-1
 283 195 l 2,25,26
 283 145 283 145 305.5 127.5 c 128,-1,27
 328 110 328 110 370 110 c 0,28,29
 416 110 416 110 485 128 c 1,30,-1
 485 13 l 1,31,32
 413 -10 413 -10 339 -10 c 0,11,12
EndSplineSet
Validated: 1
Substitution2: "'smcp' Lowercase to Small Capitals lookup 35 subtable" tcaron.sc
Substitution2: "'aalt' Access All Alternates lookup 0 subtable" tcaron.sc
EndChar

StartChar: Tbar
Encoding: 358 358 295
Width: 530
GlyphClass: 2
Flags: W
AnchorPoint: "Anchor-3" 265 357 basechar 0
AnchorPoint: "Anchor-2" 510 714 basechar 0
AnchorPoint: "Anchor-1" 265 714 basechar 0
AnchorPoint: "Anchor-0" 265 0 basechar 0
LayerCount: 2
Fore
SplineSet
198 0 m 1,0,-1
 198 301 l 1,1,-1
 98 301 l 1,2,-1
 98 405 l 1,3,-1
 198 405 l 1,4,-1
 198 593 l 1,5,-1
 27 593 l 1,6,-1
 27 714 l 1,7,-1
 504 714 l 1,8,-1
 504 593 l 1,9,-1
 331 593 l 1,10,-1
 331 405 l 1,11,-1
 432 405 l 1,12,-1
 432 301 l 1,13,-1
 331 301 l 1,14,-1
 331 0 l 1,15,-1
 198 0 l 1,0,-1
EndSplineSet
Validated: 1
Substitution2: "'c2sc' Capitals to Small Capitals lookup 34 subtable" tbar.sc
Substitution2: "'aalt' Access All Alternates lookup 0 subtable" tbar.sc
EndChar

StartChar: tbar
Encoding: 359 359 296
Width: 530
GlyphClass: 2
Flags: W
AnchorPoint: "Anchor-3" 222 279 basechar 0
AnchorPoint: "Anchor-2" 418 860 basechar 0
AnchorPoint: "Anchor-1" 241 682 basechar 0
AnchorPoint: "Anchor-0" 297 0 basechar 0
LayerCount: 2
Fore
SplineSet
37 246 m 1,0,-1
 37 336 l 1,1,-1
 150 336 l 1,2,-1
 150 430 l 1,3,-1
 37 430 l 1,4,-1
 37 505 l 1,5,-1
 163 546 l 1,6,-1
 197 682 l 1,7,-1
 286 682 l 1,8,-1
 286 546 l 1,9,-1
 482 546 l 1,10,-1
 482 430 l 1,11,-1
 283 430 l 1,12,-1
 283 336 l 1,13,-1
 485 336 l 1,14,-1
 485 246 l 1,15,-1
 283 246 l 1,16,-1
 283 195 l 2,17,18
 283 145 283 145 305.5 127.5 c 128,-1,19
 328 110 328 110 370 110 c 0,20,21
 416 110 416 110 485 128 c 1,22,-1
 485 13 l 1,23,24
 413 -10 413 -10 339 -10 c 0,25,26
 239 -10 239 -10 194.5 37.5 c 128,-1,27
 150 85 150 85 150 184 c 2,28,-1
 150 246 l 1,29,-1
 37 246 l 1,0,-1
EndSplineSet
Validated: 1
Substitution2: "'smcp' Lowercase to Small Capitals lookup 35 subtable" tbar.sc
Substitution2: "'aalt' Access All Alternates lookup 0 subtable" tbar.sc
EndChar

StartChar: Uogonek
Encoding: 370 370 307
Width: 530
GlyphClass: 2
Flags: W
AnchorPoint: "Anchor-2" 510 714 basechar 0
AnchorPoint: "Anchor-1" 265 714 basechar 0
AnchorPoint: "Anchor-0" 299 -235 basechar 0
LayerCount: 2
Fore
SplineSet
301 -235 m 0,0,1
 244 -235 244 -235 215.5 -207 c 128,-1,2
 187 -179 187 -179 187 -128 c 0,3,4
 187 -92 187 -92 204 -63 c 128,-1,5
 221 -34 221 -34 252 -10 c 1,6,7
 148 -7 148 -7 93 52.5 c 128,-1,8
 38 112 38 112 38 221 c 2,9,-1
 38 714 l 1,10,-1
 171 714 l 1,11,-1
 171 243 l 2,12,13
 171 171 171 171 194 140.5 c 128,-1,14
 217 110 217 110 264 110 c 0,15,16
 314 110 314 110 336.5 141 c 128,-1,17
 359 172 359 172 359 244 c 2,18,-1
 359 714 l 1,19,-1
 492 714 l 1,20,-1
 492 216 l 2,21,22
 492 142 492 142 463 89 c 128,-1,23
 434 36 434 36 376 11 c 1,24,25
 326 -17 326 -17 305.5 -45 c 128,-1,26
 285 -73 285 -73 285 -103 c 0,27,28
 285 -150 285 -150 328 -150 c 0,29,30
 339 -150 339 -150 348.5 -147.5 c 128,-1,31
 358 -145 358 -145 364 -142 c 1,32,-1
 364 -223 l 1,33,34
 354 -228 354 -228 337.5 -231.5 c 128,-1,35
 321 -235 321 -235 301 -235 c 0,0,1
EndSplineSet
Validated: 1048577
Substitution2: "'c2sc' Capitals to Small Capitals lookup 34 subtable" uogonek.sc
Substitution2: "'locl' Localized Forms in Latin lookup 10 subtable" Uogonek.loclNAV
Ligature2: "'ccmp' Glyph Composition/Decomposition lookup 6 subtable" U uni0328
AlternateSubs2: "'aalt' Access All Alternates lookup 1 subtable" Uogonek.loclNAV uogonek.sc
EndChar

StartChar: longs
Encoding: 383 383 320
Width: 530
GlyphClass: 2
Flags: W
AnchorPoint: "Anchor-1" 340 765 basechar 0
AnchorPoint: "Anchor-0" 265 0 basechar 0
LayerCount: 2
Fore
SplineSet
180 571 m 2,0,1
 180 674 180 674 224 719.5 c 128,-1,2
 268 765 268 765 361 765 c 0,3,4
 394 765 394 765 421 759.5 c 128,-1,5
 448 754 448 754 477 743 c 1,6,-1
 449 640 l 1,7,8
 433 645 433 645 416.5 648 c 128,-1,9
 400 651 400 651 383 651 c 0,10,11
 345 651 345 651 329 631.5 c 128,-1,12
 313 612 313 612 313 568 c 2,13,-1
 313 0 l 1,14,-1
 180 0 l 1,15,-1
 180 571 l 2,0,1
EndSplineSet
Validated: 1048577
EndChar

StartChar: florin
Encoding: 402 402 321
Width: 530
GlyphClass: 2
Flags: W
AnchorPoint: "Anchor-2" 530 765 basechar 0
AnchorPoint: "Anchor-1" 351 764 basechar 0
AnchorPoint: "Anchor-0" 184 0 basechar 0
LayerCount: 2
Fore
SplineSet
174 -244 m 0,0,1
 96 -244 96 -244 54 -205 c 128,-1,2
 12 -166 12 -166 12 -102 c 0,3,4
 12 -82 12 -82 16.5 -64.5 c 128,-1,5
 21 -47 21 -47 27 -34 c 1,6,-1
 144 -64 l 1,7,8
 141 -72 141 -72 139.5 -79.5 c 128,-1,9
 138 -87 138 -87 138 -96 c 0,10,11
 138 -113 138 -113 148 -123.5 c 128,-1,12
 158 -134 158 -134 174 -134 c 0,13,14
 213 -134 213 -134 213 -80 c 2,15,-1
 213 430 l 1,16,-1
 95 430 l 1,17,-1
 95 511 l 1,18,-1
 213 546 l 1,19,-1
 213 582 l 2,20,21
 213 677 213 677 252 721 c 128,-1,22
 291 765 291 765 382 765 c 0,23,24
 418 765 418 765 451 759 c 128,-1,25
 484 753 484 753 517 742 c 1,26,-1
 479 630 l 1,27,28
 459 638 459 638 440 641.5 c 128,-1,29
 421 645 421 645 408 645 c 0,30,31
 375 645 375 645 361 626 c 128,-1,32
 347 607 347 607 347 571 c 2,33,-1
 347 546 l 1,34,-1
 482 546 l 1,35,-1
 482 430 l 1,36,-1
 347 430 l 1,37,-1
 347 -78 l 2,38,39
 347 -161 347 -161 301 -202.5 c 128,-1,40
 255 -244 255 -244 174 -244 c 0,0,1
EndSplineSet
Validated: 1048577
Substitution2: "'ss03' Style Set 3 lookup 38 subtable" florin.ss03
EndChar

StartChar: circumflex
Encoding: 710 710 330
Width: 530
Flags: W
LayerCount: 2
Fore
SplineSet
105 619 m 1,0,1
 122 639 122 639 141 665.5 c 128,-1,2
 160 692 160 692 177.5 719 c 128,-1,3
 195 746 195 746 205 766 c 1,4,-1
 327 766 l 1,5,6
 344 733 344 733 371 693.5 c 128,-1,7
 398 654 398 654 426 619 c 1,8,-1
 426 606 l 1,9,-1
 348 606 l 1,10,11
 310 638 310 638 265 689 c 1,12,13
 243 664 243 664 222 642 c 128,-1,14
 201 620 201 620 184 606 c 1,15,-1
 105 606 l 1,16,-1
 105 619 l 1,0,1
EndSplineSet
Validated: 1
EndChar

StartChar: caron
Encoding: 711 711 331
Width: 530
GlyphClass: 2
Flags: W
AnchorPoint: "Anchor-1" 264 763 basechar 0
LayerCount: 2
Fore
SplineSet
204 606 m 1,0,1
 193 626 193 626 175.5 653 c 128,-1,2
 158 680 158 680 139 707 c 128,-1,3
 120 734 120 734 104 753 c 1,4,-1
 104 766 l 1,5,-1
 183 766 l 1,6,7
 201 750 201 750 222 729 c 128,-1,8
 243 708 243 708 264 683 c 1,9,10
 287 710 287 710 307 729 c 128,-1,11
 327 748 327 748 347 766 c 1,12,-1
 425 766 l 1,13,-1
 425 753 l 1,14,15
 410 734 410 734 391 708 c 128,-1,16
 372 682 372 682 354.5 655 c 128,-1,17
 337 628 337 628 326 606 c 1,18,-1
 204 606 l 1,0,1
EndSplineSet
Validated: 1048577
EndChar

StartChar: breve
Encoding: 728 728 333
Width: 530
GlyphClass: 2
Flags: W
AnchorPoint: "Anchor-1" 266 765 basechar 0
LayerCount: 2
Fore
SplineSet
265 610 m 0,0,1
 199 610 199 610 157.5 649.5 c 128,-1,2
 116 689 116 689 115 766 c 1,3,-1
 194 766 l 1,4,5
 197 729 197 729 215.5 712.5 c 128,-1,6
 234 696 234 696 266 696 c 0,7,8
 296 696 296 696 316 712 c 128,-1,9
 336 728 336 728 338 766 c 1,10,-1
 418 766 l 1,11,12
 417 694 417 694 374.5 652 c 128,-1,13
 332 610 332 610 265 610 c 0,0,1
EndSplineSet
Validated: 1048577
EndChar

StartChar: dotaccent
Encoding: 729 729 334
Width: 530
Flags: W
LayerCount: 2
Fore
SplineSet
264 614 m 0,0,1
 226 614 226 614 204.5 634 c 128,-1,2
 183 654 183 654 183 693 c 0,3,4
 183 773 183 773 265 773 c 0,5,6
 346 773 346 773 346 694 c 0,7,8
 346 656 346 656 326.5 635 c 128,-1,9
 307 614 307 614 264 614 c 0,0,1
EndSplineSet
Validated: 1
EndChar

StartChar: ring
Encoding: 730 730 335
Width: 530
Flags: W
LayerCount: 2
Fore
SplineSet
265 607 m 0,0,1
 212 607 212 607 180.5 638 c 128,-1,2
 149 669 149 669 149 720 c 0,3,4
 149 770 149 770 180.5 801.5 c 128,-1,5
 212 833 212 833 265 833 c 0,6,7
 315 833 315 833 348 801 c 128,-1,8
 381 769 381 769 381 720 c 0,9,10
 381 670 381 670 349 638.5 c 128,-1,11
 317 607 317 607 265 607 c 0,0,1
265 674 m 0,12,13
 285 674 285 674 298.5 686.5 c 128,-1,14
 312 699 312 699 312 720 c 0,15,16
 312 740 312 740 299 753 c 128,-1,17
 286 766 286 766 265 766 c 0,18,19
 245 766 245 766 231.5 753 c 128,-1,20
 218 740 218 740 218 720 c 0,21,22
 218 699 218 699 230.5 686.5 c 128,-1,23
 243 674 243 674 265 674 c 0,12,13
EndSplineSet
Validated: 1
EndChar

StartChar: ogonek
Encoding: 731 731 336
Width: 530
Flags: W
LayerCount: 2
Fore
SplineSet
292 -235 m 0,0,1
 235 -235 235 -235 206.5 -207.5 c 128,-1,2
 178 -180 178 -180 178 -132 c 0,3,4
 178 -94 178 -94 201 -55 c 128,-1,5
 224 -16 224 -16 267 15 c 1,6,-1
 333 0 l 1,7,8
 300 -33 300 -33 288 -58 c 128,-1,9
 276 -83 276 -83 276 -103 c 0,10,11
 276 -150 276 -150 318 -150 c 0,12,13
 330 -150 330 -150 339.5 -147.5 c 128,-1,14
 349 -145 349 -145 355 -142 c 1,15,-1
 355 -223 l 1,16,17
 345 -228 345 -228 328.5 -231.5 c 128,-1,18
 312 -235 312 -235 292 -235 c 0,0,1
EndSplineSet
Validated: 1
EndChar

StartChar: tilde
Encoding: 732 732 337
Width: 530
Flags: W
LayerCount: 2
Fore
SplineSet
95 605 m 1,0,1
 97 640 97 640 106 673.5 c 128,-1,2
 115 707 115 707 135 729.5 c 128,-1,3
 155 752 155 752 189 752 c 0,4,5
 216 752 216 752 240.5 739 c 128,-1,6
 265 726 265 726 287.5 713 c 128,-1,7
 310 700 310 700 331 700 c 0,8,9
 348 700 348 700 354.5 713 c 128,-1,10
 361 726 361 726 366 753 c 1,11,-1
 435 753 l 1,12,13
 433 683 433 683 407 644.5 c 128,-1,14
 381 606 381 606 341 606 c 0,15,16
 315 606 315 606 289.5 619 c 128,-1,17
 264 632 264 632 240.5 645 c 128,-1,18
 217 658 217 658 199 658 c 0,19,20
 171 658 171 658 165 605 c 1,21,-1
 95 605 l 1,0,1
EndSplineSet
Validated: 1
EndChar

StartChar: hungarumlaut
Encoding: 733 733 338
Width: 530
Flags: W
LayerCount: 2
Fore
SplineSet
270 619 m 1,0,1
 295 661 295 661 317 702 c 128,-1,2
 339 743 339 743 348 766 c 1,3,-1
 469 766 l 1,4,-1
 469 757 l 1,5,6
 459 737 459 737 436 708.5 c 128,-1,7
 413 680 413 680 385.5 652.5 c 128,-1,8
 358 625 358 625 336 606 c 1,9,-1
 270 606 l 1,10,-1
 270 619 l 1,0,1
105 619 m 1,11,12
 129 662 129 662 150 702.5 c 128,-1,13
 171 743 171 743 182 766 c 1,14,-1
 303 766 l 1,15,-1
 303 757 l 1,16,17
 292 736 292 736 270 709 c 128,-1,18
 248 682 248 682 220 654.5 c 128,-1,19
 192 627 192 627 166 606 c 1,20,-1
 105 606 l 1,21,-1
 105 619 l 1,11,12
EndSplineSet
Validated: 1
EndChar

StartChar: tonos
Encoding: 900 900 339
Width: 530
GlyphClass: 2
Flags: W
AnchorPoint: "Anchor-1" 273 760 basechar 0
LayerCount: 2
Fore
SplineSet
231 620 m 1,0,1
 236 637 236 637 241.5 668.5 c 128,-1,2
 247 700 247 700 251.5 731 c 128,-1,3
 256 762 256 762 258 780 c 1,4,-1
 376 780 l 1,5,-1
 376 768 l 1,6,7
 364 732 364 732 347 689 c 128,-1,8
 330 646 330 646 308 606 c 1,9,-1
 231 606 l 1,10,-1
 231 620 l 1,0,1
EndSplineSet
Validated: 1048577
EndChar

StartChar: dieresistonos
Encoding: 901 901 340
Width: 530
GlyphClass: 2
Flags: W
AnchorPoint: "Anchor-1" 265 821 basechar 0
LayerCount: 2
Fore
SplineSet
222 682 m 1,0,1
 230 717 230 717 236.5 756 c 128,-1,2
 243 795 243 795 245 821 c 1,3,-1
 352 821 l 1,4,-1
 352 813 l 1,5,6
 342 784 342 784 323 746.5 c 128,-1,7
 304 709 304 709 282 672 c 1,8,-1
 222 672 l 1,9,-1
 222 682 l 1,0,1
383 611 m 0,10,11
 358 611 358 611 342.5 627.5 c 128,-1,12
 327 644 327 644 327 675 c 0,13,14
 327 707 327 707 342.5 723.5 c 128,-1,15
 358 740 358 740 383 740 c 0,16,17
 409 740 409 740 425 723 c 128,-1,18
 441 706 441 706 441 674 c 0,19,20
 441 644 441 644 425 627.5 c 128,-1,21
 409 611 409 611 383 611 c 0,10,11
145 609 m 0,22,23
 120 609 120 609 104.5 626 c 128,-1,24
 89 643 89 643 89 674 c 0,25,26
 89 706 89 706 104.5 722 c 128,-1,27
 120 738 120 738 145 738 c 0,28,29
 171 738 171 738 186.5 721.5 c 128,-1,30
 202 705 202 705 202 674 c 256,31,32
 202 643 202 643 186.5 626 c 128,-1,33
 171 609 171 609 145 609 c 0,22,23
EndSplineSet
Validated: 1048577
EndChar

StartChar: Epsilontonos
Encoding: 904 904 343
Width: 530
GlyphClass: 2
Flags: W
AnchorPoint: "Anchor-1" 297 714 basechar 0
AnchorPoint: "Anchor-0" 304 0 basechar 0
LayerCount: 2
Fore
SplineSet
-47 620 m 1,0,1
 -42 637 -42 637 -36.5 668.5 c 128,-1,2
 -31 700 -31 700 -26.5 731 c 128,-1,3
 -22 762 -22 762 -20 780 c 1,4,-1
 98 780 l 1,5,-1
 98 768 l 1,6,7
 86 732 86 732 69 689 c 128,-1,8
 52 646 52 646 30 606 c 1,9,-1
 -47 606 l 1,10,-1
 -47 620 l 1,0,1
120 0 m 1,11,-1
 120 714 l 1,12,-1
 474 714 l 1,13,-1
 474 593 l 1,14,-1
 252 593 l 1,15,-1
 252 425 l 1,16,-1
 457 425 l 1,17,-1
 457 304 l 1,18,-1
 252 304 l 1,19,-1
 252 121 l 1,20,-1
 474 121 l 1,21,-1
 474 0 l 1,22,-1
 120 0 l 1,11,-1
EndSplineSet
Validated: 1048577
EndChar

StartChar: Etatonos
Encoding: 905 905 344
Width: 530
GlyphClass: 2
Flags: W
AnchorPoint: "Anchor-3" 291 376 basechar 0
AnchorPoint: "Anchor-1" 291 714 basechar 0
AnchorPoint: "Anchor-0" 291 0 basechar 0
LayerCount: 2
Fore
SplineSet
-59 620 m 1,0,1
 -54 637 -54 637 -48.5 668.5 c 128,-1,2
 -43 700 -43 700 -38.5 731 c 128,-1,3
 -34 762 -34 762 -32 780 c 1,4,-1
 86 780 l 1,5,-1
 86 768 l 1,6,7
 74 732 74 732 57 689 c 128,-1,8
 40 646 40 646 18 606 c 1,9,-1
 -59 606 l 1,10,-1
 -59 620 l 1,0,1
88 0 m 1,11,-1
 88 714 l 1,12,-1
 221 714 l 1,13,-1
 221 432 l 1,14,-1
 359 432 l 1,15,-1
 359 714 l 1,16,-1
 492 714 l 1,17,-1
 492 0 l 1,18,-1
 359 0 l 1,19,-1
 359 308 l 1,20,-1
 221 308 l 1,21,-1
 221 0 l 1,22,-1
 88 0 l 1,11,-1
EndSplineSet
Validated: 1048577
EndChar

StartChar: Upsilontonos
Encoding: 910 910 347
Width: 530
GlyphClass: 2
Flags: W
AnchorPoint: "Anchor-1" 313 714 basechar 0
AnchorPoint: "Anchor-0" 313 0 basechar 0
LayerCount: 2
Fore
SplineSet
-42 620 m 1,0,1
 -37 637 -37 637 -31.5 668.5 c 128,-1,2
 -26 700 -26 700 -21.5 731 c 128,-1,3
 -17 762 -17 762 -15 780 c 1,4,-1
 103 780 l 1,5,-1
 103 768 l 1,6,7
 91 732 91 732 74 689 c 128,-1,8
 57 646 57 646 35 606 c 1,9,-1
 -42 606 l 1,10,-1
 -42 620 l 1,0,1
244 0 m 1,11,-1
 244 277 l 1,12,-1
 95 714 l 1,13,-1
 240 714 l 1,14,-1
 312 419 l 1,15,-1
 380 714 l 1,16,-1
 526 714 l 1,17,-1
 377 277 l 1,18,-1
 377 0 l 1,19,-1
 244 0 l 1,11,-1
EndSplineSet
Validated: 1048577
EndChar

StartChar: Gamma
Encoding: 915 915 352
Width: 530
GlyphClass: 2
Flags: W
AnchorPoint: "Anchor-1" 288 714 basechar 0
AnchorPoint: "Anchor-0" 288 0 basechar 0
LayerCount: 2
Fore
SplineSet
73 0 m 1,0,-1
 73 714 l 1,1,-1
 474 714 l 1,2,-1
 474 599 l 1,3,-1
 206 599 l 1,4,-1
 206 0 l 1,5,-1
 73 0 l 1,0,-1
EndSplineSet
Validated: 1048577
EndChar

StartChar: uni0394
Encoding: 916 916 353
Width: 530
GlyphClass: 2
Flags: W
AnchorPoint: "Anchor-1" 265 714 basechar 0
AnchorPoint: "Anchor-0" 265 0 basechar 0
LayerCount: 2
Fore
SplineSet
10 0 m 1,0,-1
 10 81 l 1,1,-1
 183 715 l 1,2,-1
 346 715 l 1,3,-1
 520 79 l 1,4,-1
 520 0 l 1,5,-1
 10 0 l 1,0,-1
154 115 m 1,6,-1
 375 115 l 1,7,-1
 285 495 l 2,8,9
 281 515 281 515 274.5 546.5 c 128,-1,10
 268 578 268 578 265 598 c 1,11,12
 262 576 262 576 256 545.5 c 128,-1,13
 250 515 250 515 245 495 c 2,14,-1
 154 115 l 1,6,-1
EndSplineSet
Validated: 1048577
EndChar

StartChar: Theta
Encoding: 920 920 357
Width: 530
GlyphClass: 2
Flags: W
AnchorPoint: "Anchor-3" 265 357 basechar 0
AnchorPoint: "Anchor-2" 530 714 basechar 0
AnchorPoint: "Anchor-1" 265 714 basechar 0
AnchorPoint: "Anchor-0" 265 0 basechar 0
LayerCount: 2
Fore
SplineSet
265 -9 m 0,0,1
 182 -9 182 -9 128.5 36 c 128,-1,2
 75 81 75 81 49 163.5 c 128,-1,3
 23 246 23 246 23 359 c 0,4,5
 23 537 23 537 83.5 631.5 c 128,-1,6
 144 726 144 726 265 726 c 0,7,8
 389 726 389 726 448 627.5 c 128,-1,9
 507 529 507 529 507 358 c 0,10,11
 507 245 507 245 481 163 c 128,-1,12
 455 81 455 81 401 36 c 128,-1,13
 347 -9 347 -9 265 -9 c 0,0,1
265 112 m 0,14,15
 320 112 320 112 345 173.5 c 128,-1,16
 370 235 370 235 370 358 c 0,17,18
 370 483 370 483 345 544.5 c 128,-1,19
 320 606 320 606 265 606 c 256,20,21
 210 606 210 606 185 542.5 c 128,-1,22
 160 479 160 479 160 358 c 256,23,24
 160 237 160 237 184.5 174.5 c 128,-1,25
 209 112 209 112 265 112 c 0,14,15
197 309 m 1,26,-1
 197 417 l 1,27,-1
 334 417 l 1,28,-1
 334 309 l 1,29,-1
 197 309 l 1,26,-1
EndSplineSet
Validated: 1
EndChar

StartChar: Lambda
Encoding: 923 923 360
Width: 530
GlyphClass: 2
Flags: W
AnchorPoint: "Anchor-1" 265 714 basechar 0
AnchorPoint: "Anchor-0" 265 0 basechar 0
LayerCount: 2
Fore
SplineSet
10 0 m 1,0,-1
 189 714 l 1,1,-1
 340 714 l 1,2,-1
 520 0 l 1,3,-1
 382 0 l 1,4,-1
 291 429 l 2,5,6
 285 461 285 461 277 501 c 128,-1,7
 269 541 269 541 264 573 c 1,8,9
 260 540 260 540 252.5 501 c 128,-1,10
 245 462 245 462 239 429 c 2,11,-1
 149 0 l 1,12,-1
 10 0 l 1,0,-1
EndSplineSet
Validated: 1048577
EndChar

StartChar: Xi
Encoding: 926 926 363
Width: 530
GlyphClass: 2
Flags: W
AnchorPoint: "Anchor-1" 265 714 basechar 0
AnchorPoint: "Anchor-0" 265 0 basechar 0
LayerCount: 2
Fore
SplineSet
53 601 m 1,0,-1
 53 714 l 1,1,-1
 477 714 l 1,2,-1
 477 601 l 1,3,-1
 53 601 l 1,0,-1
84 316 m 1,4,-1
 84 430 l 1,5,-1
 447 430 l 1,6,-1
 447 316 l 1,7,-1
 84 316 l 1,4,-1
38 0 m 1,8,-1
 38 114 l 1,9,-1
 492 114 l 1,10,-1
 492 0 l 1,11,-1
 38 0 l 1,8,-1
EndSplineSet
Validated: 1048577
EndChar

StartChar: Pi
Encoding: 928 928 365
Width: 530
GlyphClass: 2
Flags: W
AnchorPoint: "Anchor-1" 265 714 basechar 0
AnchorPoint: "Anchor-0" 265 0 basechar 0
LayerCount: 2
Fore
SplineSet
38 0 m 1,0,-1
 38 714 l 1,1,-1
 492 714 l 1,2,-1
 492 0 l 1,3,-1
 359 0 l 1,4,-1
 359 599 l 1,5,-1
 172 599 l 1,6,-1
 172 0 l 1,7,-1
 38 0 l 1,0,-1
EndSplineSet
Validated: 1048577
EndChar

StartChar: Sigma
Encoding: 931 931 367
Width: 530
GlyphClass: 2
Flags: W
AnchorPoint: "Anchor-1" 265 714 basechar 0
AnchorPoint: "Anchor-0" 265 0 basechar 0
LayerCount: 2
Fore
SplineSet
63 0 m 1,0,-1
 63 108 l 1,1,-1
 236 374 l 1,2,-1
 71 610 l 1,3,-1
 71 714 l 1,4,-1
 456 714 l 1,5,-1
 456 601 l 1,6,-1
 307 601 l 2,7,8
 282 601 282 601 260 602 c 128,-1,9
 238 603 238 603 220 605 c 1,10,-1
 384 375 l 1,11,-1
 207 109 l 1,12,13
 261 114 261 114 306 114 c 2,14,-1
 478 114 l 1,15,-1
 478 0 l 1,16,-1
 63 0 l 1,0,-1
EndSplineSet
Validated: 1048577
EndChar

StartChar: Phi
Encoding: 934 934 370
Width: 530
GlyphClass: 2
Flags: W
AnchorPoint: "Anchor-1" 265 714 basechar 0
AnchorPoint: "Anchor-0" 265 0 basechar 0
LayerCount: 2
Fore
SplineSet
211 100 m 1,0,1
 144 101 144 101 101 137 c 128,-1,2
 58 173 58 173 37 234 c 128,-1,3
 16 295 16 295 16 370 c 0,4,5
 16 444 16 444 37 504 c 128,-1,6
 58 564 58 564 101 599.5 c 128,-1,7
 144 635 144 635 211 636 c 1,8,-1
 211 724 l 1,9,-1
 322 724 l 1,10,-1
 322 636 l 1,11,12
 386 635 386 635 429 599.5 c 128,-1,13
 472 564 472 564 493 504 c 128,-1,14
 514 444 514 444 514 370 c 0,15,16
 514 294 514 294 492.5 233 c 128,-1,17
 471 172 471 172 428 136.5 c 128,-1,18
 385 101 385 101 322 100 c 1,19,-1
 322 -10 l 1,20,-1
 211 -10 l 1,21,-1
 211 100 l 1,0,1
211 527 m 1,22,23
 171 526 171 526 151 484.5 c 128,-1,24
 131 443 131 443 131 370 c 0,25,26
 131 293 131 293 151.5 251.5 c 128,-1,27
 172 210 172 210 211 209 c 1,28,-1
 211 527 l 1,22,23
321 209 m 1,29,30
 358 210 358 210 378.5 253 c 128,-1,31
 399 296 399 296 399 370 c 0,32,33
 399 442 399 442 379 484 c 128,-1,34
 359 526 359 526 321 527 c 1,35,-1
 321 209 l 1,29,30
EndSplineSet
Validated: 1048577
EndChar

StartChar: Psi
Encoding: 936 936 372
Width: 530
GlyphClass: 2
Flags: W
AnchorPoint: "Anchor-1" 265 714 basechar 0
AnchorPoint: "Anchor-0" 265 0 basechar 0
LayerCount: 2
Fore
SplineSet
208 206 m 1,0,1
 104 211 104 211 60.5 273.5 c 128,-1,2
 17 336 17 336 17 458 c 2,3,-1
 17 714 l 1,4,-1
 133 714 l 1,5,-1
 133 470 l 2,6,7
 133 386 133 386 150.5 351 c 128,-1,8
 168 316 168 316 208 316 c 1,9,-1
 208 714 l 1,10,-1
 323 714 l 1,11,-1
 323 316 l 1,12,13
 358 316 358 316 378 348.5 c 128,-1,14
 398 381 398 381 398 468 c 2,15,-1
 398 714 l 1,16,-1
 514 714 l 1,17,-1
 514 458 l 2,18,19
 514 338 514 338 469 274.5 c 128,-1,20
 424 211 424 211 323 206 c 1,21,-1
 323 0 l 1,22,-1
 208 0 l 1,23,-1
 208 206 l 1,0,1
EndSplineSet
Validated: 1048577
EndChar

StartChar: uni03A9
Encoding: 937 937 373
Width: 530
GlyphClass: 2
Flags: W
AnchorPoint: "Anchor-1" 264 714 basechar 0
AnchorPoint: "Anchor-0" 265 0 basechar 0
LayerCount: 2
Fore
SplineSet
15 0 m 1,0,-1
 15 112 l 1,1,-1
 124 112 l 1,2,3
 79 154 79 154 52.5 230.5 c 128,-1,4
 26 307 26 307 26 412 c 0,5,6
 26 566 26 566 88.5 645.5 c 128,-1,7
 151 725 151 725 265 725 c 0,8,9
 375 725 375 725 438.5 646 c 128,-1,10
 502 567 502 567 502 412 c 0,11,12
 502 305 502 305 475.5 230 c 128,-1,13
 449 155 449 155 402 112 c 1,14,-1
 515 112 l 1,15,-1
 515 0 l 1,16,-1
 299 0 l 1,17,-1
 299 118 l 1,18,19
 338 161 338 161 355.5 229 c 128,-1,20
 373 297 373 297 373 394 c 0,21,22
 373 610 373 610 266 610 c 0,23,24
 211 610 211 610 184.5 556.5 c 128,-1,25
 158 503 158 503 158 392 c 0,26,27
 158 297 158 297 174.5 228.5 c 128,-1,28
 191 160 191 160 229 118 c 1,29,-1
 229 0 l 1,30,-1
 15 0 l 1,0,-1
EndSplineSet
Validated: 1048577
EndChar

StartChar: alpha
Encoding: 945 945 381
Width: 530
GlyphClass: 2
Flags: W
AnchorPoint: "Anchor-1" 265 546 basechar 0
AnchorPoint: "Anchor-0" 266 0 basechar 0
LayerCount: 2
Fore
SplineSet
205 -10 m 0,0,1
 125 -10 125 -10 79 62.5 c 128,-1,2
 33 135 33 135 33 270 c 0,3,4
 33 409 33 409 81.5 482 c 128,-1,5
 130 555 130 555 214 555 c 0,6,7
 259 555 259 555 289 533.5 c 128,-1,8
 319 512 319 512 340 470 c 1,9,-1
 345 470 l 1,10,11
 351 491 351 491 358.5 511.5 c 128,-1,12
 366 532 366 532 376 545 c 1,13,-1
 485 545 l 1,14,15
 473 506 473 506 464.5 449 c 128,-1,16
 456 392 456 392 456 333 c 2,17,-1
 456 162 l 2,18,19
 456 130 456 130 466 115 c 128,-1,20
 476 100 476 100 492 100 c 0,21,22
 509 100 509 100 521 105 c 1,23,-1
 521 2 l 1,24,25
 515 -2 515 -2 495.5 -6 c 128,-1,26
 476 -10 476 -10 463 -10 c 0,27,28
 413 -10 413 -10 384.5 9 c 128,-1,29
 356 28 356 28 342 73 c 1,30,-1
 333 73 l 1,31,32
 312 34 312 34 280.5 12 c 128,-1,33
 249 -10 249 -10 205 -10 c 0,0,1
246 96 m 0,34,35
 290 96 290 96 310 137.5 c 128,-1,36
 330 179 330 179 330 264 c 2,37,-1
 330 272 l 2,38,39
 330 360 330 360 310 403 c 128,-1,40
 290 446 290 446 243 446 c 0,41,42
 203 446 203 446 183.5 400.5 c 128,-1,43
 164 355 164 355 164 269 c 0,44,45
 164 96 164 96 246 96 c 0,34,35
EndSplineSet
Validated: 1048577
EndChar

StartChar: beta
Encoding: 946 946 382
Width: 530
GlyphClass: 2
Flags: W
AnchorPoint: "Anchor-2" 510 765 basechar 0
AnchorPoint: "Anchor-1" 268 765 basechar 0
AnchorPoint: "Anchor-0" 324 0 basechar 0
LayerCount: 2
Fore
SplineSet
48 543 m 2,0,1
 48 653 48 653 106 709 c 128,-1,2
 164 765 164 765 261 765 c 0,3,4
 352 765 352 765 405 714.5 c 128,-1,5
 458 664 458 664 458 575 c 0,6,7
 458 427 458 427 342 405 c 1,8,-1
 342 401 l 1,9,10
 416 391 416 391 453 344 c 128,-1,11
 490 297 490 297 490 209 c 0,12,13
 490 107 490 107 437.5 48.5 c 128,-1,14
 385 -10 385 -10 295 -10 c 0,15,16
 255 -10 255 -10 227 -1.5 c 128,-1,17
 199 7 199 7 176 21 c 1,18,-1
 176 -240 l 1,19,-1
 48 -240 l 1,20,-1
 48 543 l 2,0,1
261 99 m 0,21,22
 360 99 360 99 360 222 c 0,23,24
 360 281 360 281 332 311 c 128,-1,25
 304 341 304 341 256 341 c 2,26,-1
 230 341 l 1,27,-1
 230 447 l 1,28,-1
 249 447 l 2,29,30
 290 447 290 447 309.5 475.5 c 128,-1,31
 329 504 329 504 329 557 c 0,32,33
 329 607 329 607 309.5 633 c 128,-1,34
 290 659 290 659 257 659 c 0,35,36
 220 659 220 659 198 629 c 128,-1,37
 176 599 176 599 176 534 c 2,38,-1
 176 131 l 1,39,40
 192 117 192 117 215.5 108 c 128,-1,41
 239 99 239 99 261 99 c 0,21,22
EndSplineSet
Validated: 1048577
Substitution2: "'locl' Localized Forms in Latin lookup 19 subtable" uniA7B5
Substitution2: "'locl' Localized Forms in Latin lookup 18 subtable" uniA7B5
Substitution2: "'aalt' Access All Alternates lookup 0 subtable" uniA7B5
EndChar

StartChar: gamma
Encoding: 947 947 383
Width: 530
GlyphClass: 2
Flags: W
AnchorPoint: "Anchor-2" 510 546 basechar 0
AnchorPoint: "Anchor-1" 271 546 basechar 0
AnchorPoint: "Anchor-0" 269 -240 basechar 0
LayerCount: 2
Fore
SplineSet
163 -240 m 1,0,1
 163 -211 163 -211 168 -168 c 128,-1,2
 173 -125 173 -125 182 -79.5 c 128,-1,3
 191 -34 191 -34 200 1 c 1,4,-1
 13 546 l 1,5,-1
 149 546 l 1,6,-1
 218 334 l 2,7,8
 232 288 232 288 247 237 c 128,-1,9
 262 186 262 186 267 147 c 1,10,-1
 270 147 l 1,11,12
 274 181 274 181 286.5 229.5 c 128,-1,13
 299 278 299 278 315 328 c 2,14,-1
 385 546 l 1,15,-1
 517 546 l 1,16,-1
 339 15 l 2,17,18
 325 -24 325 -24 316.5 -69 c 128,-1,19
 308 -114 308 -114 303.5 -158.5 c 128,-1,20
 299 -203 299 -203 299 -240 c 1,21,-1
 163 -240 l 1,0,1
EndSplineSet
Validated: 1048577
EndChar

StartChar: delta
Encoding: 948 948 384
Width: 530
GlyphClass: 2
Flags: W
AnchorPoint: "Anchor-1" 302 765 basechar 0
AnchorPoint: "Anchor-0" 271 0 basechar 0
LayerCount: 2
Fore
SplineSet
262 -10 m 0,0,1
 153 -10 153 -10 93 51 c 128,-1,2
 33 112 33 112 33 213 c 0,3,4
 33 306 33 306 80 363 c 128,-1,5
 127 420 127 420 205 448 c 1,6,7
 159 482 159 482 131.5 522 c 128,-1,8
 104 562 104 562 104 614 c 0,9,10
 104 686 104 686 158 725.5 c 128,-1,11
 212 765 212 765 301 765 c 0,12,13
 353 765 353 765 398.5 752 c 128,-1,14
 444 739 444 739 485 716 c 1,15,-1
 438 615 l 1,16,17
 400 638 400 638 366.5 649.5 c 128,-1,18
 333 661 333 661 301 661 c 0,19,20
 266 661 266 661 248 647 c 128,-1,21
 230 633 230 633 230 611 c 0,22,23
 230 581 230 581 258.5 554 c 128,-1,24
 287 527 287 527 334 497 c 0,25,26
 417 440 417 440 457 379.5 c 128,-1,27
 497 319 497 319 497 234 c 0,28,29
 497 117 497 117 435 53.5 c 128,-1,30
 373 -10 373 -10 262 -10 c 0,0,1
264 97 m 256,31,32
 312 97 312 97 339 131 c 128,-1,33
 366 165 366 165 366 228 c 0,34,35
 366 281 366 281 343 320 c 128,-1,36
 320 359 320 359 275 389 c 1,37,38
 228 374 228 374 196 329.5 c 128,-1,39
 164 285 164 285 164 220 c 0,40,41
 164 166 164 166 190 131.5 c 128,-1,42
 216 97 216 97 264 97 c 256,31,32
EndSplineSet
Validated: 1048577
EndChar

StartChar: epsilon
Encoding: 949 949 385
Width: 530
GlyphClass: 2
Flags: W
AnchorPoint: "Anchor-1" 265 546 basechar 0
AnchorPoint: "Anchor-0" 284 0 basechar 0
LayerCount: 2
Fore
SplineSet
291 -10 m 0,0,1
 175 -10 175 -10 122.5 34.5 c 128,-1,2
 70 79 70 79 70 150 c 0,3,4
 70 205 70 205 99.5 239 c 128,-1,5
 129 273 129 273 181 284 c 1,6,-1
 181 289 l 1,7,8
 138 302 138 302 116 334.5 c 128,-1,9
 94 367 94 367 94 410 c 0,10,11
 94 480 94 480 151.5 517.5 c 128,-1,12
 209 555 209 555 300 555 c 0,13,14
 344 555 344 555 386 545.5 c 128,-1,15
 428 536 428 536 469 515 c 1,16,-1
 426 418 l 1,17,18
 398 434 398 434 369.5 443.5 c 128,-1,19
 341 453 341 453 307 453 c 0,20,21
 215 453 215 453 215 394 c 0,22,23
 215 331 215 331 333 331 c 2,24,-1
 379 331 l 1,25,-1
 379 236 l 1,26,-1
 325 236 l 2,27,28
 257 236 257 236 228 217 c 128,-1,29
 199 198 199 198 199 164 c 0,30,31
 199 96 199 96 304 96 c 0,32,33
 351 96 351 96 392.5 108 c 128,-1,34
 434 120 434 120 465 136 c 1,35,-1
 465 26 l 1,36,37
 432 10 432 10 387 0 c 128,-1,38
 342 -10 342 -10 291 -10 c 0,0,1
EndSplineSet
Validated: 1048577
EndChar

StartChar: zeta
Encoding: 950 950 386
Width: 530
GlyphClass: 2
Flags: W
AnchorPoint: "Anchor-1" 297 760 basechar 0
AnchorPoint: "Anchor-0" 295 -187 basechar 0
LayerCount: 2
Fore
SplineSet
288 -187 m 1,0,1
 312 -153 312 -153 331 -118 c 128,-1,2
 350 -83 350 -83 350 -55 c 0,3,4
 350 -26 350 -26 326.5 -14.5 c 128,-1,5
 303 -3 303 -3 264 10 c 0,6,7
 215 28 215 28 175.5 55.5 c 128,-1,8
 136 83 136 83 113 127.5 c 128,-1,9
 90 172 90 172 90 240 c 0,10,11
 90 321 90 321 118 390.5 c 128,-1,12
 146 460 146 460 199.5 526.5 c 128,-1,13
 253 593 253 593 330 664 c 1,14,15
 313 660 313 660 289 658 c 128,-1,16
 265 656 265 656 242 656 c 2,17,-1
 118 656 l 1,18,-1
 118 760 l 1,19,-1
 466 760 l 1,20,-1
 466 669 l 1,21,22
 376 587 376 587 322 517 c 128,-1,23
 268 447 268 447 244.5 383 c 128,-1,24
 221 319 221 319 221 257 c 0,25,26
 221 210 221 210 234 184.5 c 128,-1,27
 247 159 247 159 276 143 c 128,-1,28
 305 127 305 127 352 108 c 0,29,30
 381 99 381 99 409 84.5 c 128,-1,31
 437 70 437 70 456 43.5 c 128,-1,32
 475 17 475 17 475 -27 c 0,33,34
 475 -67 475 -67 459 -108.5 c 128,-1,35
 443 -150 443 -150 418 -187 c 1,36,-1
 288 -187 l 1,0,1
EndSplineSet
Validated: 1048577
EndChar

StartChar: eta
Encoding: 951 951 387
Width: 530
GlyphClass: 2
Flags: W
AnchorPoint: "Anchor-2" 510 546 basechar 0
AnchorPoint: "Anchor-1" 265 546 basechar 0
AnchorPoint: "Anchor-0" 265 -240 basechar 0
LayerCount: 2
Fore
SplineSet
48 0 m 1,0,-1
 48 546 l 1,1,-1
 153 546 l 1,2,-1
 174 481 l 1,3,-1
 180 481 l 1,4,5
 201 516 201 516 235.5 536 c 128,-1,6
 270 556 270 556 324 556 c 0,7,8
 487 556 487 556 487 367 c 2,9,-1
 487 -240 l 1,10,-1
 354 -240 l 1,11,-1
 354 330 l 2,12,13
 354 388 354 388 335 415 c 128,-1,14
 316 442 316 442 276 442 c 0,15,16
 224 442 224 442 202.5 401 c 128,-1,17
 181 360 181 360 181 279 c 2,18,-1
 181 0 l 1,19,-1
 48 0 l 1,0,-1
EndSplineSet
Validated: 1048577
EndChar

StartChar: theta
Encoding: 952 952 388
Width: 530
GlyphClass: 2
Flags: W
AnchorPoint: "Anchor-2" 510 769 basechar 0
AnchorPoint: "Anchor-1" 266 769 basechar 0
AnchorPoint: "Anchor-0" 264 0 basechar 0
LayerCount: 2
Fore
SplineSet
263 -10 m 0,0,1
 42 -10 42 -10 42 380 c 0,2,3
 42 572 42 572 96 670.5 c 128,-1,4
 150 769 150 769 264 769 c 0,5,6
 487 769 487 769 487 380 c 0,7,8
 487 187 487 187 432.5 88.5 c 128,-1,9
 378 -10 378 -10 263 -10 c 0,0,1
357 434 m 1,10,11
 353 552 353 552 331 610 c 128,-1,12
 309 668 309 668 265 668 c 0,13,14
 220 668 220 668 198.5 610 c 128,-1,15
 177 552 177 552 175 434 c 1,16,-1
 357 434 l 1,10,11
263 91 m 0,17,18
 352 91 352 91 355 332 c 1,19,-1
 173 332 l 1,20,21
 175 212 175 212 196.5 151.5 c 128,-1,22
 218 91 218 91 263 91 c 0,17,18
EndSplineSet
Validated: 1048577
EndChar

StartChar: iota
Encoding: 953 953 389
Width: 530
GlyphClass: 2
Flags: W
AnchorPoint: "Anchor-1" 255 546 basechar 0
AnchorPoint: "Anchor-0" 344 0 basechar 0
LayerCount: 2
Fore
SplineSet
357 -10 m 0,0,1
 277 -10 277 -10 234 28.5 c 128,-1,2
 191 67 191 67 191 157 c 2,3,-1
 191 546 l 1,4,-1
 320 546 l 1,5,-1
 320 177 l 2,6,7
 320 145 320 145 331 128.5 c 128,-1,8
 342 112 342 112 358.5 105.5 c 128,-1,9
 375 99 375 99 392 99 c 0,10,11
 413 99 413 99 431 103.5 c 128,-1,12
 449 108 449 108 465 115 c 1,13,-1
 465 14 l 1,14,15
 444 3 444 3 417.5 -3.5 c 128,-1,16
 391 -10 391 -10 357 -10 c 0,0,1
EndSplineSet
Validated: 1048577
EndChar

StartChar: lambda
Encoding: 955 955 391
Width: 530
GlyphClass: 2
Flags: W
AnchorPoint: "Anchor-1" 258 767 basechar 0
AnchorPoint: "Anchor-0" 256 0 basechar 0
LayerCount: 2
Fore
SplineSet
446 -10 m 0,0,1
 388 -10 388 -10 357 23 c 128,-1,2
 326 56 326 56 308 129 c 2,3,-1
 273 261 l 2,4,5
 261 307 261 307 255 354 c 1,6,-1
 251 354 l 1,7,8
 247 333 247 333 242 312.5 c 128,-1,9
 237 292 237 292 233 277 c 2,10,-1
 154 0 l 1,11,-1
 21 0 l 1,12,-1
 196 522 l 1,13,-1
 178 585 l 2,14,15
 168 621 168 621 152 640 c 128,-1,16
 136 659 136 659 104 659 c 0,17,18
 91 659 91 659 81 657 c 128,-1,19
 71 655 71 655 62 653 c 1,20,-1
 62 759 l 1,21,22
 88 767 88 767 127 767 c 0,23,24
 198 767 198 767 239 727 c 128,-1,25
 280 687 280 687 305 593 c 2,26,-1
 419 170 l 2,27,28
 430 128 430 128 444 113.5 c 128,-1,29
 458 99 458 99 479 99 c 0,30,31
 496 99 496 99 511 105 c 1,32,-1
 511 0 l 1,33,34
 485 -10 485 -10 446 -10 c 0,0,1
EndSplineSet
Validated: 1048577
EndChar

StartChar: uni03BC
Encoding: 956 956 392
Width: 530
GlyphClass: 2
Flags: W
AnchorPoint: "Anchor-2" 510 546 basechar 0
AnchorPoint: "Anchor-1" 265 546 basechar 0
AnchorPoint: "Anchor-0" 265 -240 basechar 0
LayerCount: 2
Fore
SplineSet
202 -10 m 0,0,1
 188 -10 188 -10 176 -9 c 1,2,-1
 176 -240 l 1,3,-1
 43 -240 l 1,4,-1
 43 546 l 1,5,-1
 176 546 l 1,6,-1
 176 226 l 2,7,8
 176 169 176 169 192.5 138.5 c 128,-1,9
 209 108 209 108 256 108 c 0,10,11
 313 108 313 108 331 155 c 128,-1,12
 349 202 349 202 349 290 c 2,13,-1
 349 546 l 1,14,-1
 482 546 l 1,15,-1
 482 0 l 1,16,-1
 377 0 l 1,17,-1
 356 70 l 1,18,-1
 348 70 l 1,19,20
 327 31 327 31 290.5 10.5 c 128,-1,21
 254 -10 254 -10 202 -10 c 0,0,1
EndSplineSet
Validated: 1048577
EndChar

StartChar: nu
Encoding: 957 957 393
Width: 530
GlyphClass: 2
Flags: W
AnchorPoint: "Anchor-1" 271 546 basechar 0
AnchorPoint: "Anchor-0" 275 0 basechar 0
LayerCount: 2
Fore
SplineSet
185 0 m 1,0,-1
 33 546 l 1,1,-1
 166 546 l 1,2,-1
 245 230 l 2,3,4
 247 222 247 222 251 203.5 c 128,-1,5
 255 185 255 185 259 164.5 c 128,-1,6
 263 144 263 144 265 130 c 1,7,-1
 269 130 l 1,8,9
 320 216 320 216 341.5 318 c 128,-1,10
 363 420 363 420 363 546 c 1,11,-1
 491 546 l 1,12,13
 491 439 491 439 473 346 c 128,-1,14
 455 253 455 253 414 168 c 128,-1,15
 373 83 373 83 305 0 c 1,16,-1
 185 0 l 1,0,-1
EndSplineSet
Validated: 1048577
EndChar

StartChar: xi
Encoding: 958 958 394
Width: 530
GlyphClass: 2
Flags: W
AnchorPoint: "Anchor-1" 308 760 basechar 0
AnchorPoint: "Anchor-0" 306 -187 basechar 0
LayerCount: 2
Fore
SplineSet
293 -187 m 1,0,1
 317 -154 317 -154 335.5 -117.5 c 128,-1,2
 354 -81 354 -81 354 -55 c 0,3,4
 354 -25 354 -25 331 -13 c 128,-1,5
 308 -1 308 -1 277 7 c 0,6,7
 246 17 246 17 212 29 c 128,-1,8
 178 41 178 41 149 62 c 128,-1,9
 120 83 120 83 101.5 118 c 128,-1,10
 83 153 83 153 83 207 c 0,11,12
 83 278 83 278 119 326 c 128,-1,13
 155 374 155 374 227 396 c 1,14,-1
 227 400 l 1,15,16
 166 411 166 411 137.5 443.5 c 128,-1,17
 109 476 109 476 109 524 c 0,18,19
 109 579 109 579 143.5 613 c 128,-1,20
 178 647 178 647 239 661 c 1,21,22
 217 659 217 659 196 657.5 c 128,-1,23
 175 656 175 656 156 656 c 2,24,-1
 120 656 l 1,25,-1
 120 760 l 1,26,-1
 463 760 l 1,27,-1
 463 659 l 1,28,-1
 424 659 l 2,29,30
 341 659 341 659 288.5 628 c 128,-1,31
 236 597 236 597 236 536 c 0,32,33
 236 490 236 490 270 468.5 c 128,-1,34
 304 447 304 447 381 447 c 2,35,-1
 438 447 l 1,36,-1
 438 345 l 1,37,-1
 379 345 l 2,38,39
 297 345 297 345 255.5 315 c 128,-1,40
 214 285 214 285 214 222 c 0,41,42
 214 184 214 184 229 164 c 128,-1,43
 244 144 244 144 276 132 c 128,-1,44
 308 120 308 120 358 106 c 0,45,46
 421 88 421 88 451 57 c 128,-1,47
 481 26 481 26 481 -27 c 0,48,49
 481 -69 481 -69 464 -109.5 c 128,-1,50
 447 -150 447 -150 423 -187 c 1,51,-1
 293 -187 l 1,0,1
EndSplineSet
Validated: 1048577
EndChar

StartChar: pi
Encoding: 960 960 396
Width: 530
GlyphClass: 2
Flags: W
AnchorPoint: "Anchor-1" 264 546 basechar 0
AnchorPoint: "Anchor-0" 264 0 basechar 0
LayerCount: 2
Fore
SplineSet
428 -9 m 0,0,1
 309 -9 309 -9 309 151 c 2,2,-1
 309 441 l 1,3,-1
 217 441 l 1,4,-1
 217 0 l 1,5,-1
 94 0 l 1,6,-1
 94 441 l 1,7,-1
 8 441 l 1,8,-1
 8 498 l 1,9,-1
 77 546 l 1,10,-1
 522 546 l 1,11,-1
 522 441 l 1,12,-1
 433 441 l 1,13,-1
 433 154 l 2,14,15
 433 125 433 125 442.5 112.5 c 128,-1,16
 452 100 452 100 470 100 c 0,17,18
 494 100 494 100 520 113 c 1,19,-1
 520 15 l 1,20,21
 504 4 504 4 479 -2.5 c 128,-1,22
 454 -9 454 -9 428 -9 c 0,0,1
EndSplineSet
Validated: 1048577
EndChar

StartChar: rho
Encoding: 961 961 397
Width: 530
GlyphClass: 2
Flags: W
AnchorPoint: "Anchor-1" 272 546 basechar 0
AnchorPoint: "Anchor-0" 265 -240 basechar 0
LayerCount: 2
Fore
SplineSet
48 274 m 2,0,1
 48 404 48 404 101.5 479.5 c 128,-1,2
 155 555 155 555 272 555 c 0,3,4
 377 555 377 555 437 483.5 c 128,-1,5
 497 412 497 412 497 273 c 0,6,7
 497 188 497 188 475.5 124.5 c 128,-1,8
 454 61 454 61 409.5 25.5 c 128,-1,9
 365 -10 365 -10 295 -10 c 0,10,11
 262 -10 262 -10 231 1 c 128,-1,12
 200 12 200 12 177 30 c 1,13,-1
 170 30 l 1,14,15
 174 -3 174 -3 175.5 -36.5 c 128,-1,16
 177 -70 177 -70 177 -103 c 2,17,-1
 177 -240 l 1,18,-1
 48 -240 l 1,19,-1
 48 274 l 2,0,1
266 97 m 0,20,21
 317 97 317 97 341 138 c 128,-1,22
 365 179 365 179 365 273 c 256,23,24
 365 367 365 367 342.5 407.5 c 128,-1,25
 320 448 320 448 270 448 c 0,26,27
 222 448 222 448 199 411.5 c 128,-1,28
 176 375 176 375 176 293 c 2,29,-1
 176 132 l 1,30,31
 213 97 213 97 266 97 c 0,20,21
EndSplineSet
Validated: 1048577
EndChar

StartChar: uni03C2
Encoding: 962 962 398
Width: 530
GlyphClass: 2
Flags: W
AnchorPoint: "Anchor-1" 312 546 basechar 0
AnchorPoint: "Anchor-0" 300 -188 basechar 0
LayerCount: 2
Fore
SplineSet
264 -187 m 1,0,1
 289 -152 289 -152 307 -113.5 c 128,-1,2
 325 -75 325 -75 325 -48 c 0,3,4
 325 -24 325 -24 306.5 -12.5 c 128,-1,5
 288 -1 288 -1 245 15 c 0,6,7
 187 37 187 37 145.5 65.5 c 128,-1,8
 104 94 104 94 82 141.5 c 128,-1,9
 60 189 60 189 60 267 c 0,10,11
 60 415 60 415 126.5 485 c 128,-1,12
 193 555 193 555 314 555 c 0,13,14
 356 555 356 555 394 546.5 c 128,-1,15
 432 538 432 538 465 520 c 1,16,-1
 429 418 l 1,17,18
 403 433 403 433 376 439.5 c 128,-1,19
 349 446 349 446 324 446 c 0,20,21
 287 446 287 446 256.5 430 c 128,-1,22
 226 414 226 414 208 377.5 c 128,-1,23
 190 341 190 341 190 278 c 0,24,25
 190 221 190 221 205.5 191 c 128,-1,26
 221 161 221 161 251.5 144.5 c 128,-1,27
 282 128 282 128 326 111 c 0,28,29
 382 92 382 92 417 61.5 c 128,-1,30
 452 31 452 31 452 -26 c 0,31,32
 452 -67 452 -67 435 -109 c 128,-1,33
 418 -151 418 -151 393 -187 c 1,34,-1
 264 -187 l 1,0,1
EndSplineSet
Validated: 1048577
EndChar

StartChar: sigma
Encoding: 963 963 399
Width: 530
GlyphClass: 2
Flags: W
AnchorPoint: "Anchor-1" 255 546 basechar 0
AnchorPoint: "Anchor-0" 255 0 basechar 0
LayerCount: 2
Fore
SplineSet
254 -10 m 256,0,1
 148 -10 148 -10 90.5 60.5 c 128,-1,2
 33 131 33 131 33 263 c 0,3,4
 33 407 33 407 102.5 476 c 128,-1,5
 172 545 172 545 306 545 c 2,6,-1
 518 545 l 1,7,-1
 518 441 l 1,8,-1
 413 441 l 1,9,10
 478 367 478 367 478 245 c 0,11,12
 478 125 478 125 419 57.5 c 128,-1,13
 360 -10 360 -10 254 -10 c 256,0,1
255 97 m 0,14,15
 301 97 301 97 323.5 138 c 128,-1,16
 346 179 346 179 346 257 c 0,17,18
 346 358 346 358 305 441 c 1,19,-1
 286 441 l 2,20,21
 223 441 223 441 193.5 399 c 128,-1,22
 164 357 164 357 164 263 c 0,23,24
 164 97 164 97 255 97 c 0,14,15
EndSplineSet
Validated: 1048577
EndChar

StartChar: tau
Encoding: 964 964 400
Width: 530
GlyphClass: 2
Flags: W
AnchorPoint: "Anchor-1" 264 546 basechar 0
AnchorPoint: "Anchor-0" 313 0 basechar 0
LayerCount: 2
Fore
SplineSet
343 -11 m 0,0,1
 263 -11 263 -11 221 30.5 c 128,-1,2
 179 72 179 72 179 167 c 2,3,-1
 179 441 l 1,4,-1
 46 441 l 1,5,-1
 46 497 l 1,6,-1
 115 546 l 1,7,-1
 466 546 l 1,8,-1
 466 441 l 1,9,-1
 307 441 l 1,10,-1
 307 171 l 2,11,12
 307 128 307 128 331.5 113 c 128,-1,13
 356 98 356 98 382 98 c 0,14,15
 399 98 399 98 417 102 c 128,-1,16
 435 106 435 106 453 113 c 1,17,-1
 453 13 l 1,18,19
 434 2 434 2 406 -4.5 c 128,-1,20
 378 -11 378 -11 343 -11 c 0,0,1
EndSplineSet
Validated: 1048577
EndChar

StartChar: upsilon
Encoding: 965 965 401
Width: 530
GlyphClass: 2
Flags: W
AnchorPoint: "Anchor-1" 265 546 basechar 0
AnchorPoint: "Anchor-0" 262 0 basechar 0
LayerCount: 2
Fore
SplineSet
258 -9 m 0,0,1
 143 -9 143 -9 95.5 56.5 c 128,-1,2
 48 122 48 122 48 244 c 2,3,-1
 48 545 l 1,4,-1
 176 545 l 1,5,-1
 176 234 l 2,6,7
 176 169 176 169 195.5 135 c 128,-1,8
 215 101 215 101 264 101 c 0,9,10
 317 101 317 101 341 144.5 c 128,-1,11
 365 188 365 188 365 291 c 0,12,13
 365 352 365 352 357 414 c 128,-1,14
 349 476 349 476 334 545 c 1,15,-1
 462 545 l 1,16,17
 479 471 479 471 486 413 c 128,-1,18
 493 355 493 355 493 299 c 0,19,20
 493 140 493 140 435.5 65.5 c 128,-1,21
 378 -9 378 -9 258 -9 c 0,0,1
EndSplineSet
Validated: 1048577
EndChar

StartChar: phi
Encoding: 966 966 402
Width: 530
GlyphClass: 2
Flags: W
AnchorPoint: "Anchor-1" 261 546 basechar 0
AnchorPoint: "Anchor-0" 261 -240 basechar 0
LayerCount: 2
Fore
SplineSet
207 -6 m 1,0,1
 122 3 122 3 77.5 76 c 128,-1,2
 33 149 33 149 33 271 c 0,3,4
 33 349 33 349 52 419 c 128,-1,5
 71 489 71 489 112 552 c 1,6,-1
 197 498 l 1,7,8
 172 452 172 452 157.5 396 c 128,-1,9
 143 340 143 340 142 267 c 0,10,11
 142 189 142 189 159 148 c 128,-1,12
 176 107 176 107 207 97 c 1,13,-1
 207 360 l 2,14,15
 207 462 207 462 243.5 508 c 128,-1,16
 280 554 280 554 341 554 c 0,17,18
 396 554 396 554 430.5 520.5 c 128,-1,19
 465 487 465 487 481 428.5 c 128,-1,20
 497 370 497 370 497 296 c 0,21,22
 497 162 497 162 450 83.5 c 128,-1,23
 403 5 403 5 316 -6 c 1,24,-1
 316 -240 l 1,25,-1
 207 -240 l 1,26,-1
 207 -6 l 1,0,1
316 97 m 1,27,28
 337 103 337 103 353 124.5 c 128,-1,29
 369 146 369 146 378.5 190.5 c 128,-1,30
 388 235 388 235 388 310 c 0,31,32
 388 369 388 369 379.5 409.5 c 128,-1,33
 371 450 371 450 346 450 c 0,34,35
 327 450 327 450 321.5 424 c 128,-1,36
 316 398 316 398 316 357 c 2,37,-1
 316 97 l 1,27,28
EndSplineSet
Validated: 1048577
EndChar

StartChar: chi
Encoding: 967 967 403
Width: 530
GlyphClass: 2
Flags: W
AnchorPoint: "Anchor-2" 510 546 basechar 0
AnchorPoint: "Anchor-1" 278 546 basechar 0
AnchorPoint: "Anchor-0" 278 -245 basechar 0
LayerCount: 2
Fore
SplineSet
440 -245 m 0,0,1
 378 -245 378 -245 344 -213 c 128,-1,2
 310 -181 310 -181 289 -98 c 2,3,-1
 258 29 l 1,4,-1
 147 -240 l 1,5,-1
 13 -240 l 1,6,-1
 211 183 l 1,7,-1
 157 374 l 2,8,9
 145 415 145 415 131 430 c 128,-1,10
 117 445 117 445 95 445 c 0,11,12
 77 445 77 445 55 438 c 1,13,-1
 55 543 l 1,14,15
 70 547 70 547 88 550 c 128,-1,16
 106 553 106 553 126 553 c 0,17,18
 184 553 184 553 216 523 c 128,-1,19
 248 493 248 493 269 413 c 2,20,-1
 291 323 l 1,21,-1
 386 546 l 1,22,-1
 516 546 l 1,23,-1
 340 170 l 1,24,-1
 397 -47 l 2,25,26
 412 -102 412 -102 427 -119 c 128,-1,27
 442 -136 442 -136 470 -136 c 0,28,29
 488 -136 488 -136 509 -131 c 1,30,-1
 509 -235 l 1,31,32
 494 -240 494 -240 476.5 -242.5 c 128,-1,33
 459 -245 459 -245 440 -245 c 0,0,1
EndSplineSet
Validated: 1048577
Substitution2: "'locl' Localized Forms in Latin lookup 19 subtable" uniAB53
Substitution2: "'locl' Localized Forms in Latin lookup 18 subtable" uniAB53
Substitution2: "'aalt' Access All Alternates lookup 0 subtable" uniAB53
EndChar

StartChar: psi
Encoding: 968 968 404
Width: 530
GlyphClass: 2
Flags: W
AnchorPoint: "Anchor-1" 266 759 basechar 0
AnchorPoint: "Anchor-0" 266 -240 basechar 0
LayerCount: 2
Fore
SplineSet
214 -9 m 1,0,1
 130 -4 130 -4 89 55 c 128,-1,2
 48 114 48 114 48 236 c 2,3,-1
 48 545 l 1,4,-1
 163 545 l 1,5,-1
 163 248 l 2,6,7
 163 178 163 178 173 141 c 128,-1,8
 183 104 183 104 214 99 c 1,9,-1
 214 759 l 1,10,-1
 322 759 l 1,11,-1
 322 99 l 1,12,13
 354 105 354 105 367.5 149.5 c 128,-1,14
 381 194 381 194 381 280 c 0,15,16
 381 413 381 413 349 545 c 1,17,-1
 461 545 l 1,18,19
 481 468 481 468 489 406 c 128,-1,20
 497 344 497 344 497 284 c 0,21,22
 497 146 497 146 453.5 72 c 128,-1,23
 410 -2 410 -2 322 -9 c 1,24,-1
 322 -240 l 1,25,-1
 214 -240 l 1,26,-1
 214 -9 l 1,0,1
EndSplineSet
Validated: 1048577
EndChar

StartChar: omega
Encoding: 969 969 405
Width: 530
GlyphClass: 2
Flags: W
AnchorPoint: "Anchor-1" 265 546 basechar 0
AnchorPoint: "Anchor-0" 265 0 basechar 0
LayerCount: 2
Fore
SplineSet
164 -10 m 0,0,1
 100 -10 100 -10 66.5 61.5 c 128,-1,2
 33 133 33 133 33 267 c 0,3,4
 33 346 33 346 45 411 c 128,-1,5
 57 476 57 476 79 545 c 1,6,-1
 193 545 l 1,7,8
 170 479 170 479 158.5 410 c 128,-1,9
 147 341 147 341 147 261 c 0,10,11
 147 184 147 184 152.5 143.5 c 128,-1,12
 158 103 158 103 182 103 c 0,13,14
 201 103 201 103 206.5 135 c 128,-1,15
 212 167 212 167 212 237 c 2,16,-1
 212 370 l 1,17,-1
 317 370 l 1,18,-1
 317 237 l 2,19,20
 317 170 317 170 322 136.5 c 128,-1,21
 327 103 327 103 348 103 c 0,22,23
 370 103 370 103 376.5 141 c 128,-1,24
 383 179 383 179 383 261 c 0,25,26
 383 314 383 314 378.5 358 c 128,-1,27
 374 402 374 402 363.5 446 c 128,-1,28
 353 490 353 490 336 545 c 1,29,-1
 452 545 l 1,30,31
 475 477 475 477 486 409.5 c 128,-1,32
 497 342 497 342 497 269 c 0,33,34
 497 133 497 133 462.5 61.5 c 128,-1,35
 428 -10 428 -10 366 -10 c 0,36,37
 326 -10 326 -10 301 16.5 c 128,-1,38
 276 43 276 43 267 89 c 1,39,-1
 263 89 l 1,40,41
 252 37 252 37 226 13.5 c 128,-1,42
 200 -10 200 -10 164 -10 c 0,0,1
EndSplineSet
Validated: 1048577
EndChar

StartChar: uni0402
Encoding: 1026 1026 412
Width: 530
GlyphClass: 2
Flags: W
AnchorPoint: "Anchor-1" 181 714 basechar 0
AnchorPoint: "Anchor-0" 265 0 basechar 0
LayerCount: 2
Fore
SplineSet
329 -10 m 0,0,1
 309 -10 309 -10 294 -6.5 c 128,-1,2
 279 -3 279 -3 265 3 c 1,3,-1
 265 115 l 1,4,5
 274 110 274 110 284.5 106.5 c 128,-1,6
 295 103 295 103 309 103 c 0,7,8
 332 103 332 103 346 118.5 c 128,-1,9
 360 134 360 134 360 177 c 2,10,-1
 360 261 l 2,11,12
 360 302 360 302 340 320 c 128,-1,13
 320 338 320 338 275 338 c 2,14,-1
 213 338 l 1,15,-1
 213 0 l 1,16,-1
 80 0 l 1,17,-1
 80 599 l 1,18,-1
 0 599 l 1,19,-1
 0 714 l 1,20,-1
 352 714 l 1,21,-1
 352 599 l 1,22,-1
 213 599 l 1,23,-1
 213 453 l 1,24,-1
 288 453 l 2,25,26
 385 453 385 453 436 404.5 c 128,-1,27
 487 356 487 356 487 268 c 2,28,-1
 487 169 l 2,29,30
 487 86 487 86 445 38 c 128,-1,31
 403 -10 403 -10 329 -10 c 0,0,1
EndSplineSet
Validated: 1048577
EndChar

StartChar: uni0404
Encoding: 1028 1028 414
Width: 530
GlyphClass: 2
Flags: W
AnchorPoint: "Anchor-1" 315 714 basechar 0
AnchorPoint: "Anchor-0" 309 0 basechar 0
LayerCount: 2
Fore
SplineSet
316 -10 m 0,0,1
 175 -10 175 -10 99 86 c 128,-1,2
 23 182 23 182 23 350 c 0,3,4
 23 461 23 461 57 545 c 128,-1,5
 91 629 91 629 157.5 676.5 c 128,-1,6
 224 724 224 724 320 724 c 0,7,8
 365 724 365 724 410.5 713 c 128,-1,9
 456 702 456 702 496 679 c 1,10,-1
 459 572 l 1,11,12
 393 612 393 612 326 612 c 0,13,14
 269 612 269 612 235.5 586 c 128,-1,15
 202 560 202 560 184.5 517 c 128,-1,16
 167 474 167 474 160 423 c 1,17,-1
 406 423 l 1,18,-1
 406 312 l 1,19,-1
 159 312 l 1,20,21
 162 253 162 253 180.5 206 c 128,-1,22
 199 159 199 159 236.5 131.5 c 128,-1,23
 274 104 274 104 332 104 c 0,24,25
 370 104 370 104 405.5 115 c 128,-1,26
 441 126 441 126 474 143 c 1,27,-1
 474 26 l 1,28,29
 441 8 441 8 399.5 -1 c 128,-1,30
 358 -10 358 -10 316 -10 c 0,0,1
EndSplineSet
Validated: 1048577
EndChar

StartChar: uni0409
Encoding: 1033 1033 419
Width: 530
GlyphClass: 2
Flags: W
AnchorPoint: "Anchor-1" 227 714 basechar 0
AnchorPoint: "Anchor-0" 265 0 basechar 0
LayerCount: 2
Fore
SplineSet
62 -9 m 0,0,1
 44 -9 44 -9 30.5 -6 c 128,-1,2
 17 -3 17 -3 7 1 c 1,3,-1
 7 109 l 1,4,5
 23 100 23 100 36 100 c 0,6,7
 55 100 55 100 65.5 120.5 c 128,-1,8
 76 141 76 141 80 190 c 0,9,10
 81 212 81 212 83 263 c 128,-1,11
 85 314 85 314 87.5 386 c 128,-1,12
 90 458 90 458 92.5 542 c 128,-1,13
 95 626 95 626 98 714 c 1,14,-1
 345 714 l 1,15,-1
 345 438 l 1,16,-1
 365 438 l 2,17,18
 528 438 528 438 528 225 c 0,19,20
 528 115 528 115 484.5 57.5 c 128,-1,21
 441 0 441 0 361 0 c 2,22,-1
 235 0 l 1,23,-1
 235 595 l 1,24,-1
 202 595 l 1,25,26
 199 478 199 478 196.5 398 c 128,-1,27
 194 318 194 318 192 266.5 c 128,-1,28
 190 215 190 215 188 182.5 c 128,-1,29
 186 150 186 150 184 127 c 0,30,31
 174 57 174 57 145.5 24 c 128,-1,32
 117 -9 117 -9 62 -9 c 0,0,1
368 110 m 2,33,34
 419 110 419 110 419 220 c 0,35,36
 419 328 419 328 368 328 c 2,37,-1
 345 328 l 1,38,-1
 345 110 l 1,39,-1
 368 110 l 2,33,34
EndSplineSet
Validated: 1048577
EndChar

StartChar: uni040A
Encoding: 1034 1034 420
Width: 530
GlyphClass: 2
Flags: W
AnchorPoint: "Anchor-1" 182 714 basechar 0
AnchorPoint: "Anchor-0" 265 0 basechar 0
LayerCount: 2
Fore
SplineSet
26 0 m 1,0,-1
 26 714 l 1,1,-1
 145 714 l 1,2,-1
 145 438 l 1,3,-1
 221 438 l 1,4,-1
 221 714 l 1,5,-1
 339 714 l 1,6,-1
 339 439 l 1,7,-1
 355 439 l 2,8,9
 437 439 437 439 482 385.5 c 128,-1,10
 527 332 527 332 527 225 c 0,11,12
 527 116 527 116 480.5 58 c 128,-1,13
 434 0 434 0 354 0 c 2,14,-1
 221 0 l 1,15,-1
 221 328 l 1,16,-1
 145 328 l 1,17,-1
 145 0 l 1,18,-1
 26 0 l 1,0,-1
357 110 m 2,19,20
 382 110 382 110 396.5 138 c 128,-1,21
 411 166 411 166 411 221 c 256,22,23
 411 276 411 276 396.5 302.5 c 128,-1,24
 382 329 382 329 356 329 c 2,25,-1
 339 329 l 1,26,-1
 339 110 l 1,27,-1
 357 110 l 2,19,20
EndSplineSet
Validated: 1048577
EndChar

StartChar: uni040B
Encoding: 1035 1035 421
Width: 530
GlyphClass: 2
Flags: W
AnchorPoint: "Anchor-1" 178 714 basechar 0
AnchorPoint: "Anchor-0" 289 0 basechar 0
LayerCount: 2
Fore
SplineSet
81 0 m 1,0,-1
 81 599 l 1,1,-1
 0 599 l 1,2,-1
 0 714 l 1,3,-1
 347 714 l 1,4,-1
 347 599 l 1,5,-1
 213 599 l 1,6,-1
 213 453 l 1,7,-1
 285 453 l 2,8,9
 395 453 395 453 441 403 c 128,-1,10
 487 353 487 353 487 265 c 2,11,-1
 487 0 l 1,12,-1
 353 0 l 1,13,-1
 353 257 l 2,14,15
 353 295 353 295 336.5 316.5 c 128,-1,16
 320 338 320 338 271 338 c 2,17,-1
 213 338 l 1,18,-1
 213 0 l 1,19,-1
 81 0 l 1,0,-1
EndSplineSet
Validated: 1048577
EndChar

StartChar: uni040F
Encoding: 1039 1039 424
Width: 530
GlyphClass: 2
Flags: W
AnchorPoint: "Anchor-1" 265 714 basechar 0
AnchorPoint: "Anchor-0" 265 -208 basechar 0
LayerCount: 2
Fore
SplineSet
203 -208 m 1,0,-1
 203 0 l 1,1,-1
 38 0 l 1,2,-1
 38 714 l 1,3,-1
 172 714 l 1,4,-1
 172 115 l 1,5,-1
 359 115 l 1,6,-1
 359 714 l 1,7,-1
 492 714 l 1,8,-1
 492 0 l 1,9,-1
 327 0 l 1,10,-1
 327 -208 l 1,11,-1
 203 -208 l 1,0,-1
EndSplineSet
Validated: 1048577
EndChar

StartChar: uni0411
Encoding: 1041 1041 426
Width: 530
GlyphClass: 2
Flags: W
AnchorPoint: "Anchor-1" 258 714 basechar 0
AnchorPoint: "Anchor-0" 258 0 basechar 0
LayerCount: 2
Fore
SplineSet
63 0 m 1,0,-1
 63 714 l 1,1,-1
 449 714 l 1,2,-1
 449 600 l 1,3,-1
 196 600 l 1,4,-1
 196 438 l 1,5,-1
 252 438 l 2,6,7
 373 438 373 438 434 382.5 c 128,-1,8
 495 327 495 327 495 223 c 0,9,10
 495 116 495 116 434.5 58 c 128,-1,11
 374 0 374 0 256 0 c 2,12,-1
 63 0 l 1,0,-1
251 113 m 2,13,14
 361 113 361 113 361 221 c 0,15,16
 361 277 361 277 332 301.5 c 128,-1,17
 303 326 303 326 246 326 c 2,18,-1
 196 326 l 1,19,-1
 196 113 l 1,20,-1
 251 113 l 2,13,14
EndSplineSet
Validated: 1048577
EndChar

StartChar: uni0414
Encoding: 1044 1044 429
Width: 530
GlyphClass: 2
Flags: W
AnchorPoint: "Anchor-1" 308 714 basechar 0
AnchorPoint: "Anchor-0" 265 -206 basechar 0
LayerCount: 2
Fore
SplineSet
7 -206 m 1,0,-1
 7 115 l 1,1,-1
 62 115 l 1,2,3
 93 228 93 228 117 374 c 128,-1,4
 141 520 141 520 153 714 c 1,5,-1
 461 714 l 1,6,-1
 461 115 l 1,7,-1
 517 115 l 1,8,-1
 517 -206 l 1,9,-1
 395 -206 l 1,10,-1
 395 0 l 1,11,-1
 129 0 l 1,12,-1
 129 -206 l 1,13,-1
 7 -206 l 1,0,-1
198 115 m 1,14,-1
 338 115 l 1,15,-1
 338 600 l 1,16,-1
 264 600 l 1,17,18
 260 530 260 530 250.5 444 c 128,-1,19
 241 358 241 358 227.5 272 c 128,-1,20
 214 186 214 186 198 115 c 1,14,-1
EndSplineSet
Validated: 1048577
EndChar

StartChar: uni0416
Encoding: 1046 1046 431
Width: 530
GlyphClass: 2
Flags: W
AnchorPoint: "Anchor-1" 265 714 basechar 0
AnchorPoint: "Anchor-0" 265 0 basechar 0
LayerCount: 2
Fore
SplineSet
2 0 m 1,0,-1
 98 368 l 1,1,-1
 5 714 l 1,2,-1
 127 714 l 1,3,-1
 208 368 l 1,4,-1
 208 714 l 1,5,-1
 323 714 l 1,6,-1
 323 368 l 1,7,-1
 406 714 l 1,8,-1
 525 714 l 1,9,-1
 435 368 l 1,10,-1
 529 0 l 1,11,-1
 407 0 l 1,12,-1
 323 362 l 1,13,-1
 323 0 l 1,14,-1
 208 0 l 1,15,-1
 208 362 l 1,16,-1
 125 0 l 1,17,-1
 2 0 l 1,0,-1
EndSplineSet
Validated: 1048577
EndChar

StartChar: uni0417
Encoding: 1047 1047 432
Width: 530
GlyphClass: 2
Flags: W
AnchorPoint: "Anchor-1" 262 714 basechar 0
AnchorPoint: "Anchor-0" 265 0 basechar 0
LayerCount: 2
Fore
SplineSet
225 -10 m 0,0,1
 172 -10 172 -10 125.5 -1 c 128,-1,2
 79 8 79 8 43 25 c 1,3,-1
 43 150 l 1,4,5
 76 130 76 130 124.5 117.5 c 128,-1,6
 173 105 173 105 215 105 c 0,7,8
 289 105 289 105 322 130.5 c 128,-1,9
 355 156 355 156 355 209 c 0,10,11
 355 264 355 264 318 289.5 c 128,-1,12
 281 315 281 315 202 315 c 2,13,-1
 126 315 l 1,14,-1
 126 427 l 1,15,-1
 198 427 l 2,16,17
 273 427 273 427 306 449.5 c 128,-1,18
 339 472 339 472 339 523 c 0,19,20
 339 566 339 566 314.5 588.5 c 128,-1,21
 290 611 290 611 237 611 c 0,22,23
 195 611 195 611 160.5 595.5 c 128,-1,24
 126 580 126 580 99 560 c 1,25,-1
 43 654 l 1,26,27
 87 685 87 685 138.5 704.5 c 128,-1,28
 190 724 190 724 260 724 c 0,29,30
 364 724 364 724 418 674.5 c 128,-1,31
 472 625 472 625 472 546 c 0,32,33
 472 474 472 474 438.5 432.5 c 128,-1,34
 405 391 405 391 345 377 c 1,35,-1
 345 374 l 1,36,37
 416 365 416 365 453 320 c 128,-1,38
 490 275 490 275 490 199 c 0,39,40
 490 138 490 138 462 91 c 128,-1,41
 434 44 434 44 375.5 17 c 128,-1,42
 317 -10 317 -10 225 -10 c 0,0,1
EndSplineSet
Validated: 1048577
EndChar

StartChar: uni0418
Encoding: 1048 1048 433
Width: 530
GlyphClass: 2
Flags: W
AnchorPoint: "Anchor-1" 265 714 basechar 0
AnchorPoint: "Anchor-0" 280 0 basechar 0
LayerCount: 2
Fore
SplineSet
38 0 m 1,0,-1
 38 714 l 1,1,-1
 165 714 l 1,2,-1
 165 371 l 2,3,4
 165 335 165 335 163 288 c 128,-1,5
 161 241 161 241 158 200 c 1,6,-1
 162 200 l 1,7,-1
 324 714 l 1,8,-1
 492 714 l 1,9,-1
 492 0 l 1,10,-1
 366 0 l 1,11,-1
 366 346 l 2,12,13
 366 398 366 398 368 439.5 c 128,-1,14
 370 481 370 481 374 521 c 1,15,-1
 370 521 l 1,16,-1
 205 0 l 1,17,-1
 38 0 l 1,0,-1
EndSplineSet
Validated: 1048577
EndChar

StartChar: uni041A
Encoding: 1050 1050 435
Width: 530
GlyphClass: 2
Flags: W
AnchorPoint: "Anchor-1" 265 714 basechar 0
AnchorPoint: "Anchor-0" 268 0 basechar 0
LayerCount: 2
Fore
SplineSet
38 0 m 1,0,-1
 38 714 l 1,1,-1
 172 714 l 1,2,-1
 172 373 l 1,3,-1
 364 714 l 1,4,-1
 509 714 l 1,5,-1
 304 372 l 1,6,-1
 516 0 l 1,7,-1
 365 0 l 1,8,-1
 172 367 l 1,9,-1
 172 0 l 1,10,-1
 38 0 l 1,0,-1
EndSplineSet
Validated: 1048577
EndChar

StartChar: uni041B
Encoding: 1051 1051 436
Width: 530
GlyphClass: 2
Flags: W
AnchorPoint: "Anchor-1" 331 714 basechar 0
AnchorPoint: "Anchor-0" 268 0 basechar 0
LayerCount: 2
Fore
SplineSet
79 -9 m 0,0,1
 59 -9 59 -9 43 -6.5 c 128,-1,2
 27 -4 27 -4 15 1 c 1,3,-1
 15 113 l 1,4,5
 35 104 35 104 54 104 c 0,6,7
 81 104 81 104 95 131.5 c 128,-1,8
 109 159 109 159 120 234 c 0,9,10
 126 274 126 274 131.5 345.5 c 128,-1,11
 137 417 137 417 143 511.5 c 128,-1,12
 149 606 149 606 157 714 c 1,13,-1
 492 714 l 1,14,-1
 492 0 l 1,15,-1
 359 0 l 1,16,-1
 359 594 l 1,17,-1
 273 594 l 1,18,19
 269 533 269 533 265.5 470 c 128,-1,20
 262 407 262 407 257.5 349 c 128,-1,21
 253 291 253 291 248.5 243.5 c 128,-1,22
 244 196 244 196 238 166 c 0,23,24
 222 76 222 76 187 33.5 c 128,-1,25
 152 -9 152 -9 79 -9 c 0,0,1
EndSplineSet
Validated: 1048577
EndChar

StartChar: uni041F
Encoding: 1055 1055 440
Width: 530
GlyphClass: 2
Flags: W
AnchorPoint: "Anchor-1" 265 714 basechar 0
AnchorPoint: "Anchor-0" 265 0 basechar 0
LayerCount: 2
Fore
SplineSet
38 0 m 1,0,-1
 38 714 l 1,1,-1
 492 714 l 1,2,-1
 492 0 l 1,3,-1
 359 0 l 1,4,-1
 359 599 l 1,5,-1
 172 599 l 1,6,-1
 172 0 l 1,7,-1
 38 0 l 1,0,-1
EndSplineSet
Validated: 1048577
EndChar

StartChar: uni0423
Encoding: 1059 1059 444
Width: 530
GlyphClass: 2
Flags: W
AnchorPoint: "Anchor-1" 267 714 basechar 0
AnchorPoint: "Anchor-0" 200 0 basechar 0
LayerCount: 2
Fore
SplineSet
123 -10 m 0,0,1
 76 -10 76 -10 34 4 c 1,2,-1
 34 120 l 1,3,4
 70 104 70 104 109 104 c 256,5,6
 148 104 148 104 167.5 127 c 128,-1,7
 187 150 187 150 203 203 c 1,8,-1
 13 714 l 1,9,-1
 154 714 l 1,10,-1
 244 447 l 2,11,12
 260 398 260 398 271 335 c 1,13,-1
 277 335 l 1,14,15
 281 365 281 365 286.5 390 c 128,-1,16
 292 415 292 415 300 442 c 2,17,-1
 378 714 l 1,18,-1
 517 714 l 1,19,-1
 349 208 l 2,20,21
 325 136 325 136 297 87.5 c 128,-1,22
 269 39 269 39 227.5 14.5 c 128,-1,23
 186 -10 186 -10 123 -10 c 0,0,1
EndSplineSet
Validated: 1048577
EndChar

StartChar: uni0424
Encoding: 1060 1060 445
Width: 530
GlyphClass: 2
Flags: W
AnchorPoint: "Anchor-1" 265 714 basechar 0
AnchorPoint: "Anchor-0" 265 0 basechar 0
LayerCount: 2
Fore
SplineSet
207 100 m 1,0,1
 152 102 152 102 114.5 126 c 128,-1,2
 77 150 77 150 54.5 189.5 c 128,-1,3
 32 229 32 229 22.5 276.5 c 128,-1,4
 13 324 13 324 13 372 c 256,5,6
 13 420 13 420 22.5 466 c 128,-1,7
 32 512 32 512 54.5 549.5 c 128,-1,8
 77 587 77 587 114.5 610.5 c 128,-1,9
 152 634 152 634 207 636 c 1,10,-1
 207 724 l 1,11,-1
 324 724 l 1,12,-1
 324 636 l 1,13,14
 381 634 381 634 418 610.5 c 128,-1,15
 455 587 455 587 477 549.5 c 128,-1,16
 499 512 499 512 508 466.5 c 128,-1,17
 517 421 517 421 517 374 c 0,18,19
 517 329 517 329 508.5 282 c 128,-1,20
 500 235 500 235 478.5 194.5 c 128,-1,21
 457 154 457 154 419.5 128 c 128,-1,22
 382 102 382 102 324 100 c 1,23,-1
 324 -10 l 1,24,-1
 207 -10 l 1,25,-1
 207 100 l 1,0,1
207 522 m 1,26,27
 167 518 167 518 151.5 476.5 c 128,-1,28
 136 435 136 435 136 371 c 0,29,30
 136 301 136 301 153 259 c 128,-1,31
 170 217 170 217 207 213 c 1,32,-1
 207 522 l 1,26,27
324 213 m 1,33,34
 362 217 362 217 378 259.5 c 128,-1,35
 394 302 394 302 394 372 c 0,36,37
 394 435 394 435 379.5 476.5 c 128,-1,38
 365 518 365 518 324 522 c 1,39,-1
 324 213 l 1,33,34
EndSplineSet
Validated: 1048577
EndChar

StartChar: uni0426
Encoding: 1062 1062 447
Width: 530
GlyphClass: 2
Flags: W
AnchorPoint: "Anchor-1" 265 714 basechar 0
AnchorPoint: "Anchor-0" 265 -206 basechar 0
LayerCount: 2
Fore
SplineSet
38 0 m 1,0,-1
 38 714 l 1,1,-1
 172 714 l 1,2,-1
 172 115 l 1,3,-1
 359 115 l 1,4,-1
 359 714 l 1,5,-1
 492 714 l 1,6,-1
 492 113 l 1,7,-1
 530 113 l 1,8,-1
 530 -207 l 1,9,-1
 401 -207 l 1,10,-1
 401 0 l 1,11,-1
 38 0 l 1,0,-1
EndSplineSet
Validated: 1048577
EndChar

StartChar: uni0427
Encoding: 1063 1063 448
Width: 530
GlyphClass: 2
Flags: W
AnchorPoint: "Anchor-1" 265 714 basechar 0
AnchorPoint: "Anchor-0" 265 0 basechar 0
LayerCount: 2
Fore
SplineSet
360 274 m 1,0,1
 324 257 324 257 288.5 247 c 128,-1,2
 253 237 253 237 207 237 c 0,3,4
 129 237 129 237 83.5 280 c 128,-1,5
 38 323 38 323 38 414 c 2,6,-1
 38 714 l 1,7,-1
 171 714 l 1,8,-1
 171 450 l 2,9,10
 171 394 171 394 190.5 371.5 c 128,-1,11
 210 349 210 349 248 349 c 0,12,13
 277 349 277 349 304 357.5 c 128,-1,14
 331 366 331 366 360 382 c 1,15,-1
 360 714 l 1,16,-1
 492 714 l 1,17,-1
 492 0 l 1,18,-1
 360 0 l 1,19,-1
 360 274 l 1,0,1
EndSplineSet
Validated: 1048577
EndChar

StartChar: uni0428
Encoding: 1064 1064 449
Width: 530
GlyphClass: 2
Flags: W
AnchorPoint: "Anchor-1" 265 714 basechar 0
AnchorPoint: "Anchor-0" 265 0 basechar 0
LayerCount: 2
Fore
SplineSet
26 0 m 1,0,-1
 26 714 l 1,1,-1
 142 714 l 1,2,-1
 142 111 l 1,3,-1
 208 111 l 1,4,-1
 208 714 l 1,5,-1
 323 714 l 1,6,-1
 323 111 l 1,7,-1
 389 111 l 1,8,-1
 389 714 l 1,9,-1
 504 714 l 1,10,-1
 504 0 l 1,11,-1
 26 0 l 1,0,-1
EndSplineSet
Validated: 1048577
EndChar

StartChar: uni0429
Encoding: 1065 1065 450
Width: 530
GlyphClass: 2
Flags: W
AnchorPoint: "Anchor-1" 265 714 basechar 0
AnchorPoint: "Anchor-0" 265 -208 basechar 0
LayerCount: 2
Fore
SplineSet
26 0 m 1,0,-1
 26 714 l 1,1,-1
 142 714 l 1,2,-1
 142 111 l 1,3,-1
 208 111 l 1,4,-1
 208 714 l 1,5,-1
 323 714 l 1,6,-1
 323 111 l 1,7,-1
 380 111 l 1,8,-1
 380 111 l 1,9,-1
 389 111 l 1,10,-1
 389 714 l 1,11,-1
 504 714 l 1,12,-1
 504 111 l 1,13,-1
 530 111 l 1,14,-1
 530 -208 l 1,15,-1
 406 -208 l 1,16,-1
 406 0 l 1,17,-1
 26 0 l 1,0,-1
EndSplineSet
Validated: 1048577
EndChar

StartChar: uni042A
Encoding: 1066 1066 451
Width: 530
GlyphClass: 2
Flags: W
AnchorPoint: "Anchor-1" 265 714 basechar 0
AnchorPoint: "Anchor-0" 265 0 basechar 0
LayerCount: 2
Fore
SplineSet
83 0 m 1,0,-1
 83 599 l 1,1,-1
 0 599 l 1,2,-1
 0 714 l 1,3,-1
 216 714 l 1,4,-1
 216 438 l 1,5,-1
 272 438 l 2,6,7
 393 438 393 438 454 382.5 c 128,-1,8
 515 327 515 327 515 223 c 0,9,10
 515 116 515 116 454 58 c 128,-1,11
 393 0 393 0 276 0 c 2,12,-1
 83 0 l 1,0,-1
271 113 m 2,13,14
 324 113 324 113 352.5 139.5 c 128,-1,15
 381 166 381 166 381 221 c 0,16,17
 381 277 381 277 352 301.5 c 128,-1,18
 323 326 323 326 267 326 c 2,19,-1
 216 326 l 1,20,-1
 216 113 l 1,21,-1
 271 113 l 2,13,14
EndSplineSet
Validated: 1048577
EndChar

StartChar: uni042B
Encoding: 1067 1067 452
Width: 530
GlyphClass: 2
Flags: W
AnchorPoint: "Anchor-1" 265 714 basechar 0
AnchorPoint: "Anchor-0" 265 0 basechar 0
LayerCount: 2
Fore
SplineSet
26 0 m 1,0,-1
 26 714 l 1,1,-1
 148 714 l 1,2,-1
 148 439 l 1,3,-1
 167 439 l 2,4,5
 257 439 257 439 304 385.5 c 128,-1,6
 351 332 351 332 351 224 c 256,7,8
 351 116 351 116 304.5 58 c 128,-1,9
 258 0 258 0 173 0 c 2,10,-1
 26 0 l 1,0,-1
381 0 m 1,11,-1
 381 714 l 1,12,-1
 504 714 l 1,13,-1
 504 0 l 1,14,-1
 381 0 l 1,11,-1
169 110 m 2,15,16
 224 110 224 110 224 222 c 0,17,18
 224 329 224 329 168 329 c 2,19,-1
 148 329 l 1,20,-1
 148 110 l 1,21,-1
 169 110 l 2,15,16
EndSplineSet
Validated: 1048577
EndChar

StartChar: uni042C
Encoding: 1068 1068 453
Width: 530
GlyphClass: 2
Flags: W
AnchorPoint: "Anchor-1" 265 714 basechar 0
AnchorPoint: "Anchor-0" 265 0 basechar 0
LayerCount: 2
Fore
SplineSet
63 0 m 1,0,-1
 63 714 l 1,1,-1
 196 714 l 1,2,-1
 196 438 l 1,3,-1
 252 438 l 2,4,5
 373 438 373 438 434 382.5 c 128,-1,6
 495 327 495 327 495 223 c 0,7,8
 495 116 495 116 434 58 c 128,-1,9
 373 0 373 0 256 0 c 2,10,-1
 63 0 l 1,0,-1
251 113 m 2,11,12
 304 113 304 113 332.5 139.5 c 128,-1,13
 361 166 361 166 361 221 c 0,14,15
 361 277 361 277 332 301.5 c 128,-1,16
 303 326 303 326 247 326 c 2,17,-1
 196 326 l 1,18,-1
 196 113 l 1,19,-1
 251 113 l 2,11,12
EndSplineSet
Validated: 1048577
EndChar

StartChar: uni042E
Encoding: 1070 1070 455
Width: 530
GlyphClass: 2
Flags: W
AnchorPoint: "Anchor-1" 265 714 basechar 0
AnchorPoint: "Anchor-0" 265 0 basechar 0
LayerCount: 2
Fore
SplineSet
26 0 m 1,0,-1
 26 714 l 1,1,-1
 138 714 l 1,2,-1
 138 427 l 1,3,-1
 191 427 l 1,4,5
 196 584 196 584 232 654.5 c 128,-1,6
 268 725 268 725 349 725 c 0,7,8
 438 725 438 725 472 636.5 c 128,-1,9
 506 548 506 548 506 357 c 0,10,11
 506 238 506 238 492.5 156 c 128,-1,12
 479 74 479 74 445.5 32 c 128,-1,13
 412 -10 412 -10 350 -10 c 0,14,15
 262 -10 262 -10 227.5 69 c 128,-1,16
 193 148 193 148 190 316 c 1,17,-1
 138 316 l 1,18,-1
 138 0 l 1,19,-1
 26 0 l 1,0,-1
347 111 m 0,20,21
 376 111 376 111 384 172 c 128,-1,22
 392 233 392 233 392 360 c 0,23,24
 392 485 392 485 384 546.5 c 128,-1,25
 376 608 376 608 347 608 c 0,26,27
 319 608 319 608 310.5 545 c 128,-1,28
 302 482 302 482 302 360 c 0,29,30
 302 235 302 235 310.5 173 c 128,-1,31
 319 111 319 111 347 111 c 0,20,21
EndSplineSet
Validated: 1048577
EndChar

